SplineFontDB: 3.2
FontName: FreeMono-FixedBraille
FullName: Free Monospaced Fixed Braille
FamilyName: FreeMono-FixedBraille
Weight: Book
Copyright: Copyleft 2002, 2003, 2005, 2008, 2009, 2010, 2019, Free Software Foundation, NV Access
UComments: "This is a modification of the freefont-20100919-ttf archive.+AAoA-It fixes the transposition of many of the braille symbols. "
Version: $Revision: 1.215 $
ItalicAngle: 0
UnderlinePosition: -153
UnderlineWidth: 51
Ascent: 819
Descent: 205
InvalidEm: 0
sfntRevision: 0x0001370a
LayerCount: 2
Layer: 0 1 "Back" 1
Layer: 1 1 "Fore" 0
XUID: [1021 749 1134150832 17097]
StyleMap: 0x0040
FSType: 0
OS2Version: 1
OS2_WeightWidthSlopeOnly: 0
OS2_UseTypoMetrics: 0
CreationTime: 1203284335
ModificationTime: 1575115247
PfmFamily: 17
TTFWeight: 400
TTFWidth: 5
LineGap: 92
VLineGap: 0
Panose: 2 7 4 9 2 2 5 2 4 4
OS2TypoAscent: 819
OS2TypoAOffset: 0
OS2TypoDescent: -205
OS2TypoDOffset: 0
OS2TypoLinegap: 0
OS2WinAscent: 819
OS2WinAOffset: 0
OS2WinDescent: 205
OS2WinDOffset: 0
HheadAscent: 819
HheadAOffset: 0
HheadDescent: -205
HheadDOffset: 0
OS2SubXSize: 666
OS2SubYSize: 716
OS2SubXOff: 48
OS2SubYOff: 143
OS2SupXSize: 666
OS2SupYSize: 716
OS2SupXOff: -167
OS2SupYOff: 490
OS2StrikeYSize: 50
OS2StrikeYPos: 264
OS2Vendor: 'GNU '
OS2CodePages: 600001bf.dff70000
OS2UnicodeRanges: e4000eff.40007fff.00049020.00000000
Lookup: 4 0 0 "'ccmp' Glyph Composition/Decomposition in Latin lookup 0" { "'ccmp' Glyph Composition/Decomposition in Latin lookup 0 per glyph data 0"  "'ccmp' Glyph Composition/Decomposition in Latin lookup 0 per glyph data 1"  } ['ccmp' ('latn' <'dflt' > ) ]
Lookup: 4 0 0 "'ccmp' Glyph Composition/Decomposition in Latin lookup 1" { "'ccmp' Glyph Composition/Decomposition in Latin lookup 1 subtable"  } ['ccmp' ('latn' <'dflt' > ) ]
Lookup: 1 0 0 "'locl' Localized Forms in Latin lookup 2" { "'locl' Localized Forms in Latin lookup 2 subtable"  } ['locl' ('latn' <'ISM ' 'LSM ' 'NSM ' 'SKS ' > ) ]

StartChar: .notdef
Encoding: 65536 -1 0
Width: 628
Flags: W
LayerCount: 2
Fore
SplineSet
104 0 m 1,0,-1
 104 591 l 1,1,-1
 524 591 l 1,2,-1
 524 0 l 1,3,-1
 104 0 l 1,0,-1
139 35 m 1,4,-1
 489 35 l 1,5,-1
 489 556 l 1,6,-1
 139 556 l 1,7,-1
 139 35 l 1,4,-1
EndSplineSet
Validated: 1
EndChar

StartChar: exclam
Encoding: 33 33 4
Width: 628
GlyphClass: 2
Flags: W
LayerCount: 2
Fore
SplineSet
354 591 m 2,0,-1
 336 249 l 2,1,2
 334 219 334 219 313 219 c 0,3,4
 295 219 295 219 293 249 c 2,5,-1
 273 591 l 2,6,7
 273 593 273 593 272.5 599 c 128,-1,8
 272 605 272 605 272 607 c 0,9,10
 272 624 272 624 284.5 636 c 128,-1,11
 297 648 297 648 314 648 c 0,12,13
 330 648 330 648 342.5 636.5 c 128,-1,14
 355 625 355 625 355 607 c 0,15,16
 355 606 355 606 355 604 c 128,-1,17
 355 602 355 602 354.5 598 c 128,-1,18
 354 594 354 594 354 591 c 2,0,-1
307 89 m 2,19,-1
 321 89 l 2,20,21
 346 89 346 89 362 73.5 c 128,-1,22
 378 58 378 58 378 36 c 128,-1,23
 378 14 378 14 361.5 -0.5 c 128,-1,24
 345 -15 345 -15 321 -15 c 2,25,-1
 307 -15 l 2,26,27
 283 -15 283 -15 267.5 -0.5 c 128,-1,28
 252 14 252 14 252 36 c 128,-1,29
 252 58 252 58 267.5 73.5 c 128,-1,30
 283 89 283 89 307 89 c 2,19,-1
EndSplineSet
Validated: 1
EndChar

StartChar: quotedbl
Encoding: 34 34 5
Width: 628
GlyphClass: 2
Flags: W
LayerCount: 2
Fore
SplineSet
154 633 m 1,0,-1
 288 633 l 1,1,-1
 252 368 l 2,2,3
 248 330 248 330 220.5 330.5 c 128,-1,4
 193 331 193 331 188 368 c 2,5,-1
 154 633 l 1,0,-1
342 633 m 1,6,-1
 476 633 l 1,7,-1
 440 368 l 2,8,9
 436 330 436 330 409 330.5 c 128,-1,10
 382 331 382 331 378 368 c 2,11,-1
 342 633 l 1,6,-1
EndSplineSet
Validated: 33
EndChar

StartChar: numbersign
Encoding: 35 35 6
Width: 628
GlyphClass: 2
Flags: W
LayerCount: 2
Fore
SplineSet
337 -38 m 2,0,-1
 353 199 l 1,1,-1
 258 199 l 1,2,-1
 243 -38 l 2,3,4
 240 -66 240 -66 220 -65 c 0,5,6
 212 -65 212 -65 206 -58.5 c 128,-1,7
 200 -52 200 -52 200 -43 c 0,8,9
 200 -38 200 -38 200 -35 c 2,10,-1
 216 199 l 1,11,-1
 125 199 l 2,12,13
 96 199 96 199 96 220 c 0,14,15
 96 240 96 240 125 242 c 2,16,-1
 218 242 l 1,17,-1
 227 374 l 1,18,-1
 145 374 l 2,19,20
 116 374 116 374 118 395 c 0,21,22
 118 415 118 415 145 417 c 2,23,-1
 230 417 l 1,24,-1
 248 652 l 2,25,26
 250 679 250 679 270 679 c 128,-1,27
 290 679 290 679 290 652 c 0,28,29
 290 651 290 651 290 649 c 2,30,-1
 273 417 l 1,31,-1
 369 417 l 1,32,-1
 386 652 l 2,33,34
 387 679 387 679 407 679 c 0,35,36
 427 679 427 679 428 652 c 0,37,38
 428 650 428 650 428 649 c 2,39,-1
 411 417 l 1,40,-1
 505 417 l 2,41,42
 534 417 534 417 532 395 c 0,43,44
 532 372 532 372 505 374 c 2,45,-1
 409 374 l 1,46,-1
 399 242 l 1,47,-1
 483 242 l 2,48,49
 512 242 512 242 512 220 c 0,50,51
 512 197 512 197 483 199 c 2,52,-1
 396 199 l 1,53,-1
 380 -38 l 2,54,55
 379 -66 379 -66 357 -65 c 0,56,57
 350 -65 350 -65 343.5 -58.5 c 128,-1,58
 337 -52 337 -52 337 -46 c 0,59,60
 337 -42 337 -42 337 -38 c 2,0,-1
366 374 m 1,61,-1
 270 374 l 1,62,-1
 261 242 l 1,63,-1
 356 242 l 1,64,-1
 366 374 l 1,61,-1
EndSplineSet
Validated: 33
EndChar

StartChar: dollar
Encoding: 36 36 7
Width: 628
GlyphClass: 2
Flags: W
LayerCount: 2
Fore
SplineSet
468 211 m 0,0,1
 468 249 468 249 444 272 c 128,-1,2
 420 295 420 295 383.5 302.5 c 128,-1,3
 347 310 347 310 305 320.5 c 128,-1,4
 263 331 263 331 226.5 341.5 c 128,-1,5
 190 352 190 352 166 381 c 128,-1,6
 142 410 142 410 142 456 c 0,7,8
 142 512 142 512 184.5 554.5 c 128,-1,9
 227 597 227 597 294 604 c 1,10,-1
 294 658 l 2,11,12
 294 687 294 687 315 687 c 0,13,14
 335 687 335 687 337 658 c 2,15,-1
 337 604 l 1,16,17
 372 601 372 601 395 591.5 c 128,-1,18
 418 582 418 582 445 560 c 1,19,20
 447 591 447 591 468 591 c 0,21,22
 488 591 488 591 488 562 c 2,23,-1
 488 499 l 2,24,25
 488 470 488 470 468 471 c 0,26,27
 450 471 450 471 445 494 c 0,28,29
 441 523 441 523 403 543.5 c 128,-1,30
 365 564 365 564 316 564 c 0,31,32
 262 564 262 564 223.5 532 c 128,-1,33
 185 500 185 500 185 455 c 0,34,35
 185 420 185 420 209 399 c 128,-1,36
 233 378 233 378 269.5 371 c 128,-1,37
 306 364 306 364 348 354 c 128,-1,38
 390 344 390 344 426.5 333 c 128,-1,39
 463 322 463 322 487 290.5 c 128,-1,40
 511 259 511 259 511 211 c 0,41,42
 511 150 511 150 464 107.5 c 128,-1,43
 417 65 417 65 337 56 c 1,44,-1
 337 -69 l 2,45,46
 337 -98 337 -98 315 -96 c 0,47,48
 292 -96 292 -96 294 -69 c 2,49,-1
 294 56 l 1,50,51
 257 58 257 58 219 74 c 128,-1,52
 181 90 181 90 162 114 c 1,53,-1
 162 96 l 2,54,55
 162 67 162 67 140 69 c 0,56,57
 117 69 117 69 119 96 c 2,58,-1
 119 179 l 2,59,60
 119 208 119 208 140 208 c 0,61,62
 157 208 157 208 162 181 c 0,63,64
 165 147 165 147 210.5 122 c 128,-1,65
 256 97 256 97 313 97 c 0,66,67
 381 97 381 97 424.5 129.5 c 128,-1,68
 468 162 468 162 468 211 c 0,0,1
EndSplineSet
Validated: 33
EndChar

StartChar: percent
Encoding: 37 37 8
Width: 628
GlyphClass: 2
Flags: W
LayerCount: 2
Fore
SplineSet
379 248 m 0,0,1
 433 248 433 248 470.5 209.5 c 128,-1,2
 508 171 508 171 508 116 c 0,3,4
 508 64 508 64 470 26 c 128,-1,5
 432 -12 432 -12 380 -12 c 0,6,7
 327 -12 327 -12 289 25.5 c 128,-1,8
 251 63 251 63 251 117 c 128,-1,9
 251 171 251 171 289 209.5 c 128,-1,10
 327 248 327 248 379 248 c 0,0,1
379 208 m 0,11,12
 342 208 342 208 316.5 182 c 128,-1,13
 291 156 291 156 291 118 c 0,14,15
 291 81 291 81 317 54.5 c 128,-1,16
 343 28 343 28 380 28 c 0,17,18
 416 28 416 28 442 54 c 128,-1,19
 468 80 468 80 468 117 c 0,20,21
 468 156 468 156 442.5 182 c 128,-1,22
 417 208 417 208 379 208 c 0,11,12
249 641 m 0,23,24
 303 641 303 641 340.5 603 c 128,-1,25
 378 565 378 565 378 510 c 0,26,27
 378 458 378 458 340 419.5 c 128,-1,28
 302 381 302 381 250 381 c 0,29,30
 197 381 197 381 159 419 c 128,-1,31
 121 457 121 457 121 510.5 c 128,-1,32
 121 564 121 564 159 602.5 c 128,-1,33
 197 641 197 641 249 641 c 0,23,24
249 601 m 0,34,35
 213 601 213 601 187 574.5 c 128,-1,36
 161 548 161 548 161 511 c 128,-1,37
 161 474 161 474 187 447.5 c 128,-1,38
 213 421 213 421 250 421 c 0,39,40
 286 421 286 421 312 447.5 c 128,-1,41
 338 474 338 474 338 510 c 0,42,43
 338 549 338 549 312.5 575 c 128,-1,44
 287 601 287 601 249 601 c 0,34,35
519 360 m 2,45,-1
 122 232 l 2,46,47
 114 229 114 229 109 229 c 0,48,49
 103 229 103 229 97 236 c 128,-1,50
 91 243 91 243 91 250 c 0,51,52
 91 264 91 264 111 270 c 2,53,-1
 508 398 l 2,54,55
 516 400 516 400 520 400 c 0,56,57
 527 400 527 400 532.5 394.5 c 128,-1,58
 538 389 538 389 538 381 c 0,59,60
 537 366 537 366 519 360 c 2,45,-1
EndSplineSet
Validated: 1
EndChar

StartChar: ampersand
Encoding: 38 38 9
Width: 628
GlyphClass: 2
Flags: W
LayerCount: 2
Fore
SplineSet
412 0 m 1,0,-1
 380 50 l 1,1,2
 333 -18 333 -18 262 -16 c 0,3,4
 201 -16 201 -16 156 33 c 128,-1,5
 111 82 111 82 111 148 c 0,6,7
 111 202 111 202 141.5 243.5 c 128,-1,8
 172 285 172 285 226 301 c 1,9,10
 190 358 190 358 182 377 c 128,-1,11
 174 396 174 396 174 420 c 0,12,13
 174 471 174 471 212.5 507.5 c 128,-1,14
 251 544 251 544 303 544 c 0,15,16
 338 544 338 544 373 523 c 1,17,18
 392 534 392 534 399.5 534.5 c 128,-1,19
 407 535 407 535 413.5 528 c 128,-1,20
 420 521 420 521 420 513 c 0,21,22
 420 501 420 501 402 490 c 2,23,-1
 369 474 l 1,24,25
 337 502 337 502 303 501 c 0,26,27
 269 501 269 501 243 475.5 c 128,-1,28
 217 450 217 450 217 417.5 c 128,-1,29
 217 385 217 385 263 312 c 2,30,-1
 380 127 l 1,31,32
 413 187 413 187 428 261 c 1,33,-1
 473 261 l 2,34,35
 502 261 502 261 501 240 c 0,36,37
 501 217 501 217 473 218 c 2,38,-1
 461 218 l 1,39,40
 437 131 437 131 404 86 c 1,41,-1
 433 43 l 1,42,-1
 473 43 l 2,43,44
 502 43 502 43 501 23 c 0,45,46
 501 0 501 0 473 0 c 2,47,-1
 412 0 l 1,0,-1
354 90 m 1,48,-1
 245 263 l 1,49,50
 203 254 203 254 178.5 222.5 c 128,-1,51
 154 191 154 191 154 148 c 0,52,53
 154 99 154 99 186 63 c 128,-1,54
 218 27 218 27 261 27 c 0,55,56
 318 27 318 27 354 90 c 1,48,-1
EndSplineSet
Validated: 33
EndChar

StartChar: quotesingle
Encoding: 39 39 10
Width: 628
GlyphClass: 2
Flags: W
LayerCount: 2
Fore
SplineSet
248 633 m 1,0,-1
 382 633 l 1,1,-1
 346 368 l 2,2,3
 341 330 341 330 315 330.5 c 128,-1,4
 289 331 289 331 283 368 c 2,5,-1
 248 633 l 1,0,-1
EndSplineSet
Validated: 33
EndChar

StartChar: parenleft
Encoding: 40 40 11
Width: 628
GlyphClass: 2
Flags: W
LayerCount: 2
Fore
SplineSet
308 255 m 0,0,1
 308 333 308 333 340.5 425.5 c 128,-1,2
 373 518 373 518 408 575.5 c 128,-1,3
 443 633 443 633 460 633 c 0,4,5
 468 633 468 633 474 627 c 128,-1,6
 480 621 480 621 480 612 c 0,7,8
 480 601 480 601 463 570 c 128,-1,9
 446 539 446 539 426 502 c 128,-1,10
 406 465 406 465 389.5 397 c 128,-1,11
 373 329 373 329 373 252 c 0,12,13
 373 91 373 91 477 -97 c 0,14,15
 480 -104 480 -104 480 -109 c 0,16,17
 480 -117 480 -117 473.5 -123.5 c 128,-1,18
 467 -130 467 -130 458 -130 c 0,19,20
 442 -130 442 -130 406.5 -72.5 c 128,-1,21
 371 -15 371 -15 339.5 79 c 128,-1,22
 308 173 308 173 308 255 c 0,0,1
EndSplineSet
Validated: 1
EndChar

StartChar: parenright
Encoding: 41 41 12
Width: 628
GlyphClass: 2
Flags: W
LayerCount: 2
Fore
SplineSet
155 -109 m 0,0,1
 155 -98 155 -98 171 -67 c 128,-1,2
 187 -36 187 -36 207.5 1.5 c 128,-1,3
 228 39 228 39 245 107 c 128,-1,4
 262 175 262 175 262 252 c 0,5,6
 262 414 262 414 158 601 c 0,7,8
 155 608 155 608 155 612 c 0,9,10
 155 620 155 620 161.5 626.5 c 128,-1,11
 168 633 168 633 176 633 c 0,12,13
 192 633 192 633 227.5 576 c 128,-1,14
 263 519 263 519 294.5 425 c 128,-1,15
 326 331 326 331 326 249 c 0,16,17
 326 171 326 171 294 78.5 c 128,-1,18
 262 -14 262 -14 226 -72 c 128,-1,19
 190 -130 190 -130 175 -130 c 0,20,21
 167 -130 167 -130 161 -123.5 c 128,-1,22
 155 -117 155 -117 155 -109 c 0,0,1
EndSplineSet
Validated: 1
EndChar

StartChar: asterisk
Encoding: 42 42 13
Width: 628
GlyphClass: 2
Flags: W
LayerCount: 2
Fore
SplineSet
293 460 m 1,0,-1
 293 605 l 2,1,2
 293 634 293 634 314 633 c 0,3,4
 334 633 334 633 336 605 c 2,5,-1
 336 460 l 1,6,-1
 475 505 l 2,7,8
 482 508 482 508 490 508 c 0,9,10
 497 508 497 508 504 501.5 c 128,-1,11
 511 495 511 495 511 486 c 0,12,13
 511 471 511 471 488 464 c 2,14,-1
 349 420 l 1,15,-1
 434 302 l 2,16,17
 441 290 441 290 441 283 c 0,18,19
 441 275 441 275 435 268.5 c 128,-1,20
 429 262 429 262 421 262 c 0,21,22
 411 262 411 262 399 276 c 2,23,-1
 313 394 l 1,24,-1
 228 276 l 2,25,26
 217 262 217 262 207 262 c 0,27,28
 199 262 199 262 192 268 c 128,-1,29
 185 274 185 274 185 285 c 0,30,31
 185 291 185 291 194 302 c 2,32,-1
 279 420 l 1,33,-1
 139 464 l 2,34,35
 119 469 119 469 119 485 c 0,36,37
 119 493 119 493 125 500 c 128,-1,38
 131 507 131 507 139 507 c 0,39,40
 142 507 142 507 154 504 c 2,41,-1
 293 460 l 1,0,-1
EndSplineSet
Validated: 33
EndChar

StartChar: plus
Encoding: 43 43 14
Width: 628
GlyphClass: 2
Flags: W
LayerCount: 2
Fore
SplineSet
336 273 m 1,0,-1
 336 61 l 2,1,2
 336 32 336 32 314 34 c 0,3,4
 291 34 291 34 293 61 c 2,5,-1
 293 273 l 1,6,-1
 103 273 l 2,7,8
 74 273 74 273 76 296 c 0,9,10
 76 316 76 316 103 316 c 2,11,-1
 293 316 l 1,12,-1
 293 527 l 2,13,14
 293 556 293 556 314 556 c 0,15,16
 334 556 334 556 336 527 c 2,17,-1
 336 316 l 1,18,-1
 524 316 l 2,19,20
 554 316 554 316 554 296 c 0,21,22
 554 273 554 273 524 273 c 2,23,-1
 336 273 l 1,0,-1
EndSplineSet
Validated: 33
EndChar

StartChar: comma
Encoding: 44 44 15
Width: 628
GlyphClass: 2
Flags: W
LayerCount: 2
Fore
SplineSet
217 152 m 1,0,-1
 356 152 l 1,1,-1
 205 -126 l 2,2,3
 192 -153 192 -153 172 -152 c 0,4,5
 160 -152 160 -152 150.5 -143 c 128,-1,6
 141 -134 141 -134 141 -122 c 0,7,8
 141 -119 141 -119 143 -111 c 2,9,-1
 217 152 l 1,0,-1
EndSplineSet
Validated: 33
EndChar

StartChar: hyphen
Encoding: 45 45 16
Width: 628
GlyphClass: 2
Flags: W
LayerCount: 2
Fore
SplineSet
525 270 m 2,0,-1
 103 270 l 2,1,2
 74 270 74 270 76 293 c 0,3,4
 76 313 76 313 103 313 c 2,5,-1
 525 313 l 2,6,7
 554 313 554 313 554 293 c 0,8,9
 554 270 554 270 525 270 c 2,0,-1
EndSplineSet
Validated: 33
EndChar

StartChar: period
Encoding: 46 46 17
Width: 628
GlyphClass: 2
Flags: W
LayerCount: 2
Fore
SplineSet
309 122 m 2,0,-1
 319 122 l 2,1,2
 350 122 350 122 371 102.5 c 128,-1,3
 392 83 392 83 392 54 c 128,-1,4
 392 25 392 25 371 5 c 128,-1,5
 350 -15 350 -15 319 -15 c 2,6,-1
 309 -15 l 2,7,8
 278 -15 278 -15 257.5 5 c 128,-1,9
 237 25 237 25 237 54 c 128,-1,10
 237 83 237 83 257.5 102.5 c 128,-1,11
 278 122 278 122 309 122 c 2,0,-1
EndSplineSet
Validated: 1
EndChar

StartChar: slash
Encoding: 47 47 18
Width: 628
GlyphClass: 2
Flags: W
LayerCount: 2
Fore
SplineSet
506 664 m 2,0,-1
 163 -67 l 2,1,2
 154 -85 154 -85 139 -85 c 0,3,4
 131 -85 131 -85 125 -79 c 128,-1,5
 119 -73 119 -73 119 -65 c 0,6,7
 119 -60 119 -60 124 -48 c 2,8,-1
 467 682 l 2,9,10
 475 700 475 700 489 700 c 0,11,12
 497 700 497 700 504 694 c 128,-1,13
 511 688 511 688 511 681 c 0,14,15
 511 674 511 674 506 664 c 2,0,-1
EndSplineSet
Validated: 1
EndChar

StartChar: zero
Encoding: 48 48 19
Width: 628
GlyphClass: 2
Flags: W
LayerCount: 2
Fore
SplineSet
511 368 m 2,0,-1
 511 263 l 2,1,2
 511 139 511 139 456 62 c 128,-1,3
 401 -15 401 -15 314 -15 c 128,-1,4
 227 -15 227 -15 173 62 c 128,-1,5
 119 139 119 139 119 263 c 2,6,-1
 119 368 l 2,7,8
 119 493 119 493 173 570.5 c 128,-1,9
 227 648 227 648 314 648 c 128,-1,10
 401 648 401 648 456 570.5 c 128,-1,11
 511 493 511 493 511 368 c 2,0,-1
314 605 m 0,12,13
 242 605 242 605 202 533.5 c 128,-1,14
 162 462 162 462 162 362 c 2,15,-1
 162 269 l 2,16,17
 162 167 162 167 204.5 97.5 c 128,-1,18
 247 28 247 28 314 28 c 0,19,20
 386 28 386 28 427 99.5 c 128,-1,21
 468 171 468 171 468 269 c 2,22,-1
 468 362 l 2,23,24
 468 464 468 464 425.5 534.5 c 128,-1,25
 383 605 383 605 314 605 c 0,12,13
EndSplineSet
Validated: 1
EndChar

StartChar: one
Encoding: 49 49 20
Width: 628
GlyphClass: 2
Flags: W
LayerCount: 2
Fore
SplineSet
337 642 m 1,0,-1
 337 43 l 1,1,-1
 482 43 l 2,2,3
 511 43 511 43 511 23 c 0,4,5
 511 0 511 0 482 0 c 2,6,-1
 147 0 l 2,7,8
 117 0 117 0 119 23 c 0,9,10
 119 43 119 43 147 43 c 2,11,-1
 294 43 l 1,12,-1
 294 585 l 1,13,-1
 175 467 l 2,14,15
 167 459 167 459 154 458 c 0,16,17
 146 458 146 458 139.5 465 c 128,-1,18
 133 472 133 472 133 482 c 0,19,20
 133 491 133 491 144 504 c 2,21,-1
 283 642 l 1,22,-1
 337 642 l 1,0,-1
EndSplineSet
Validated: 33
EndChar

StartChar: two
Encoding: 50 50 21
Width: 628
GlyphClass: 2
Flags: W
LayerCount: 2
Fore
SplineSet
109 493 m 0,0,1
 109 540 109 540 166 594 c 128,-1,2
 223 648 223 648 304 648 c 0,3,4
 381 648 381 648 439 593.5 c 128,-1,5
 497 539 497 539 497 468 c 0,6,7
 497 421 497 421 469 379.5 c 128,-1,8
 441 338 441 338 346 249 c 2,9,-1
 129 46 l 1,10,-1
 129 43 l 1,11,-1
 458 43 l 1,12,-1
 458 81 l 2,13,14
 458 110 458 110 480 109 c 0,15,16
 500 109 500 109 501 81 c 2,17,-1
 501 0 l 1,18,-1
 88 0 l 1,19,-1
 88 62 l 1,20,-1
 336 296 l 2,21,22
 410 369 410 369 432 401 c 128,-1,23
 454 433 454 433 454 469 c 0,24,25
 454 523 454 523 409 564 c 128,-1,26
 364 605 364 605 304 605 c 0,27,28
 251 605 251 605 207.5 573.5 c 128,-1,29
 164 542 164 542 151 495 c 0,30,31
 145 475 145 475 129 474 c 0,32,33
 122 474 122 474 115.5 480 c 128,-1,34
 109 486 109 486 109 493 c 0,0,1
EndSplineSet
Validated: 33
EndChar

StartChar: three
Encoding: 51 51 22
Width: 628
GlyphClass: 2
Flags: W
LayerCount: 2
Fore
SplineSet
131 554 m 0,0,1
 131 565 131 565 151.5 586 c 128,-1,2
 172 607 172 607 217 627.5 c 128,-1,3
 262 648 262 648 315 648 c 0,4,5
 394 648 394 648 447 601.5 c 128,-1,6
 500 555 500 555 500 486 c 0,7,8
 500 426 500 426 466 390 c 128,-1,9
 432 354 432 354 392 344 c 1,10,11
 453 318 453 318 488 273.5 c 128,-1,12
 523 229 523 229 523 176 c 0,13,14
 523 96 523 96 458.5 40.5 c 128,-1,15
 394 -15 394 -15 304 -15 c 0,16,17
 243 -15 243 -15 171.5 15.5 c 128,-1,18
 100 46 100 46 100 73 c 0,19,20
 100 80 100 80 107 86 c 128,-1,21
 114 92 114 92 121 92 c 128,-1,22
 128 92 128 92 150 75.5 c 128,-1,23
 172 59 172 59 213 43.5 c 128,-1,24
 254 28 254 28 305 28 c 0,25,26
 377 28 377 28 428.5 72 c 128,-1,27
 480 116 480 116 480 176 c 0,28,29
 480 237 480 237 424.5 282 c 128,-1,30
 369 327 369 327 293 327 c 0,31,32
 264 327 264 327 264 349 c 0,33,34
 264 369 264 369 293 370 c 0,35,36
 458 370 458 370 457 485 c 0,37,38
 457 536 457 536 416.5 570.5 c 128,-1,39
 376 605 376 605 314 605 c 0,40,41
 270 605 270 605 239.5 594 c 128,-1,42
 209 583 209 583 196.5 569.5 c 128,-1,43
 184 556 184 556 173 545 c 128,-1,44
 162 534 162 534 152 534 c 0,45,46
 144 534 144 534 137.5 540 c 128,-1,47
 131 546 131 546 131 554 c 0,0,1
EndSplineSet
Validated: 33
EndChar

StartChar: four
Encoding: 52 52 23
Width: 628
GlyphClass: 2
Flags: W
LayerCount: 2
Fore
SplineSet
394 177 m 1,0,-1
 111 177 l 1,1,-1
 111 226 l 1,2,-1
 349 633 l 1,3,-1
 437 633 l 1,4,-1
 437 220 l 1,5,-1
 473 220 l 2,6,7
 502 220 502 220 501 199 c 0,8,9
 501 179 501 179 473 177 c 2,10,-1
 437 177 l 1,11,-1
 437 43 l 1,12,-1
 473 43 l 2,13,14
 502 43 502 43 501 23 c 0,15,16
 501 0 501 0 473 0 c 2,17,-1
 314 0 l 2,18,19
 285 0 285 0 287 23 c 0,20,21
 287 43 287 43 314 43 c 2,22,-1
 394 43 l 1,23,-1
 394 177 l 1,0,-1
394 220 m 1,24,-1
 394 591 l 1,25,-1
 369 591 l 1,26,-1
 151 220 l 1,27,-1
 394 220 l 1,24,-1
EndSplineSet
Validated: 33
EndChar

StartChar: five
Encoding: 53 53 24
Width: 628
GlyphClass: 2
Flags: W
LayerCount: 2
Fore
SplineSet
332 371 m 0,0,1
 291 371 291 371 258 360.5 c 128,-1,2
 225 350 225 350 205 339.5 c 128,-1,3
 185 329 185 329 176 329 c 0,4,5
 157 329 157 329 157 351 c 2,6,-1
 157 633 l 1,7,-1
 452 633 l 2,8,9
 482 633 482 633 481 612 c 0,10,11
 481 589 481 589 452 591 c 2,12,-1
 200 591 l 1,13,-1
 200 383 l 1,14,15
 277 415 277 415 338 414 c 0,16,17
 419 414 419 414 471 356.5 c 128,-1,18
 523 299 523 299 523 211 c 0,19,20
 523 112 523 112 462.5 48.5 c 128,-1,21
 402 -15 402 -15 309 -15 c 0,22,23
 268 -15 268 -15 227.5 -3 c 128,-1,24
 187 9 187 9 160.5 26.5 c 128,-1,25
 134 44 134 44 117 61 c 128,-1,26
 100 78 100 78 100 86 c 128,-1,27
 100 94 100 94 107 100 c 128,-1,28
 114 106 114 106 122 106 c 0,29,30
 129 106 129 106 151 87 c 128,-1,31
 173 68 173 68 214 48 c 128,-1,32
 255 28 255 28 307 28 c 0,33,34
 384 28 384 28 432 79 c 128,-1,35
 480 130 480 130 480 213 c 0,36,37
 480 284 480 284 439.5 327.5 c 128,-1,38
 399 371 399 371 332 371 c 0,0,1
EndSplineSet
Validated: 33
EndChar

StartChar: six
Encoding: 54 54 25
Width: 628
GlyphClass: 2
Flags: W
LayerCount: 2
Fore
SplineSet
512 591 m 0,0,1
 509 591 509 591 491.5 598 c 128,-1,2
 474 605 474 605 444 605 c 0,3,4
 402 605 402 605 358 585.5 c 128,-1,5
 314 566 314 566 274 530.5 c 128,-1,6
 234 495 234 495 208.5 434.5 c 128,-1,7
 183 374 183 374 183 299 c 0,8,9
 183 294 183 294 185 254 c 1,10,11
 248 382 248 382 359 382 c 0,12,13
 431 382 431 382 483 324 c 128,-1,14
 535 266 535 266 535 186 c 0,15,16
 535 101 535 101 482.5 43 c 128,-1,17
 430 -15 430 -15 353 -15 c 0,18,19
 260 -15 260 -15 201 72 c 128,-1,20
 142 159 142 159 142 296 c 0,21,22
 142 453 142 453 230.5 550.5 c 128,-1,23
 319 648 319 648 449 648 c 0,24,25
 483 648 483 648 507 637 c 128,-1,26
 531 626 531 626 531 611 c 0,27,28
 531 603 531 603 525.5 597 c 128,-1,29
 520 591 520 591 512 591 c 0,0,1
191 198 m 1,30,31
 214 113 214 113 253 70.5 c 128,-1,32
 292 28 292 28 354 28 c 0,33,34
 412 28 412 28 452 74 c 128,-1,35
 492 120 492 120 492 186 c 0,36,37
 492 247 492 247 452.5 293 c 128,-1,38
 413 339 413 339 358 339 c 0,39,40
 331 339 331 339 306 326 c 128,-1,41
 281 313 281 313 265.5 300.5 c 128,-1,42
 250 288 250 288 231.5 262 c 128,-1,43
 213 236 213 236 207.5 228.5 c 128,-1,44
 202 221 202 221 191 198 c 1,30,31
EndSplineSet
Validated: 1
EndChar

StartChar: seven
Encoding: 55 55 26
Width: 628
GlyphClass: 2
Flags: W
LayerCount: 2
Fore
SplineSet
458 571 m 1,0,-1
 458 591 l 1,1,-1
 154 591 l 1,2,-1
 154 554 l 2,3,4
 154 524 154 524 132 524 c 0,5,6
 109 524 109 524 111 554 c 2,7,-1
 111 633 l 1,8,-1
 501 633 l 1,9,-1
 501 565 l 1,10,-1
 331 20 l 2,11,12
 324 -3 324 -3 309 -1 c 0,13,14
 301 -1 301 -1 295 5 c 128,-1,15
 289 11 289 11 289 19 c 0,16,17
 289 24 289 24 291 34 c 2,18,-1
 458 571 l 1,0,-1
EndSplineSet
Validated: 33
EndChar

StartChar: eight
Encoding: 56 56 27
Width: 628
GlyphClass: 2
Flags: W
LayerCount: 2
Fore
SplineSet
393 329 m 1,0,1
 511 276 511 276 511 169 c 0,2,3
 511 92 511 92 453 38.5 c 128,-1,4
 395 -15 395 -15 314 -15 c 128,-1,5
 233 -15 233 -15 176 38.5 c 128,-1,6
 119 92 119 92 119 169 c 0,7,8
 119 273 119 273 236 329 c 1,9,10
 130 383 130 383 129 475 c 0,11,12
 129 546 129 546 184 597 c 128,-1,13
 239 648 239 648 314.5 648 c 128,-1,14
 390 648 390 648 445 596.5 c 128,-1,15
 500 545 500 545 500 475 c 0,16,17
 499 383 499 383 393 329 c 1,0,1
315 605 m 128,-1,19
 255 605 255 605 213.5 566.5 c 128,-1,20
 172 528 172 528 172 473 c 0,21,22
 172 422 172 422 213.5 385.5 c 128,-1,23
 255 349 255 349 314 349 c 0,24,25
 372 349 372 349 414.5 385 c 128,-1,26
 457 421 457 421 457 472 c 0,27,28
 457 527 457 527 416 566 c 128,-1,18
 375 605 375 605 315 605 c 128,-1,19
314 307 m 0,29,30
 251 307 251 307 206.5 267 c 128,-1,31
 162 227 162 227 162 169 c 128,-1,32
 162 111 162 111 206.5 69.5 c 128,-1,33
 251 28 251 28 314 28 c 0,34,35
 376 28 376 28 422 69.5 c 128,-1,36
 468 111 468 111 468 168 c 0,37,38
 468 227 468 227 423.5 267 c 128,-1,39
 379 307 379 307 314 307 c 0,29,30
EndSplineSet
Validated: 1
EndChar

StartChar: nine
Encoding: 57 57 28
Width: 628
GlyphClass: 2
Flags: W
LayerCount: 2
Fore
SplineSet
166 42 m 0,0,1
 169 42 169 42 186.5 35 c 128,-1,2
 204 28 204 28 232 28 c 0,3,4
 274 28 274 28 318 47.5 c 128,-1,5
 362 67 362 67 402 102 c 128,-1,6
 442 137 442 137 468 198 c 128,-1,7
 494 259 494 259 494 334 c 0,8,9
 494 339 494 339 492 379 c 1,10,11
 429 251 429 251 317 251 c 0,12,13
 245 251 245 251 193.5 308.5 c 128,-1,14
 142 366 142 366 142 445 c 0,15,16
 142 530 142 530 195 589 c 128,-1,17
 248 648 248 648 324 648 c 0,18,19
 417 648 417 648 476 561 c 128,-1,20
 535 474 535 474 535 337 c 0,21,22
 535 180 535 180 446 82.5 c 128,-1,23
 357 -15 357 -15 228 -15 c 0,24,25
 194 -15 194 -15 169.5 -4.5 c 128,-1,26
 145 6 145 6 145 20 c 0,27,28
 145 28 145 28 151.5 35 c 128,-1,29
 158 42 158 42 166 42 c 0,0,1
485 435 m 1,30,31
 462 520 462 520 424 562.5 c 128,-1,32
 386 605 386 605 323 605 c 0,33,34
 265 605 265 605 225 559 c 128,-1,35
 185 513 185 513 185 445 c 0,36,37
 185 384 185 384 224.5 339 c 128,-1,38
 264 294 264 294 318 294 c 0,39,40
 345 294 345 294 370.5 306 c 128,-1,41
 396 318 396 318 412 331.5 c 128,-1,42
 428 345 428 345 446.5 370.5 c 128,-1,43
 465 396 465 396 469.5 404 c 128,-1,44
 474 412 474 412 485 435 c 1,30,31
EndSplineSet
Validated: 1
EndChar

StartChar: colon
Encoding: 58 58 29
Width: 628
GlyphClass: 2
Flags: W
LayerCount: 2
Fore
SplineSet
309 122 m 2,0,-1
 319 122 l 2,1,2
 350 122 350 122 371 102.5 c 128,-1,3
 392 83 392 83 392 54 c 128,-1,4
 392 25 392 25 371 5 c 128,-1,5
 350 -15 350 -15 319 -15 c 2,6,-1
 309 -15 l 2,7,8
 278 -15 278 -15 257.5 5 c 128,-1,9
 237 25 237 25 237 54 c 128,-1,10
 237 83 237 83 257.5 102.5 c 128,-1,11
 278 122 278 122 309 122 c 2,0,-1
309 437 m 2,12,-1
 319 437 l 2,13,14
 350 437 350 437 371 417 c 128,-1,15
 392 397 392 397 392 368 c 128,-1,16
 392 339 392 339 371 319 c 128,-1,17
 350 299 350 299 319 299 c 2,18,-1
 309 299 l 2,19,20
 278 299 278 299 257.5 319 c 128,-1,21
 237 339 237 339 237 368 c 128,-1,22
 237 397 237 397 257.5 417 c 128,-1,23
 278 437 278 437 309 437 c 2,12,-1
EndSplineSet
Validated: 1
EndChar

StartChar: semicolon
Encoding: 59 59 30
Width: 628
GlyphClass: 2
Flags: W
LayerCount: 2
Fore
SplineSet
221 152 m 1,0,-1
 360 152 l 1,1,-1
 209 -126 l 2,2,3
 196 -153 196 -153 176 -152 c 0,4,5
 164 -152 164 -152 154.5 -143 c 128,-1,6
 145 -134 145 -134 145 -122 c 0,7,8
 145 -119 145 -119 147 -111 c 2,9,-1
 221 152 l 1,0,-1
285 437 m 2,10,-1
 295 437 l 2,11,12
 326 437 326 437 346.5 417 c 128,-1,13
 367 397 367 397 367 368 c 128,-1,14
 367 339 367 339 346 319 c 128,-1,15
 325 299 325 299 295 299 c 2,16,-1
 285 299 l 2,17,18
 254 299 254 299 233 319 c 128,-1,19
 212 339 212 339 212 368 c 128,-1,20
 212 397 212 397 233 417 c 128,-1,21
 254 437 254 437 285 437 c 2,10,-1
EndSplineSet
Validated: 33
EndChar

StartChar: less
Encoding: 60 60 31
Width: 628
GlyphClass: 2
Flags: W
LayerCount: 2
Fore
SplineSet
548 71 m 0,0,1
 548 64 548 64 541.5 55 c 128,-1,2
 535 46 535 46 526 46 c 0,3,4
 521 46 521 46 513 51 c 2,5,-1
 76 295 l 1,6,-1
 514 538 l 2,7,8
 522 543 522 543 526 543 c 0,9,10
 533 543 533 543 540.5 535.5 c 128,-1,11
 548 528 548 528 548 520 c 0,12,13
 548 509 548 509 534 501 c 2,14,-1
 162 295 l 1,15,-1
 534 88 l 2,16,17
 548 81 548 81 548 71 c 0,0,1
EndSplineSet
Validated: 1
EndChar

StartChar: equal
Encoding: 61 61 32
Width: 628
GlyphClass: 2
Flags: W
LayerCount: 2
Fore
SplineSet
548 350 m 2,0,-1
 82 350 l 2,1,2
 53 350 53 350 53 373 c 0,3,4
 53 393 53 393 82 393 c 2,5,-1
 548 393 l 2,6,7
 577 393 577 393 575 373 c 0,8,9
 577 350 577 350 548 350 c 2,0,-1
548 200 m 2,10,-1
 82 200 l 2,11,12
 53 200 53 200 53 221 c 0,13,14
 53 241 53 241 82 243 c 2,15,-1
 548 243 l 2,16,17
 577 243 577 243 575 221 c 0,18,19
 577 200 577 200 548 200 c 2,10,-1
EndSplineSet
Validated: 33
EndChar

StartChar: greater
Encoding: 62 62 33
Width: 628
GlyphClass: 2
Flags: W
LayerCount: 2
Fore
SplineSet
82 520 m 0,0,1
 82 525 82 525 87.5 534 c 128,-1,2
 93 543 93 543 102 543 c 0,3,4
 107 543 107 543 117 538 c 2,5,-1
 554 295 l 1,6,-1
 116 51 l 2,7,8
 108 46 108 46 102 46 c 0,9,10
 94 46 94 46 88 53 c 128,-1,11
 82 60 82 60 82 71 c 0,12,13
 82 81 82 81 95 88 c 2,14,-1
 468 295 l 1,15,-1
 95 501 l 2,16,17
 82 509 82 509 82 520 c 0,0,1
EndSplineSet
Validated: 1
EndChar

StartChar: question
Encoding: 63 63 34
Width: 628
GlyphClass: 2
Flags: W
LayerCount: 2
Fore
SplineSet
140 555 m 1,0,1
 150 558 150 558 183 573 c 128,-1,2
 216 588 216 588 249 596.5 c 128,-1,3
 282 605 282 605 324 605 c 0,4,5
 408 605 408 605 459.5 560.5 c 128,-1,6
 511 516 511 516 511 443 c 0,7,8
 511 385 511 385 473.5 345 c 128,-1,9
 436 305 436 305 338 259 c 1,10,-1
 338 216 l 2,11,12
 338 187 338 187 316 187 c 0,13,14
 293 187 293 187 295 216 c 2,15,-1
 295 288 l 1,16,17
 387 327 387 327 427.5 362.5 c 128,-1,18
 468 398 468 398 468 443 c 0,19,20
 468 495 468 495 426 528.5 c 128,-1,21
 384 562 384 562 318 562 c 0,22,23
 255 562 255 562 183 526 c 1,24,-1
 183 483 l 2,25,26
 183 454 183 454 163 455 c 0,27,28
 140 455 140 455 140 483 c 2,29,-1
 140 555 l 1,0,1
301 89 m 2,30,-1
 330 89 l 2,31,32
 358 89 358 89 373.5 74 c 128,-1,33
 389 59 389 59 389 36 c 128,-1,34
 389 13 389 13 372 -1 c 128,-1,35
 355 -15 355 -15 330 -15 c 2,36,-1
 301 -15 l 2,37,38
 273 -15 273 -15 257.5 -1 c 128,-1,39
 242 13 242 13 242 36 c 128,-1,40
 242 59 242 59 257.5 74 c 128,-1,41
 273 89 273 89 301 89 c 2,30,-1
EndSplineSet
Validated: 33
EndChar

StartChar: at
Encoding: 64 64 35
Width: 628
GlyphClass: 2
Flags: W
LayerCount: 2
Fore
SplineSet
313 -65 m 0,0,1
 222 -65 222 -65 166.5 13 c 128,-1,2
 111 91 111 91 111 208 c 2,3,-1
 111 379 l 2,4,5
 111 499 111 499 168 576.5 c 128,-1,6
 225 654 225 654 314 654 c 0,7,8
 386 654 386 654 433.5 606 c 128,-1,9
 481 558 481 558 481 485 c 2,10,-1
 481 195 l 1,11,12
 500 192 500 192 501 174 c 0,13,14
 501 151 501 151 473 152 c 2,15,-1
 438 152 l 1,16,-1
 438 158 l 1,17,18
 406 155 406 155 396 155 c 0,19,20
 336 155 336 155 295 192 c 128,-1,21
 254 229 254 229 254 286 c 0,22,23
 254 349 254 349 304.5 392.5 c 128,-1,24
 355 436 355 436 438 436 c 1,25,-1
 438 485 l 2,26,27
 438 539 438 539 403.5 575 c 128,-1,28
 369 611 369 611 315 611 c 0,29,30
 243 611 243 611 198.5 545 c 128,-1,31
 154 479 154 479 154 376 c 2,32,-1
 154 208 l 2,33,34
 154 111 154 111 199 44 c 128,-1,35
 244 -23 244 -23 319 -23 c 0,36,37
 363 -23 363 -23 391.5 -11.5 c 128,-1,38
 420 0 420 0 431.5 10 c 128,-1,39
 443 20 443 20 450 20 c 0,40,41
 458 20 458 20 464.5 14.5 c 128,-1,42
 471 9 471 9 471 1 c 0,43,44
 471 -24 471 -24 420.5 -44.5 c 128,-1,45
 370 -65 370 -65 313 -65 c 0,0,1
438 202 m 1,46,-1
 438 394 l 1,47,48
 377 394 377 394 337 364 c 128,-1,49
 297 334 297 334 297 287 c 0,50,51
 297 247 297 247 325.5 222.5 c 128,-1,52
 354 198 354 198 399 198 c 0,53,54
 422 198 422 198 438 202 c 1,46,-1
EndSplineSet
Validated: 33
EndChar

StartChar: A
Encoding: 65 65 36
Width: 628
GlyphClass: 2
Flags: W
AnchorPoint: "Anchor-2" 279 591 basechar 0
LayerCount: 2
Fore
SplineSet
449 198 m 1,0,-1
 170 198 l 1,1,-1
 114 43 l 1,2,-1
 196 43 l 2,3,4
 225 43 225 43 224 23 c 0,5,6
 224 0 224 0 196 0 c 2,7,-1
 38 0 l 2,8,9
 9 0 9 0 9 23 c 0,10,11
 9 43 9 43 38 43 c 2,12,-1
 71 43 l 1,13,-1
 258 548 l 1,14,-1
 132 548 l 2,15,16
 103 548 103 548 103 569 c 0,17,18
 103 589 103 589 132 591 c 2,19,-1
 346 591 l 1,20,-1
 553 43 l 1,21,-1
 592 43 l 2,22,23
 621 43 621 43 620 23 c 0,24,25
 620 0 620 0 592 0 c 2,26,-1
 428 0 l 2,27,28
 399 0 399 0 399 23 c 0,29,30
 399 43 399 43 428 43 c 2,31,-1
 508 43 l 1,32,-1
 449 198 l 1,0,-1
433 240 m 1,33,-1
 315 548 l 1,34,-1
 300 548 l 1,35,-1
 186 240 l 1,36,-1
 433 240 l 1,33,-1
EndSplineSet
Validated: 33
EndChar

StartChar: B
Encoding: 66 66 37
Width: 628
GlyphClass: 2
Flags: W
AnchorPoint: "Anchor-2" 325 591 basechar 0
LayerCount: 2
Fore
SplineSet
130 43 m 1,0,-1
 130 548 l 1,1,-1
 74 548 l 2,2,3
 45 548 45 548 45 569 c 0,4,5
 45 589 45 589 74 591 c 2,6,-1
 344 591 l 2,7,8
 421 591 421 591 472 547.5 c 128,-1,9
 523 504 523 504 523 438 c 0,10,11
 523 360 523 360 434 312 c 1,12,13
 567 265 567 265 567 161 c 0,14,15
 567 94 567 94 516.5 47 c 128,-1,16
 466 0 466 0 394 0 c 2,17,-1
 74 0 l 2,18,19
 45 0 45 0 45 23 c 0,20,21
 45 43 45 43 74 43 c 2,22,-1
 130 43 l 1,0,-1
173 329 m 1,23,-1
 327 329 l 2,24,25
 395 329 395 329 437.5 360 c 128,-1,26
 480 391 480 391 480 439 c 0,27,28
 480 485 480 485 441 516.5 c 128,-1,29
 402 548 402 548 345 548 c 2,30,-1
 173 548 l 1,31,-1
 173 329 l 1,23,-1
524 161 m 0,32,33
 524 184 524 184 515.5 203 c 128,-1,34
 507 222 507 222 487 241.5 c 128,-1,35
 467 261 467 261 426.5 273.5 c 128,-1,36
 386 286 386 286 330 286 c 2,37,-1
 173 286 l 1,38,-1
 173 43 l 1,39,-1
 391 43 l 2,40,41
 446 43 446 43 485 77.5 c 128,-1,42
 524 112 524 112 524 161 c 0,32,33
EndSplineSet
Validated: 1
EndChar

StartChar: C
Encoding: 67 67 38
Width: 628
GlyphClass: 2
Flags: W
AnchorPoint: "Anchor-2" 319 602 basechar 0
AnchorPoint: "Anchor-1" 342 -4 basechar 0
LayerCount: 2
Fore
SplineSet
67 341 m 2,0,1
 67 360 67 360 72.5 389.5 c 128,-1,2
 78 419 78 419 96 457.5 c 128,-1,3
 114 496 114 496 140 527.5 c 128,-1,4
 166 559 166 559 213 581.5 c 128,-1,5
 260 604 260 604 319 604 c 0,6,7
 424 604 424 604 501 531 c 1,8,-1
 501 562 l 2,9,10
 501 591 501 591 523 591 c 0,11,12
 543 591 543 591 544 562 c 2,13,-1
 544 444 l 2,14,15
 544 415 544 415 522 417 c 0,16,17
 504 417 504 417 501 441 c 0,18,19
 498 489 498 489 444 525 c 128,-1,20
 390 561 390 561 319 561 c 0,21,22
 232 561 232 561 170.5 494.5 c 128,-1,23
 109 428 109 428 109 335 c 2,24,-1
 109 260 l 2,25,26
 109 166 109 166 177.5 96.5 c 128,-1,27
 246 27 246 27 338 27 c 0,28,29
 392 27 392 27 435 49 c 128,-1,30
 478 71 478 71 520 121 c 0,31,32
 529 131 529 131 539 131 c 0,33,34
 559 131 559 131 560 112 c 0,35,36
 560 103 560 103 543 82 c 128,-1,37
 526 61 526 61 499 38.5 c 128,-1,38
 472 16 472 16 428 0 c 128,-1,39
 384 -16 384 -16 338 -16 c 0,40,41
 232 -16 232 -16 149.5 65.5 c 128,-1,42
 67 147 67 147 67 254 c 2,43,-1
 67 341 l 2,0,1
EndSplineSet
Validated: 33
EndChar

StartChar: D
Encoding: 68 68 39
Width: 628
GlyphClass: 2
Flags: W
AnchorPoint: "Anchor-2" 283 591 basechar 0
LayerCount: 2
Fore
SplineSet
109 43 m 1,0,-1
 109 548 l 1,1,-1
 74 548 l 2,2,3
 45 548 45 548 45 569 c 0,4,5
 45 589 45 589 74 591 c 2,6,-1
 304 591 l 2,7,8
 405 591 405 591 475 513.5 c 128,-1,9
 545 436 545 436 545 325 c 2,10,-1
 545 266 l 2,11,12
 545 153 545 153 475.5 76.5 c 128,-1,13
 406 0 406 0 304 0 c 2,14,-1
 74 0 l 2,15,16
 45 0 45 0 45 23 c 0,17,18
 45 43 45 43 74 43 c 2,19,-1
 109 43 l 1,0,-1
502 334 m 2,20,21
 502 354 502 354 492.5 386 c 128,-1,22
 483 418 483 418 462.5 456 c 128,-1,23
 442 494 442 494 399.5 521 c 128,-1,24
 357 548 357 548 302 548 c 2,25,-1
 152 548 l 1,26,-1
 152 43 l 1,27,-1
 309 43 l 2,28,29
 385 43 385 43 443.5 108 c 128,-1,30
 502 173 502 173 502 257 c 2,31,-1
 502 334 l 2,20,21
EndSplineSet
Validated: 1
EndChar

StartChar: E
Encoding: 69 69 40
Width: 628
GlyphClass: 2
Flags: W
AnchorPoint: "Anchor-2" 325 591 basechar 0
LayerCount: 2
Fore
SplineSet
173 286 m 1,0,-1
 173 43 l 1,1,-1
 502 43 l 1,2,-1
 502 168 l 2,3,4
 502 197 502 197 524 196 c 0,5,6
 544 196 544 196 545 168 c 2,7,-1
 545 0 l 1,8,-1
 74 0 l 2,9,10
 45 0 45 0 45 23 c 0,11,12
 45 43 45 43 74 43 c 2,13,-1
 130 43 l 1,14,-1
 130 548 l 1,15,-1
 74 548 l 2,16,17
 45 548 45 548 45 569 c 0,18,19
 45 589 45 589 74 591 c 2,20,-1
 523 591 l 1,21,-1
 523 444 l 2,22,23
 523 415 523 415 501 417 c 0,24,25
 481 417 481 417 480 444 c 2,26,-1
 480 548 l 1,27,-1
 173 548 l 1,28,-1
 173 329 l 1,29,-1
 325 329 l 1,30,-1
 325 376 l 2,31,32
 325 405 325 405 347 403 c 0,33,34
 367 403 367 403 368 376 c 2,35,-1
 368 238 l 2,36,37
 368 209 368 209 347 210 c 0,38,39
 324 210 324 210 325 238 c 2,40,-1
 325 286 l 1,41,-1
 173 286 l 1,0,-1
EndSplineSet
Validated: 33
EndChar

StartChar: F
Encoding: 70 70 41
Width: 628
GlyphClass: 2
Flags: W
AnchorPoint: "Anchor-2" 325 591 basechar 0
LayerCount: 2
Fore
SplineSet
173 286 m 1,0,-1
 173 43 l 1,1,-1
 317 43 l 2,2,3
 347 43 347 43 347 23 c 0,4,5
 347 0 347 0 317 0 c 2,6,-1
 74 0 l 2,7,8
 45 0 45 0 45 23 c 0,9,10
 45 43 45 43 74 43 c 2,11,-1
 130 43 l 1,12,-1
 130 548 l 1,13,-1
 74 548 l 2,14,15
 45 548 45 548 45 569 c 0,16,17
 45 589 45 589 74 591 c 2,18,-1
 545 591 l 1,19,-1
 545 444 l 2,20,21
 545 415 545 415 523 417 c 0,22,23
 503 417 503 417 502 444 c 2,24,-1
 502 548 l 1,25,-1
 173 548 l 1,26,-1
 173 329 l 1,27,-1
 325 329 l 1,28,-1
 325 376 l 2,29,30
 325 405 325 405 346 403 c 0,31,32
 369 403 369 403 368 376 c 2,33,-1
 368 238 l 2,34,35
 368 209 368 209 346 210 c 0,36,37
 326 210 326 210 325 238 c 2,38,-1
 325 286 l 1,39,-1
 173 286 l 1,0,-1
EndSplineSet
Validated: 33
EndChar

StartChar: G
Encoding: 71 71 42
Width: 628
GlyphClass: 2
Flags: W
AnchorPoint: "Anchor-2" 334 591 basechar 0
LayerCount: 2
Fore
SplineSet
331 561 m 0,0,1
 266 561 266 561 218.5 533 c 128,-1,2
 171 505 171 505 149.5 464 c 128,-1,3
 128 423 128 423 118.5 389 c 128,-1,4
 109 355 109 355 109 333 c 2,5,-1
 109 256 l 2,6,7
 109 150 109 150 174 88.5 c 128,-1,8
 239 27 239 27 352 27 c 0,9,10
 426 27 426 27 502 61 c 1,11,-1
 502 219 l 1,12,-1
 356 219 l 2,13,14
 327 219 327 219 329 242 c 0,15,16
 329 262 329 262 356 262 c 2,17,-1
 560 262 l 2,18,19
 590 262 590 262 589 242 c 0,20,21
 589 219 589 219 560 219 c 2,22,-1
 545 219 l 1,23,-1
 545 38 l 1,24,25
 451 -16 451 -16 349 -16 c 0,26,27
 220 -16 220 -16 143.5 58 c 128,-1,28
 67 132 67 132 67 256 c 2,29,-1
 67 334 l 2,30,31
 67 445 67 445 140.5 524.5 c 128,-1,32
 214 604 214 604 329 604 c 0,33,34
 432 604 432 604 502 548 c 1,35,-1
 502 562 l 2,36,37
 502 591 502 591 524 591 c 0,38,39
 544 591 544 591 545 562 c 2,40,-1
 545 467 l 2,41,42
 545 438 545 438 524 438 c 0,43,44
 505 438 505 438 504 465 c 0,45,46
 501 505 501 505 451 533 c 128,-1,47
 401 561 401 561 331 561 c 0,0,1
EndSplineSet
Validated: 33
EndChar

StartChar: H
Encoding: 72 72 43
Width: 628
GlyphClass: 2
Flags: W
AnchorPoint: "Anchor-2" 318 591 basechar 0
LayerCount: 2
Fore
SplineSet
458 286 m 1,0,-1
 175 286 l 1,1,-1
 175 43 l 1,2,-1
 231 43 l 2,3,4
 260 43 260 43 260 23 c 0,5,6
 260 0 260 0 231 0 c 2,7,-1
 85 0 l 2,8,9
 55 0 55 0 55 23 c 0,10,11
 55 43 55 43 85 43 c 2,12,-1
 132 43 l 1,13,-1
 132 548 l 1,14,-1
 105 548 l 2,15,16
 76 548 76 548 78 569 c 0,17,18
 78 589 78 589 105 591 c 2,19,-1
 231 591 l 2,20,21
 260 591 260 591 260 569 c 0,22,23
 260 546 260 546 231 548 c 2,24,-1
 175 548 l 1,25,-1
 175 329 l 1,26,-1
 458 329 l 1,27,-1
 458 548 l 1,28,-1
 401 548 l 2,29,30
 372 548 372 548 374 569 c 0,31,32
 374 589 374 589 401 591 c 2,33,-1
 527 591 l 2,34,35
 556 591 556 591 556 569 c 0,36,37
 556 546 556 546 527 548 c 2,38,-1
 501 548 l 1,39,-1
 501 43 l 1,40,-1
 550 43 l 2,41,42
 579 43 579 43 578 23 c 0,43,44
 578 0 578 0 550 0 c 2,45,-1
 401 0 l 2,46,47
 372 0 372 0 374 23 c 0,48,49
 374 43 374 43 401 43 c 2,50,-1
 458 43 l 1,51,-1
 458 286 l 1,0,-1
EndSplineSet
Validated: 33
EndChar

StartChar: I
Encoding: 73 73 44
Width: 628
GlyphClass: 2
Flags: W
AnchorPoint: "Anchor-2" 314 592 basechar 0
LayerCount: 2
Fore
SplineSet
336 548 m 1,0,-1
 336 43 l 1,1,-1
 481 43 l 2,2,3
 511 43 511 43 511 23 c 0,4,5
 511 0 511 0 481 0 c 2,6,-1
 146 0 l 2,7,8
 117 0 117 0 119 23 c 0,9,10
 119 43 119 43 146 43 c 2,11,-1
 293 43 l 1,12,-1
 293 548 l 1,13,-1
 146 548 l 2,14,15
 117 548 117 548 119 569 c 0,16,17
 119 589 119 589 146 591 c 2,18,-1
 481 591 l 2,19,20
 511 591 511 591 511 569 c 0,21,22
 511 546 511 546 481 548 c 2,23,-1
 336 548 l 1,0,-1
EndSplineSet
Validated: 33
EndChar

StartChar: J
Encoding: 74 74 45
Width: 628
GlyphClass: 2
Flags: W
AnchorPoint: "Anchor-2" 367 591 basechar 0
LayerCount: 2
Fore
SplineSet
482 548 m 1,0,-1
 482 173 l 2,1,2
 482 95 482 95 424 39.5 c 128,-1,3
 366 -16 366 -16 286 -16 c 0,4,5
 236 -16 236 -16 190 5.5 c 128,-1,6
 144 27 144 27 88 78 c 1,7,-1
 88 233 l 2,8,9
 88 262 88 262 111 262 c 0,10,11
 131 262 131 262 131 233 c 2,12,-1
 131 97 l 1,13,14
 210 25 210 25 287 27 c 0,15,16
 350 27 350 27 394.5 70 c 128,-1,17
 439 113 439 113 439 173 c 2,18,-1
 439 548 l 1,19,-1
 272 548 l 2,20,21
 243 548 243 548 245 569 c 0,22,23
 245 589 245 589 272 591 c 2,24,-1
 583 591 l 2,25,26
 612 591 612 591 611 569 c 0,27,28
 611 546 611 546 583 548 c 2,29,-1
 482 548 l 1,0,-1
EndSplineSet
Validated: 33
EndChar

StartChar: K
Encoding: 75 75 46
Width: 628
GlyphClass: 2
Flags: W
AnchorPoint: "Anchor-2" 325 591 basechar 0
LayerCount: 2
Fore
SplineSet
173 231 m 1,0,-1
 173 43 l 1,1,-1
 252 43 l 2,2,3
 281 43 281 43 280 23 c 0,4,5
 280 0 280 0 252 0 c 2,6,-1
 74 0 l 2,7,8
 45 0 45 0 45 23 c 0,9,10
 45 43 45 43 74 43 c 2,11,-1
 130 43 l 1,12,-1
 130 548 l 1,13,-1
 74 548 l 2,14,15
 45 548 45 548 45 569 c 0,16,17
 45 589 45 589 74 591 c 2,18,-1
 252 591 l 2,19,20
 281 591 281 591 280 569 c 0,21,22
 280 546 280 546 252 548 c 2,23,-1
 173 548 l 1,24,-1
 173 287 l 1,25,-1
 467 548 l 1,26,-1
 420 548 l 2,27,28
 390 548 390 548 390 569 c 0,29,30
 390 589 390 589 420 591 c 2,31,-1
 543 591 l 2,32,33
 573 591 573 591 572 569 c 0,34,35
 572 546 572 546 543 548 c 2,36,-1
 526 548 l 1,37,-1
 294 340 l 1,38,39
 371 308 371 308 412.5 251 c 128,-1,40
 454 194 454 194 513 43 c 1,41,-1
 571 43 l 2,42,43
 600 43 600 43 600 23 c 0,44,45
 600 0 600 0 571 0 c 2,46,-1
 480 0 l 1,47,48
 423 160 423 160 378 222.5 c 128,-1,49
 333 285 333 285 258 308 c 1,50,-1
 173 231 l 1,0,-1
EndSplineSet
Validated: 33
EndChar

StartChar: L
Encoding: 76 76 47
Width: 628
GlyphClass: 2
Flags: W
AnchorPoint: "Anchor-2" 325 591 basechar 0
LayerCount: 2
Fore
SplineSet
238 548 m 1,0,-1
 238 43 l 1,1,-1
 524 43 l 1,2,-1
 524 211 l 2,3,4
 524 240 524 240 547 239 c 0,5,6
 567 239 567 239 567 211 c 2,7,-1
 567 0 l 1,8,-1
 94 0 l 2,9,10
 65 0 65 0 67 23 c 0,11,12
 67 43 67 43 94 43 c 2,13,-1
 195 43 l 1,14,-1
 195 548 l 1,15,-1
 94 548 l 2,16,17
 65 548 65 548 67 569 c 0,18,19
 67 589 67 589 94 591 c 2,20,-1
 339 591 l 2,21,22
 368 591 368 591 367 569 c 0,23,24
 367 546 367 546 339 548 c 2,25,-1
 238 548 l 1,0,-1
EndSplineSet
Validated: 33
EndChar

StartChar: M
Encoding: 77 77 48
Width: 628
GlyphClass: 2
Flags: W
AnchorPoint: "Anchor-2" 325 591 basechar 0
LayerCount: 2
Fore
SplineSet
342 177 m 1,0,-1
 294 177 l 1,1,-1
 127 548 l 1,2,-1
 119 548 l 1,3,-1
 119 43 l 1,4,-1
 196 43 l 2,5,6
 226 43 226 43 225 23 c 0,7,8
 225 0 225 0 196 0 c 2,9,-1
 40 0 l 2,10,11
 11 0 11 0 11 23 c 0,12,13
 11 43 11 43 40 43 c 2,14,-1
 76 43 l 1,15,-1
 76 548 l 1,16,-1
 49 548 l 2,17,18
 20 548 20 548 20 569 c 0,19,20
 20 589 20 589 49 591 c 2,21,-1
 154 591 l 1,22,-1
 317 225 l 1,23,-1
 479 591 l 1,24,-1
 584 591 l 2,25,26
 613 591 613 591 612 569 c 0,27,28
 612 546 612 546 584 548 c 2,29,-1
 558 548 l 1,30,-1
 558 43 l 1,31,-1
 594 43 l 2,32,33
 623 43 623 43 622 23 c 0,34,35
 622 0 622 0 594 0 c 2,36,-1
 437 0 l 2,37,38
 408 0 408 0 409 23 c 0,39,40
 409 43 409 43 437 43 c 2,41,-1
 515 43 l 1,42,-1
 515 548 l 1,43,-1
 507 548 l 1,44,-1
 342 177 l 1,0,-1
EndSplineSet
Validated: 33
EndChar

StartChar: N
Encoding: 78 78 49
Width: 628
GlyphClass: 2
Flags: W
AnchorPoint: "Anchor-2" 325 591 basechar 0
LayerCount: 2
Fore
SplineSet
525 0 m 1,0,-1
 471 0 l 1,1,-1
 151 528 l 1,2,-1
 151 43 l 1,3,-1
 229 43 l 2,4,5
 258 43 258 43 258 23 c 0,6,7
 258 0 258 0 229 0 c 2,8,-1
 73 0 l 2,9,10
 44 0 44 0 44 23 c 0,11,12
 44 43 44 43 73 43 c 2,13,-1
 108 43 l 1,14,-1
 108 548 l 1,15,-1
 51 548 l 2,16,17
 22 548 22 548 24 569 c 0,18,19
 24 589 24 589 51 591 c 2,20,-1
 163 591 l 1,21,-1
 482 61 l 1,22,-1
 482 548 l 1,23,-1
 404 548 l 2,24,25
 374 548 374 548 376 569 c 0,26,27
 376 589 376 589 404 591 c 2,28,-1
 561 591 l 2,29,30
 590 591 590 591 589 569 c 0,31,32
 589 546 589 546 561 548 c 2,33,-1
 525 548 l 1,34,-1
 525 0 l 1,0,-1
EndSplineSet
Validated: 33
EndChar

StartChar: O
Encoding: 79 79 50
Width: 628
GlyphClass: 2
Flags: W
AnchorPoint: "Anchor-2" 316 592 basechar 0
LayerCount: 2
Fore
SplineSet
314 604 m 0,0,1
 426 604 426 604 500.5 513.5 c 128,-1,2
 575 423 575 423 575 290 c 0,3,4
 575 163 575 163 499 73.5 c 128,-1,5
 423 -16 423 -16 314 -16 c 0,6,7
 205 -16 205 -16 129 74 c 128,-1,8
 53 164 53 164 53 294 c 128,-1,9
 53 424 53 424 129 514 c 128,-1,10
 205 604 205 604 314 604 c 0,0,1
314 561 m 0,11,12
 224 561 224 561 160 482 c 128,-1,13
 96 403 96 403 96 293 c 128,-1,14
 96 183 96 183 160 105 c 128,-1,15
 224 27 224 27 314 27 c 0,16,17
 403 27 403 27 467.5 104.5 c 128,-1,18
 532 182 532 182 532 291 c 0,19,20
 532 405 532 405 468.5 483 c 128,-1,21
 405 561 405 561 314 561 c 0,11,12
EndSplineSet
Validated: 1
EndChar

StartChar: P
Encoding: 80 80 51
Width: 628
GlyphClass: 2
Flags: W
AnchorPoint: "Anchor-2" 294 591 basechar 0
LayerCount: 2
Fore
SplineSet
173 243 m 1,0,-1
 173 43 l 1,1,-1
 317 43 l 2,2,3
 347 43 347 43 347 23 c 0,4,5
 347 0 347 0 317 0 c 2,6,-1
 74 0 l 2,7,8
 45 0 45 0 45 23 c 0,9,10
 45 43 45 43 74 43 c 2,11,-1
 130 43 l 1,12,-1
 130 548 l 1,13,-1
 74 548 l 2,14,15
 45 548 45 548 45 569 c 0,16,17
 45 589 45 589 74 591 c 2,18,-1
 325 591 l 2,19,20
 409 591 409 591 466 540.5 c 128,-1,21
 523 490 523 490 523 417 c 128,-1,22
 523 344 523 344 461 293.5 c 128,-1,23
 399 243 399 243 310 243 c 2,24,-1
 173 243 l 1,0,-1
173 286 m 1,25,-1
 313 286 l 2,26,27
 382 286 382 286 431 324 c 128,-1,28
 480 362 480 362 480 418 c 0,29,30
 480 471 480 471 435.5 509.5 c 128,-1,31
 391 548 391 548 330 548 c 2,32,-1
 173 548 l 1,33,-1
 173 286 l 1,25,-1
EndSplineSet
Validated: 1
EndChar

StartChar: Q
Encoding: 81 81 52
Width: 628
GlyphClass: 2
Flags: W
AnchorPoint: "Anchor-2" 314 591 basechar 0
LayerCount: 2
Fore
SplineSet
334 -93 m 0,0,1
 284 -93 284 -93 233.5 -106.5 c 128,-1,2
 183 -120 183 -120 176 -120 c 0,3,4
 168 -120 168 -120 162 -113 c 128,-1,5
 156 -106 156 -106 156 -97 c 0,6,7
 156 -87 156 -87 167 -79 c 2,8,-1
 261 -10 l 1,9,10
 172 9 172 9 112.5 95.5 c 128,-1,11
 53 182 53 182 53 294 c 0,12,13
 53 424 53 424 129.5 514 c 128,-1,14
 206 604 206 604 315 604 c 128,-1,15
 424 604 424 604 499.5 514 c 128,-1,16
 575 424 575 424 575 294 c 0,17,18
 575 165 575 165 502 76 c 128,-1,19
 429 -13 429 -13 319 -16 c 1,20,-1
 263 -58 l 1,21,22
 305 -50 305 -50 334 -50 c 0,23,24
 378 -50 378 -50 415 -64 c 128,-1,25
 452 -78 452 -78 467 -78 c 0,26,27
 493 -78 493 -78 520.5 -61.5 c 128,-1,28
 548 -45 548 -45 552 -45 c 0,29,30
 560 -45 560 -45 566 -51 c 128,-1,31
 572 -57 572 -57 572 -68 c 0,32,33
 572 -83 572 -83 534 -102 c 128,-1,34
 496 -121 496 -121 464 -121 c 0,35,36
 441 -121 441 -121 405.5 -107 c 128,-1,37
 370 -93 370 -93 334 -93 c 0,0,1
314 561 m 0,38,39
 224 561 224 561 160 482 c 128,-1,40
 96 403 96 403 96 293 c 128,-1,41
 96 183 96 183 160 105 c 128,-1,42
 224 27 224 27 314 27 c 0,43,44
 403 27 403 27 467.5 104.5 c 128,-1,45
 532 182 532 182 532 291 c 0,46,47
 532 405 532 405 468.5 483 c 128,-1,48
 405 561 405 561 314 561 c 0,38,39
EndSplineSet
Validated: 1
EndChar

StartChar: R
Encoding: 82 82 53
Width: 628
GlyphClass: 2
Flags: W
AnchorPoint: "Anchor-2" 325 591 basechar 0
LayerCount: 2
Fore
SplineSet
173 263 m 1,0,-1
 173 43 l 1,1,-1
 252 43 l 2,2,3
 281 43 281 43 280 23 c 0,4,5
 280 0 280 0 252 0 c 2,6,-1
 74 0 l 2,7,8
 45 0 45 0 45 23 c 0,9,10
 45 43 45 43 74 43 c 2,11,-1
 130 43 l 1,12,-1
 130 548 l 1,13,-1
 74 548 l 2,14,15
 45 548 45 548 45 569 c 0,16,17
 45 589 45 589 74 591 c 2,18,-1
 334 591 l 2,19,20
 411 591 411 591 466.5 542 c 128,-1,21
 522 493 522 493 522 427 c 0,22,23
 522 326 522 326 377 274 c 1,24,25
 426 240 426 240 459.5 198 c 128,-1,26
 493 156 493 156 557 43 c 1,27,-1
 589 43 l 2,28,29
 618 43 618 43 617 23 c 0,30,31
 617 0 617 0 589 0 c 2,32,-1
 529 0 l 1,33,34
 459 128 459 128 415 182 c 128,-1,35
 371 236 371 236 311 263 c 1,36,-1
 173 263 l 1,0,-1
173 306 m 1,37,-1
 293 306 l 2,38,39
 371 306 371 306 425 342 c 128,-1,40
 479 378 479 378 479 428 c 0,41,42
 479 475 479 475 434.5 511.5 c 128,-1,43
 390 548 390 548 334 548 c 2,44,-1
 173 548 l 1,45,-1
 173 306 l 1,37,-1
EndSplineSet
Validated: 33
EndChar

StartChar: S
Encoding: 83 83 54
Width: 628
GlyphClass: 2
Flags: W
AnchorPoint: "Anchor-2" 325 591 basechar 0
LayerCount: 2
Fore
SplineSet
486 161 m 0,0,1
 486 205 486 205 459 232 c 128,-1,2
 432 259 432 259 391.5 267.5 c 128,-1,3
 351 276 351 276 303.5 287.5 c 128,-1,4
 256 299 256 299 215.5 311 c 128,-1,5
 175 323 175 323 148 356 c 128,-1,6
 121 389 121 389 121 441 c 0,7,8
 121 511 121 511 175.5 557.5 c 128,-1,9
 230 604 230 604 313 604 c 0,10,11
 403 604 403 604 467 542 c 1,12,-1
 467 562 l 2,13,14
 467 591 467 591 488 591 c 0,15,16
 508 591 508 591 510 562 c 2,17,-1
 510 454 l 2,18,19
 510 425 510 425 488 426 c 256,20,21
 468 426 468 426 467 451 c 0,22,23
 464 498 464 498 421 529.5 c 128,-1,24
 378 561 378 561 316 561 c 0,25,26
 251 561 251 561 209 526.5 c 128,-1,27
 167 492 167 492 167 440 c 0,28,29
 167 399 167 399 194 374 c 128,-1,30
 221 349 221 349 261.5 340.5 c 128,-1,31
 302 332 302 332 349.5 319.5 c 128,-1,32
 397 307 397 307 437.5 294.5 c 128,-1,33
 478 282 478 282 505 247 c 128,-1,34
 532 212 532 212 532 159 c 0,35,36
 532 82 532 82 471.5 33 c 128,-1,37
 411 -16 411 -16 316 -16 c 0,38,39
 204 -16 204 -16 139 58 c 1,40,-1
 139 29 l 2,41,42
 139 0 139 0 118 0 c 0,43,44
 98 0 98 0 96 29 c 2,45,-1
 96 145 l 2,46,47
 96 174 96 174 119 174 c 0,48,49
 138 174 138 174 139 148 c 0,50,51
 141 97 141 97 193 62 c 128,-1,52
 245 27 245 27 315 27 c 0,53,54
 389 27 389 27 437.5 65.5 c 128,-1,55
 486 104 486 104 486 161 c 0,0,1
EndSplineSet
Validated: 33
EndChar

StartChar: T
Encoding: 84 84 55
Width: 628
GlyphClass: 2
Flags: W
AnchorPoint: "Anchor-2" 316 591 basechar 0
LayerCount: 2
Fore
SplineSet
337 43 m 1,0,-1
 446 43 l 2,1,2
 475 43 475 43 475 23 c 0,3,4
 475 0 475 0 446 0 c 2,5,-1
 183 0 l 2,6,7
 154 0 154 0 156 23 c 0,8,9
 156 43 156 43 183 43 c 2,10,-1
 294 43 l 1,11,-1
 294 548 l 1,12,-1
 119 548 l 1,13,-1
 119 471 l 2,14,15
 119 442 119 442 96 442 c 0,16,17
 76 442 76 442 76 471 c 2,18,-1
 76 591 l 1,19,-1
 554 591 l 1,20,-1
 554 471 l 2,21,22
 554 442 554 442 532 442 c 0,23,24
 523 442 523 442 517 450 c 128,-1,25
 511 458 511 458 511 471 c 2,26,-1
 511 548 l 1,27,-1
 337 548 l 1,28,-1
 337 43 l 1,0,-1
EndSplineSet
Validated: 33
EndChar

StartChar: U
Encoding: 85 85 56
Width: 628
GlyphClass: 2
Flags: W
AnchorPoint: "Anchor-2" 314 592 basechar 0
LayerCount: 2
Fore
SplineSet
523 548 m 1,0,-1
 523 194 l 2,1,2
 523 105 523 105 462.5 44.5 c 128,-1,3
 402 -16 402 -16 314 -16 c 0,4,5
 225 -16 225 -16 165 43.5 c 128,-1,6
 105 103 105 103 105 194 c 2,7,-1
 105 548 l 1,8,-1
 71 548 l 2,9,10
 42 548 42 548 42 569 c 0,11,12
 42 589 42 589 71 591 c 2,13,-1
 226 591 l 2,14,15
 255 591 255 591 255 569 c 0,16,17
 255 546 255 546 226 548 c 2,18,-1
 148 548 l 1,19,-1
 148 194 l 2,20,21
 148 122 148 122 196.5 74.5 c 128,-1,22
 245 27 245 27 314 27 c 0,23,24
 384 27 384 27 432 75.5 c 128,-1,25
 480 124 480 124 480 194 c 2,26,-1
 480 548 l 1,27,-1
 402 548 l 2,28,29
 373 548 373 548 375 569 c 0,30,31
 375 589 375 589 402 591 c 2,32,-1
 559 591 l 2,33,34
 588 591 588 591 587 569 c 0,35,36
 587 546 587 546 559 548 c 2,37,-1
 523 548 l 1,0,-1
EndSplineSet
Validated: 33
EndChar

StartChar: V
Encoding: 86 86 57
Width: 628
GlyphClass: 2
Flags: W
AnchorPoint: "Anchor-2" 317 591 basechar 0
LayerCount: 2
Fore
SplineSet
280 0 m 1,0,-1
 71 548 l 1,1,-1
 38 548 l 2,2,3
 9 548 9 548 9 569 c 0,4,5
 9 589 9 589 38 591 c 2,6,-1
 196 591 l 2,7,8
 225 591 225 591 224 569 c 0,9,10
 224 546 224 546 196 548 c 2,11,-1
 116 548 l 1,12,-1
 310 43 l 1,13,-1
 313 43 l 1,14,-1
 516 548 l 1,15,-1
 434 548 l 2,16,17
 405 548 405 548 406 569 c 0,18,19
 406 589 406 589 434 591 c 2,20,-1
 592 591 l 2,21,22
 621 591 621 591 620 569 c 0,23,24
 620 546 620 546 592 548 c 2,25,-1
 559 548 l 1,26,-1
 340 0 l 1,27,-1
 280 0 l 1,0,-1
EndSplineSet
Validated: 33
EndChar

StartChar: W
Encoding: 87 87 58
Width: 628
GlyphClass: 2
Flags: W
AnchorPoint: "Anchor-2" 316 591 basechar 0
LayerCount: 2
Fore
SplineSet
128 0 m 1,0,-1
 65 548 l 1,1,-1
 49 548 l 2,2,3
 20 548 20 548 20 569 c 0,4,5
 20 589 20 589 49 591 c 2,6,-1
 206 591 l 2,7,8
 236 591 236 591 234 569 c 0,9,10
 234 546 234 546 206 548 c 2,11,-1
 108 548 l 1,12,-1
 167 48 l 1,13,-1
 285 460 l 1,14,-1
 349 460 l 1,15,-1
 464 48 l 1,16,-1
 523 548 l 1,17,-1
 423 548 l 2,18,19
 394 548 394 548 394 569 c 0,20,21
 394 589 394 589 423 591 c 2,22,-1
 580 591 l 2,23,24
 609 591 609 591 608 569 c 0,25,26
 608 546 608 546 580 548 c 2,27,-1
 564 548 l 1,28,-1
 499 0 l 1,29,-1
 432 0 l 1,30,-1
 314 420 l 1,31,-1
 194 0 l 1,32,-1
 128 0 l 1,0,-1
EndSplineSet
Validated: 33
EndChar

StartChar: X
Encoding: 88 88 59
Width: 628
GlyphClass: 2
Flags: W
AnchorPoint: "Anchor-2" 316 591 basechar 0
LayerCount: 2
Fore
SplineSet
341 302 m 1,0,-1
 541 43 l 1,1,-1
 559 43 l 2,2,3
 588 43 588 43 587 23 c 0,4,5
 587 0 587 0 559 0 c 2,6,-1
 421 0 l 2,7,8
 392 0 392 0 392 23 c 0,9,10
 392 43 392 43 421 43 c 2,11,-1
 485 43 l 1,12,-1
 312 267 l 1,13,-1
 140 43 l 1,14,-1
 208 43 l 2,15,16
 237 43 237 43 236 23 c 0,17,18
 236 0 236 0 208 0 c 2,19,-1
 71 0 l 2,20,21
 42 0 42 0 42 23 c 0,22,23
 42 43 42 43 71 43 c 2,24,-1
 88 43 l 1,25,-1
 286 302 l 1,26,-1
 97 548 l 1,27,-1
 82 548 l 2,28,29
 53 548 53 548 53 569 c 0,30,31
 53 589 53 589 82 591 c 2,32,-1
 198 591 l 2,33,34
 227 591 227 591 225 569 c 0,35,36
 225 546 225 546 198 548 c 2,37,-1
 152 548 l 1,38,-1
 314 337 l 1,39,-1
 475 548 l 1,40,-1
 428 548 l 2,41,42
 399 548 399 548 399 569 c 0,43,44
 399 589 399 589 428 591 c 2,45,-1
 544 591 l 2,46,47
 573 591 573 591 572 569 c 0,48,49
 572 546 572 546 544 548 c 2,50,-1
 528 548 l 1,51,-1
 341 302 l 1,0,-1
EndSplineSet
Validated: 33
EndChar

StartChar: Y
Encoding: 89 89 60
Width: 628
GlyphClass: 2
Flags: W
AnchorPoint: "Anchor-2" 316 591 basechar 0
LayerCount: 2
Fore
SplineSet
338 266 m 1,0,-1
 338 43 l 1,1,-1
 447 43 l 2,2,3
 476 43 476 43 476 23 c 0,4,5
 476 0 476 0 447 0 c 2,6,-1
 184 0 l 2,7,8
 155 0 155 0 157 23 c 0,9,10
 157 43 157 43 184 43 c 2,11,-1
 295 43 l 1,12,-1
 295 266 l 1,13,-1
 106 548 l 1,14,-1
 82 548 l 2,15,16
 53 548 53 548 53 569 c 0,17,18
 53 589 53 589 82 591 c 2,19,-1
 199 591 l 2,20,21
 228 591 228 591 226 569 c 0,22,23
 226 546 226 546 199 548 c 2,24,-1
 159 548 l 1,25,-1
 317 309 l 1,26,-1
 474 548 l 1,27,-1
 432 548 l 2,28,29
 402 548 402 548 402 569 c 0,30,31
 402 589 402 589 432 591 c 2,32,-1
 548 591 l 2,33,34
 577 591 577 591 575 569 c 0,35,36
 575 546 575 546 548 548 c 2,37,-1
 522 548 l 1,38,-1
 338 266 l 1,0,-1
EndSplineSet
Validated: 33
EndChar

StartChar: Z
Encoding: 90 90 61
Width: 628
GlyphClass: 2
Flags: W
AnchorPoint: "Anchor-2" 316 591 basechar 0
LayerCount: 2
Fore
SplineSet
521 0 m 1,0,-1
 108 0 l 1,1,-1
 108 61 l 1,2,-1
 452 544 l 1,3,-1
 452 548 l 1,4,-1
 170 548 l 1,5,-1
 170 424 l 2,6,7
 170 394 170 394 148 394 c 0,8,9
 125 394 125 394 127 424 c 2,10,-1
 127 591 l 1,11,-1
 493 591 l 1,12,-1
 493 529 l 1,13,-1
 148 47 l 1,14,-1
 148 43 l 1,15,-1
 478 43 l 1,16,-1
 478 190 l 2,17,18
 478 219 478 219 499 219 c 0,19,20
 522 219 522 219 521 190 c 2,21,-1
 521 0 l 1,0,-1
EndSplineSet
Validated: 33
EndChar

StartChar: bracketleft
Encoding: 91 91 62
Width: 628
GlyphClass: 2
Flags: W
LayerCount: 2
Fore
SplineSet
337 591 m 1,0,-1
 337 -87 l 1,1,-1
 438 -87 l 2,2,3
 467 -87 467 -87 467 -108 c 0,4,5
 467 -131 467 -131 438 -130 c 2,6,-1
 294 -130 l 1,7,-1
 294 633 l 1,8,-1
 438 633 l 2,9,10
 467 633 467 633 467 612 c 0,11,12
 467 589 467 589 438 591 c 2,13,-1
 337 591 l 1,0,-1
EndSplineSet
Validated: 33
EndChar

StartChar: backslash
Encoding: 92 92 63
Width: 628
GlyphClass: 2
Flags: W
LayerCount: 2
Fore
SplineSet
163 682 m 2,0,-1
 506 -48 l 2,1,2
 511 -57 511 -57 511 -65 c 128,-1,3
 511 -73 511 -73 504.5 -79 c 128,-1,4
 498 -85 498 -85 489 -85 c 0,5,6
 476 -85 476 -85 467 -67 c 2,7,-1
 124 664 l 2,8,9
 119 674 119 674 119 681 c 0,10,11
 119 688 119 688 125.5 694 c 128,-1,12
 132 700 132 700 140 700 c 0,13,14
 154 700 154 700 163 682 c 2,0,-1
EndSplineSet
Validated: 1
EndChar

StartChar: bracketright
Encoding: 93 93 64
Width: 628
GlyphClass: 2
Flags: W
LayerCount: 2
Fore
SplineSet
293 -87 m 1,0,-1
 293 591 l 1,1,-1
 190 591 l 2,2,3
 161 591 161 591 163 611 c 0,4,5
 163 634 163 634 190 633 c 2,6,-1
 336 633 l 1,7,-1
 336 -130 l 1,8,-1
 190 -130 l 2,9,10
 161 -130 161 -130 163 -109 c 0,11,12
 163 -86 163 -86 190 -87 c 2,13,-1
 293 -87 l 1,0,-1
EndSplineSet
Validated: 33
EndChar

StartChar: asciicircum
Encoding: 94 94 65
Width: 628
GlyphClass: 2
Flags: W
LayerCount: 2
Fore
SplineSet
314 645 m 1,0,-1
 501 411 l 2,1,2
 510 401 510 401 511 392 c 256,3,4
 511 384 511 384 504.5 377.5 c 128,-1,5
 498 371 498 371 489 371 c 0,6,7
 479 371 479 371 469 385 c 2,8,-1
 314 579 l 1,9,-1
 161 385 l 2,10,11
 152 372 152 372 139 371 c 0,12,13
 131 371 131 371 125 377.5 c 128,-1,14
 119 384 119 384 119 392 c 128,-1,15
 119 400 119 400 128 411 c 2,16,-1
 314 645 l 1,0,-1
EndSplineSet
Validated: 1
EndChar

StartChar: underscore
Encoding: 95 95 66
Width: 628
GlyphClass: 2
Flags: W
LayerCount: 2
Fore
SplineSet
629 -79 m 1,0,-1
 629 -131 l 1,1,-1
 0 -131 l 1,2,-1
 0 -79 l 1,3,-1
 629 -79 l 1,0,-1
EndSplineSet
Validated: 1
EndChar

StartChar: grave
Encoding: 96 96 67
Width: 628
GlyphClass: 2
Flags: W
LayerCount: 2
Fore
SplineSet
204 660 m 2,0,-1
 323 556 l 2,1,2
 335 545 335 545 336 536 c 0,3,4
 336 527 336 527 329.5 520.5 c 128,-1,5
 323 514 323 514 313 514 c 0,6,7
 306 514 306 514 295 523 c 2,8,-1
 175 628 l 2,9,10
 163 639 163 639 163 649 c 0,11,12
 163 657 163 657 169 663.5 c 128,-1,13
 175 670 175 670 183 670 c 0,14,15
 192 669 192 669 204 660 c 2,0,-1
EndSplineSet
Validated: 1
EndChar

StartChar: a
Encoding: 97 97 68
Width: 628
GlyphClass: 2
Flags: W
AnchorPoint: "Anchor-2" 309 452 basechar 0
LayerCount: 2
Fore
SplineSet
131 396 m 0,0,1
 131 420 131 420 202 436 c 128,-1,2
 273 452 273 452 313 452 c 0,3,4
 387 452 387 452 434.5 415.5 c 128,-1,5
 482 379 482 379 482 323 c 2,6,-1
 482 43 l 1,7,-1
 539 43 l 2,8,9
 568 43 568 43 567 23 c 0,10,11
 567 0 567 0 539 0 c 2,12,-1
 439 0 l 1,13,-1
 439 71 l 1,14,15
 346 -16 346 -16 239 -16 c 0,16,17
 165 -16 165 -16 120.5 20.5 c 128,-1,18
 76 57 76 57 76 118 c 0,19,20
 76 187 76 187 137.5 228.5 c 128,-1,21
 199 270 199 270 297 270 c 0,22,23
 358 270 358 270 439 249 c 1,24,-1
 439 323 l 2,25,26
 439 362 439 362 403.5 385.5 c 128,-1,27
 368 409 368 409 310 409 c 0,28,29
 262 409 262 409 211 392.5 c 128,-1,30
 160 376 160 376 151 376 c 128,-1,31
 142 376 142 376 136.5 382 c 128,-1,32
 131 388 131 388 131 396 c 0,0,1
439 118 m 1,33,-1
 439 212 l 1,34,35
 377 227 377 227 305 227 c 0,36,37
 222 227 222 227 170.5 196.5 c 128,-1,38
 119 166 119 166 119 117 c 0,39,40
 119 76 119 76 151 51.5 c 128,-1,41
 183 27 183 27 238 27 c 0,42,43
 293 27 293 27 340 48 c 128,-1,44
 387 69 387 69 439 118 c 1,33,-1
EndSplineSet
Validated: 33
EndChar

StartChar: b
Encoding: 98 98 69
Width: 628
GlyphClass: 2
Flags: W
LayerCount: 2
Fore
SplineSet
151 633 m 1,0,-1
 151 344 l 1,1,2
 228 452 228 452 340 452 c 0,3,4
 435 452 435 452 501 384.5 c 128,-1,5
 567 317 567 317 567 220 c 0,6,7
 567 122 567 122 500.5 53 c 128,-1,8
 434 -16 434 -16 340 -16 c 0,9,10
 224 -16 224 -16 151 92 c 1,11,-1
 151 0 l 1,12,-1
 51 0 l 2,13,14
 22 0 22 0 24 23 c 0,15,16
 24 43 24 43 51 43 c 2,17,-1
 108 43 l 1,18,-1
 108 591 l 1,19,-1
 51 591 l 2,20,21
 22 591 22 591 24 612 c 0,22,23
 24 632 24 632 51 633 c 2,24,-1
 151 633 l 1,0,-1
338 409 m 0,25,26
 260 409 260 409 205.5 353.5 c 128,-1,27
 151 298 151 298 151 218 c 128,-1,28
 151 138 151 138 205.5 82.5 c 128,-1,29
 260 27 260 27 338 27 c 0,30,31
 415 27 415 27 469.5 82 c 128,-1,32
 524 137 524 137 524 215 c 0,33,34
 524 297 524 297 470.5 353 c 128,-1,35
 417 409 417 409 338 409 c 0,25,26
EndSplineSet
Validated: 33
EndChar

StartChar: c
Encoding: 99 99 70
Width: 628
GlyphClass: 2
Flags: W
AnchorPoint: "Anchor-2" 330 452 basechar 0
LayerCount: 2
Fore
SplineSet
561 92 m 0,0,1
 561 83 561 83 543 65.5 c 128,-1,2
 525 48 525 48 496.5 29 c 128,-1,3
 468 10 468 10 421 -3 c 128,-1,4
 374 -16 374 -16 324 -16 c 0,5,6
 222 -16 222 -16 155 49 c 128,-1,7
 88 114 88 114 88 214 c 0,8,9
 88 317 88 317 156 384.5 c 128,-1,10
 224 452 224 452 330 452 c 0,11,12
 427 452 427 452 493 394 c 1,13,-1
 493 408 l 2,14,15
 493 438 493 438 515 437 c 0,16,17
 535 437 535 437 536 408 c 2,18,-1
 536 312 l 2,19,20
 536 283 536 283 515 285 c 0,21,22
 497 285 497 285 493 309 c 0,23,24
 490 351 490 351 441 380 c 128,-1,25
 392 409 392 409 326 409 c 0,26,27
 239 409 239 409 185 355 c 128,-1,28
 131 301 131 301 131 215 c 0,29,30
 131 132 131 132 185.5 79.5 c 128,-1,31
 240 27 240 27 326 27 c 0,32,33
 441 27 441 27 522 101 c 0,34,35
 532 111 532 111 541 112 c 128,-1,36
 550 113 550 113 555.5 106.5 c 128,-1,37
 561 100 561 100 561 92 c 0,0,1
EndSplineSet
Validated: 33
EndChar

StartChar: d
Encoding: 100 100 71
Width: 628
GlyphClass: 2
Flags: W
LayerCount: 2
Fore
SplineSet
526 633 m 1,0,-1
 526 43 l 1,1,-1
 583 43 l 2,2,3
 612 43 612 43 611 23 c 0,4,5
 611 0 611 0 583 0 c 2,6,-1
 483 0 l 1,7,-1
 483 93 l 1,8,9
 408 -18 408 -18 293 -16 c 0,10,11
 200 -16 200 -16 133.5 53 c 128,-1,12
 67 122 67 122 67 218 c 128,-1,13
 67 314 67 314 133.5 383 c 128,-1,14
 200 452 200 452 293 452 c 0,15,16
 409 452 409 452 483 343 c 1,17,-1
 483 591 l 1,18,-1
 427 591 l 2,19,20
 398 591 398 591 398 612 c 0,21,22
 398 632 398 632 427 633 c 2,23,-1
 526 633 l 1,0,-1
296 409 m 0,24,25
 218 409 218 409 163.5 353.5 c 128,-1,26
 109 298 109 298 109 218 c 0,27,28
 109 137 109 137 163.5 82 c 128,-1,29
 218 27 218 27 297 27 c 0,30,31
 375 27 375 27 429 82 c 128,-1,32
 483 137 483 137 483 216 c 0,33,34
 483 298 483 298 429.5 353.5 c 128,-1,35
 376 409 376 409 296 409 c 0,24,25
EndSplineSet
Validated: 33
EndChar

StartChar: e
Encoding: 101 101 72
Width: 628
GlyphClass: 2
Flags: W
AnchorPoint: "Anchor-2" 305 452 basechar 0
LayerCount: 2
Fore
SplineSet
545 209 m 1,0,-1
 109 209 l 1,1,2
 120 126 120 126 178 76.5 c 128,-1,3
 236 27 236 27 321 27 c 0,4,5
 370 27 370 27 421.5 42 c 128,-1,6
 473 57 473 57 505 83 c 0,7,8
 515 90 515 90 521 90 c 0,9,10
 529 90 529 90 535 84 c 128,-1,11
 541 78 541 78 541 70 c 0,12,13
 541 42 541 42 466 13 c 128,-1,14
 391 -16 391 -16 319 -16 c 0,15,16
 214 -16 214 -16 140.5 55 c 128,-1,17
 67 126 67 126 67 227 c 0,18,19
 67 322 67 322 136 387 c 128,-1,20
 205 452 205 452 305 452 c 0,21,22
 410 452 410 452 477.5 386 c 128,-1,23
 545 320 545 320 545 209 c 1,0,-1
109 252 m 1,24,-1
 501 252 l 1,25,26
 489 324 489 324 435.5 366.5 c 128,-1,27
 382 409 382 409 305 409 c 128,-1,28
 228 409 228 409 175.5 367 c 128,-1,29
 123 325 123 325 109 252 c 1,24,-1
EndSplineSet
Validated: 1
EndChar

StartChar: f
Encoding: 102 102 73
Width: 628
GlyphClass: 2
Flags: W
LayerCount: 2
Fore
SplineSet
545 578 m 0,0,1
 543 578 543 578 519 581 c 128,-1,2
 495 584 495 584 461 587.5 c 128,-1,3
 427 591 427 591 400 591 c 0,4,5
 349 591 349 591 317 566 c 128,-1,6
 285 541 285 541 285 501 c 2,7,-1
 285 437 l 1,8,-1
 482 437 l 2,9,10
 511 437 511 437 511 417 c 0,11,12
 511 394 511 394 482 394 c 2,13,-1
 285 394 l 1,14,-1
 285 43 l 1,15,-1
 471 43 l 2,16,17
 500 43 500 43 499 23 c 0,18,19
 499 0 499 0 471 0 c 2,20,-1
 138 0 l 2,21,22
 109 0 109 0 111 23 c 0,23,24
 111 43 111 43 138 43 c 2,25,-1
 242 43 l 1,26,-1
 242 394 l 1,27,-1
 148 394 l 2,28,29
 119 394 119 394 121 417 c 0,30,31
 121 437 121 437 148 437 c 2,32,-1
 242 437 l 1,33,-1
 242 501 l 2,34,35
 242 558 242 558 287.5 595.5 c 128,-1,36
 333 633 333 633 402 633 c 0,37,38
 476 633 476 633 549 620 c 0,39,40
 567 615 567 615 567 599 c 0,41,42
 568 578 568 578 545 578 c 0,0,1
EndSplineSet
Validated: 33
EndChar

StartChar: g
Encoding: 103 103 74
Width: 628
GlyphClass: 2
Flags: W
LayerCount: 2
Fore
SplineSet
462 350 m 1,0,-1
 462 437 l 1,1,-1
 561 437 l 2,2,3
 590 437 590 437 589 417 c 0,4,5
 589 394 589 394 561 394 c 2,6,-1
 505 394 l 1,7,-1
 505 -30 l 2,8,9
 505 -98 505 -98 454 -146.5 c 128,-1,10
 403 -195 403 -195 332 -195 c 2,11,-1
 212 -195 l 2,12,13
 183 -195 183 -195 183 -173 c 0,14,15
 183 -153 183 -153 212 -152 c 2,16,-1
 334 -152 l 2,17,18
 387 -152 387 -152 424.5 -114.5 c 128,-1,19
 462 -77 462 -77 462 -24 c 2,20,-1
 462 113 l 1,21,22
 392 12 392 12 282 10 c 0,23,24
 193 10 193 10 130 75 c 128,-1,25
 67 140 67 140 67 231.5 c 128,-1,26
 67 323 67 323 130 387.5 c 128,-1,27
 193 452 193 452 282 452 c 0,28,29
 393 451 393 451 462 350 c 1,0,-1
286 409 m 0,30,31
 212 409 212 409 160.5 357.5 c 128,-1,32
 109 306 109 306 109 232 c 128,-1,33
 109 158 109 158 160.5 105.5 c 128,-1,34
 212 53 212 53 285 53 c 128,-1,35
 358 53 358 53 410 105 c 128,-1,36
 462 157 462 157 462 229 c 0,37,38
 462 306 462 306 411.5 357.5 c 128,-1,39
 361 409 361 409 286 409 c 0,30,31
EndSplineSet
Validated: 33
EndChar

StartChar: h
Encoding: 104 104 75
Width: 628
GlyphClass: 2
Flags: W
LayerCount: 2
Fore
SplineSet
458 302 m 2,0,1
 458 349 458 349 422.5 379 c 128,-1,2
 387 409 387 409 330 409 c 0,3,4
 286 409 286 409 256.5 392 c 128,-1,5
 227 375 227 375 184 324 c 2,6,-1
 173 310 l 1,7,-1
 173 43 l 1,8,-1
 220 43 l 2,9,10
 250 43 250 43 250 23 c 0,11,12
 250 0 250 0 220 0 c 2,13,-1
 82 0 l 2,14,15
 53 0 53 0 53 23 c 0,16,17
 53 43 53 43 82 43 c 2,18,-1
 130 43 l 1,19,-1
 130 591 l 1,20,-1
 74 591 l 2,21,22
 45 591 45 591 45 612 c 0,23,24
 45 632 45 632 74 633 c 2,25,-1
 173 633 l 1,26,-1
 173 364 l 1,27,28
 213 412 213 412 250 432 c 128,-1,29
 287 452 287 452 335 452 c 0,30,31
 409 452 409 452 455 410.5 c 128,-1,32
 501 369 501 369 501 305 c 2,33,-1
 501 43 l 1,34,-1
 549 43 l 2,35,36
 579 43 579 43 578 23 c 0,37,38
 578 0 578 0 549 0 c 2,39,-1
 411 0 l 2,40,41
 382 0 382 0 383 23 c 0,42,43
 383 43 383 43 411 43 c 2,44,-1
 458 43 l 1,45,-1
 458 302 l 2,0,1
EndSplineSet
Validated: 33
EndChar

StartChar: i
Encoding: 105 105 76
Width: 628
GlyphClass: 2
Flags: W
AnchorPoint: "Anchor-2" 305 632 basechar 0
LayerCount: 2
Fore
SplineSet
336 437 m 1,0,-1
 336 43 l 1,1,-1
 504 43 l 2,2,3
 534 43 534 43 532 23 c 0,4,5
 532 0 532 0 504 0 c 2,6,-1
 125 0 l 2,7,8
 96 0 96 0 96 23 c 0,9,10
 96 43 96 43 125 43 c 2,11,-1
 293 43 l 1,12,-1
 293 394 l 1,13,-1
 169 394 l 2,14,15
 140 394 140 394 140 417 c 0,16,17
 140 437 140 437 169 437 c 2,18,-1
 336 437 l 1,0,-1
334 654 m 1,19,-1
 334 545 l 1,20,-1
 271 545 l 1,21,-1
 271 654 l 1,22,-1
 334 654 l 1,19,-1
EndSplineSet
Validated: 33
EndChar

StartChar: j
Encoding: 106 106 77
Width: 628
GlyphClass: 2
Flags: W
AnchorPoint: "Anchor-2" 401 632 basechar 0
LayerCount: 2
Fore
SplineSet
437 394 m 1,0,-1
 184 394 l 2,1,2
 155 394 155 394 157 417 c 0,3,4
 157 437 157 437 184 437 c 2,5,-1
 480 437 l 1,6,-1
 480 -30 l 2,7,8
 480 -104 480 -104 434.5 -149.5 c 128,-1,9
 389 -195 389 -195 317 -195 c 2,10,-1
 182 -195 l 2,11,12
 153 -195 153 -195 155 -173 c 0,13,14
 155 -153 155 -153 182 -152 c 2,15,-1
 316 -152 l 2,16,17
 368 -152 368 -152 402.5 -117.5 c 128,-1,18
 437 -83 437 -83 437 -30 c 2,19,-1
 437 394 l 1,0,-1
434 654 m 1,20,-1
 434 545 l 1,21,-1
 373 545 l 1,22,-1
 373 654 l 1,23,-1
 434 654 l 1,20,-1
EndSplineSet
Validated: 33
EndChar

StartChar: k
Encoding: 107 107 78
Width: 628
GlyphClass: 2
Flags: W
LayerCount: 2
Fore
SplineSet
194 188 m 1,0,-1
 194 0 l 1,1,-1
 94 0 l 2,2,3
 65 0 65 0 67 23 c 0,4,5
 67 43 67 43 94 43 c 2,6,-1
 151 43 l 1,7,-1
 151 591 l 1,8,-1
 94 591 l 2,9,10
 65 591 65 591 67 612 c 0,11,12
 67 632 67 632 94 633 c 2,13,-1
 194 633 l 1,14,-1
 194 240 l 1,15,-1
 376 394 l 1,16,-1
 352 394 l 2,17,18
 323 394 323 394 324 417 c 0,19,20
 324 437 324 437 352 437 c 2,21,-1
 488 437 l 2,22,23
 517 437 517 437 517 417 c 0,24,25
 517 394 517 394 488 394 c 2,26,-1
 439 394 l 1,27,-1
 274 257 l 1,28,-1
 492 43 l 1,29,-1
 539 43 l 2,30,31
 568 43 568 43 567 23 c 0,32,33
 567 0 567 0 539 0 c 2,34,-1
 401 0 l 2,35,36
 372 0 372 0 374 23 c 0,37,38
 374 43 374 43 401 43 c 2,39,-1
 431 43 l 1,40,-1
 243 229 l 1,41,-1
 194 188 l 1,0,-1
EndSplineSet
Validated: 33
EndChar

StartChar: l
Encoding: 108 108 79
Width: 628
GlyphClass: 2
Flags: W
AnchorPoint: "Anchor-2" 316 616 basechar 0
LayerCount: 2
Fore
SplineSet
336 633 m 1,0,-1
 336 43 l 1,1,-1
 504 43 l 2,2,3
 534 43 534 43 532 23 c 0,4,5
 532 0 532 0 504 0 c 2,6,-1
 125 0 l 2,7,8
 96 0 96 0 96 23 c 0,9,10
 96 43 96 43 125 43 c 2,11,-1
 293 43 l 1,12,-1
 293 591 l 1,13,-1
 170 591 l 2,14,15
 141 591 141 591 141 612 c 0,16,17
 141 632 141 632 170 633 c 2,18,-1
 336 633 l 1,0,-1
EndSplineSet
Validated: 33
EndChar

StartChar: m
Encoding: 109 109 80
Width: 628
GlyphClass: 2
Flags: W
LayerCount: 2
Fore
SplineSet
118 437 m 1,0,-1
 118 383 l 1,1,2
 145 421 145 421 169.5 436.5 c 128,-1,3
 194 452 194 452 227 452 c 0,4,5
 295 452 295 452 330 378 c 1,6,7
 387 453 387 453 447 452 c 0,8,9
 492 452 492 452 525 418.5 c 128,-1,10
 558 385 558 385 558 339 c 2,11,-1
 558 43 l 1,12,-1
 594 43 l 2,13,14
 623 43 623 43 622 23 c 0,15,16
 622 0 622 0 594 0 c 2,17,-1
 516 0 l 1,18,-1
 516 335 l 2,19,20
 516 365 516 365 495 387 c 128,-1,21
 474 409 474 409 446 409 c 0,22,23
 394 409 394 409 338 323 c 1,24,-1
 338 43 l 1,25,-1
 374 43 l 2,26,27
 403 43 403 43 401 23 c 0,28,29
 401 0 401 0 374 0 c 2,30,-1
 296 0 l 1,31,-1
 296 332 l 2,32,33
 296 363 296 363 275.5 386 c 128,-1,34
 255 409 255 409 227 409 c 0,35,36
 175 409 175 409 118 323 c 1,37,-1
 118 43 l 1,38,-1
 154 43 l 2,39,40
 183 43 183 43 181 23 c 0,41,42
 181 0 181 0 154 0 c 2,43,-1
 39 0 l 2,44,45
 11 0 11 0 11 23 c 0,46,47
 11 43 11 43 40 43 c 2,48,-1
 76 43 l 1,49,-1
 76 394 l 1,50,-1
 40 394 l 2,51,52
 11 394 11 394 11 417 c 0,53,54
 11 437 11 437 40 437 c 2,55,-1
 118 437 l 1,0,-1
EndSplineSet
Validated: 33
EndChar

StartChar: n
Encoding: 110 110 81
Width: 628
GlyphClass: 2
Flags: W
LayerCount: 2
Fore
SplineSet
335 409 m 0,0,1
 317 409 317 409 299 405 c 128,-1,2
 281 401 281 401 266 393.5 c 128,-1,3
 251 386 251 386 240 379.5 c 128,-1,4
 229 373 229 373 217.5 360 c 128,-1,5
 206 347 206 347 201 341.5 c 128,-1,6
 196 336 196 336 186 322.5 c 128,-1,7
 176 309 176 309 175 308 c 2,8,-1
 175 43 l 1,9,-1
 222 43 l 2,10,11
 251 43 251 43 251 23 c 0,12,13
 251 0 251 0 222 0 c 2,14,-1
 85 0 l 2,15,16
 55 0 55 0 55 23 c 0,17,18
 55 43 55 43 85 43 c 2,19,-1
 132 43 l 1,20,-1
 132 394 l 1,21,-1
 96 394 l 2,22,23
 67 394 67 394 69 417 c 0,24,25
 69 437 69 437 96 437 c 2,26,-1
 175 437 l 1,27,-1
 175 365 l 1,28,29
 220 415 220 415 255 433.5 c 128,-1,30
 290 452 290 452 339 452 c 0,31,32
 410 452 410 452 457 411 c 128,-1,33
 504 370 504 370 504 309 c 2,34,-1
 504 43 l 1,35,-1
 539 43 l 2,36,37
 568 43 568 43 567 23 c 0,38,39
 567 0 567 0 539 0 c 2,40,-1
 425 0 l 2,41,42
 396 0 396 0 396 23 c 0,43,44
 396 43 396 43 425 43 c 2,45,-1
 461 43 l 1,46,-1
 461 302 l 2,47,48
 461 347 461 347 426.5 378 c 128,-1,49
 392 409 392 409 335 409 c 0,0,1
EndSplineSet
Validated: 33
EndChar

StartChar: o
Encoding: 111 111 82
Width: 628
GlyphClass: 2
Flags: W
AnchorPoint: "Anchor-2" 309 452 basechar 0
LayerCount: 2
Fore
SplineSet
314 452 m 0,0,1
 414 452 414 452 484 383 c 128,-1,2
 554 314 554 314 554 215 c 0,3,4
 554 119 554 119 483.5 51.5 c 128,-1,5
 413 -16 413 -16 314 -16 c 0,6,7
 215 -16 215 -16 145.5 52 c 128,-1,8
 76 120 76 120 76 218 c 0,9,10
 76 314 76 314 145.5 383 c 128,-1,11
 215 452 215 452 314 452 c 0,0,1
314 409 m 0,12,13
 232 409 232 409 175.5 353.5 c 128,-1,14
 119 298 119 298 119 218 c 128,-1,15
 119 138 119 138 175.5 82.5 c 128,-1,16
 232 27 232 27 314 27 c 0,17,18
 395 27 395 27 453 82 c 128,-1,19
 511 137 511 137 511 215 c 0,20,21
 511 298 511 298 454 353.5 c 128,-1,22
 397 409 397 409 314 409 c 0,12,13
EndSplineSet
Validated: 1
EndChar

StartChar: p
Encoding: 112 112 83
Width: 628
GlyphClass: 2
Flags: W
LayerCount: 2
Fore
SplineSet
151 437 m 1,0,-1
 151 351 l 1,1,2
 193 405 193 405 236 428.5 c 128,-1,3
 279 452 279 452 339 452 c 0,4,5
 436 452 436 452 501.5 388.5 c 128,-1,6
 567 325 567 325 567 231.5 c 128,-1,7
 567 138 567 138 501 74 c 128,-1,8
 435 10 435 10 339 10 c 0,9,10
 221 10 221 10 151 112 c 1,11,-1
 151 -152 l 1,12,-1
 254 -152 l 2,13,14
 283 -152 283 -152 282 -173 c 0,15,16
 282 -196 282 -196 254 -195 c 2,17,-1
 51 -195 l 2,18,19
 22 -195 22 -195 24 -173 c 0,20,21
 24 -153 24 -153 51 -152 c 2,22,-1
 108 -152 l 1,23,-1
 108 394 l 1,24,-1
 51 394 l 2,25,26
 22 394 22 394 24 417 c 0,27,28
 24 437 24 437 51 437 c 2,29,-1
 151 437 l 1,0,-1
338 409 m 0,30,31
 260 409 260 409 205.5 357 c 128,-1,32
 151 305 151 305 151 231 c 0,33,34
 151 156 151 156 205.5 104.5 c 128,-1,35
 260 53 260 53 338 53 c 128,-1,36
 416 53 416 53 470 105 c 128,-1,37
 524 157 524 157 524 229 c 0,38,39
 524 306 524 306 471 357.5 c 128,-1,40
 418 409 418 409 338 409 c 0,30,31
EndSplineSet
Validated: 33
EndChar

StartChar: q
Encoding: 113 113 84
Width: 628
GlyphClass: 2
Flags: W
LayerCount: 2
Fore
SplineSet
483 351 m 1,0,-1
 483 437 l 1,1,-1
 583 437 l 2,2,3
 612 437 612 437 611 417 c 0,4,5
 611 394 611 394 583 394 c 2,6,-1
 526 394 l 1,7,-1
 526 -152 l 1,8,-1
 583 -152 l 2,9,10
 612 -152 612 -152 611 -173 c 0,11,12
 611 -196 611 -196 583 -195 c 2,13,-1
 381 -195 l 2,14,15
 352 -195 352 -195 352 -173 c 0,16,17
 352 -153 352 -153 381 -152 c 2,18,-1
 483 -152 l 1,19,-1
 483 112 l 1,20,21
 412 12 412 12 295 10 c 0,22,23
 199 10 199 10 133 74 c 128,-1,24
 67 138 67 138 67 231.5 c 128,-1,25
 67 325 67 325 133 388.5 c 128,-1,26
 199 452 199 452 296 452 c 0,27,28
 411 451 411 451 483 351 c 1,0,-1
296 409 m 0,29,30
 217 409 217 409 163 357.5 c 128,-1,31
 109 306 109 306 109 232 c 128,-1,32
 109 158 109 158 163 105.5 c 128,-1,33
 217 53 217 53 296 53 c 0,34,35
 374 53 374 53 428.5 105 c 128,-1,36
 483 157 483 157 483 229 c 0,37,38
 483 306 483 306 429.5 357.5 c 128,-1,39
 376 409 376 409 296 409 c 0,29,30
EndSplineSet
Validated: 33
EndChar

StartChar: r
Encoding: 114 114 85
Width: 628
GlyphClass: 2
Flags: W
LayerCount: 2
Fore
SplineSet
545 360 m 0,0,1
 540 360 540 360 512.5 382 c 128,-1,2
 485 404 485 404 460 404 c 0,3,4
 424 404 424 404 385.5 379 c 128,-1,5
 347 354 347 354 260 274 c 1,6,-1
 260 43 l 1,7,-1
 447 43 l 2,8,9
 476 43 476 43 476 20 c 0,10,11
 476 0 476 0 447 0 c 2,12,-1
 117 0 l 2,13,14
 88 0 88 0 88 23 c 0,15,16
 88 43 88 43 117 43 c 2,17,-1
 217 43 l 1,18,-1
 217 394 l 1,19,-1
 138 394 l 2,20,21
 109 394 109 394 111 417 c 0,22,23
 111 437 111 437 138 437 c 2,24,-1
 260 437 l 1,25,-1
 260 331 l 1,26,27
 333 398 333 398 378 422.5 c 128,-1,28
 423 447 423 447 463 447 c 0,29,30
 505 447 505 447 536 422 c 128,-1,31
 567 397 567 397 567 383 c 0,32,33
 567 374 567 374 560.5 367 c 128,-1,34
 554 360 554 360 545 360 c 0,0,1
EndSplineSet
Validated: 33
EndChar

StartChar: s
Encoding: 115 115 86
Width: 628
GlyphClass: 2
Flags: W
LayerCount: 2
Fore
SplineSet
474 123 m 0,0,1
 474 162 474 162 438 183 c 128,-1,2
 402 204 402 204 352 211 c 128,-1,3
 302 218 302 218 252 226 c 128,-1,4
 202 234 202 234 166 261 c 128,-1,5
 130 288 130 288 130 334 c 0,6,7
 130 385 130 385 180.5 418.5 c 128,-1,8
 231 452 231 452 309 452 c 0,9,10
 398 452 398 452 453 403 c 1,11,-1
 453 408 l 2,12,13
 453 438 453 438 475 437 c 0,14,15
 495 437 495 437 496 408 c 2,16,-1
 496 336 l 2,17,18
 496 307 496 307 475 307 c 0,19,20
 457 307 457 307 453 332 c 0,21,22
 449 368 449 368 411.5 388.5 c 128,-1,23
 374 409 374 409 313 409 c 0,24,25
 255 409 255 409 216 386.5 c 128,-1,26
 177 364 177 364 177 331 c 0,27,28
 177 299 177 299 213 282 c 128,-1,29
 249 265 249 265 299 258.5 c 128,-1,30
 349 252 349 252 399.5 241.5 c 128,-1,31
 450 231 450 231 485.5 201.5 c 128,-1,32
 521 172 521 172 521 122 c 0,33,34
 521 63 521 63 462.5 23.5 c 128,-1,35
 404 -16 404 -16 315 -16 c 0,36,37
 215 -16 215 -16 151 40 c 1,38,-1
 151 29 l 2,39,40
 151 0 151 0 130 0 c 0,41,42
 107 0 107 0 108 29 c 2,43,-1
 108 116 l 2,44,45
 108 145 108 145 130 143 c 0,46,47
 150 143 150 143 151 121 c 2,48,-1
 151 114 l 2,49,50
 151 78 151 78 198.5 52.5 c 128,-1,51
 246 27 246 27 312 27 c 0,52,53
 382 27 382 27 428 54 c 128,-1,54
 474 81 474 81 474 123 c 0,0,1
EndSplineSet
Validated: 33
EndChar

StartChar: t
Encoding: 116 116 87
Width: 628
GlyphClass: 2
Flags: W
LayerCount: 2
Fore
SplineSet
195 437 m 1,0,-1
 426 437 l 2,1,2
 455 437 455 437 454 417 c 0,3,4
 454 394 454 394 426 394 c 2,5,-1
 195 394 l 1,6,-1
 195 115 l 2,7,8
 195 75 195 75 226.5 51 c 128,-1,9
 258 27 258 27 312 27 c 0,10,11
 356 27 356 27 406 38.5 c 128,-1,12
 456 50 456 50 486 69 c 0,13,14
 496 75 496 75 504 75 c 0,15,16
 511 75 511 75 517 68 c 128,-1,17
 523 61 523 61 523 53 c 0,18,19
 523 29 523 29 452.5 6.5 c 128,-1,20
 382 -16 382 -16 314 -16 c 0,21,22
 239 -16 239 -16 195.5 18.5 c 128,-1,23
 152 53 152 53 152 113 c 2,24,-1
 152 394 l 1,25,-1
 75 394 l 2,26,27
 45 394 45 394 45 417 c 0,28,29
 45 437 45 437 75 437 c 2,30,-1
 152 437 l 1,31,-1
 152 562 l 2,32,33
 152 591 152 591 174 591 c 0,34,35
 194 591 194 591 195 562 c 2,36,-1
 195 437 l 1,0,-1
EndSplineSet
Validated: 33
EndChar

StartChar: u
Encoding: 117 117 88
Width: 628
GlyphClass: 2
Flags: W
AnchorPoint: "Anchor-2" 305 452 basechar 0
LayerCount: 2
Fore
SplineSet
461 0 m 1,0,-1
 461 70 l 1,1,2
 373 -16 373 -16 269 -16 c 0,3,4
 207 -16 207 -16 168.5 21 c 128,-1,5
 130 58 130 58 130 121 c 2,6,-1
 130 394 l 1,7,-1
 74 394 l 2,8,9
 45 394 45 394 45 417 c 0,10,11
 45 437 45 437 74 437 c 2,12,-1
 173 437 l 1,13,-1
 173 121 l 2,14,15
 173 81 173 81 200.5 54 c 128,-1,16
 228 27 228 27 268 27 c 0,17,18
 372 27 372 27 461 121 c 1,19,-1
 461 394 l 1,20,-1
 383 394 l 2,21,22
 353 394 353 394 353 417 c 0,23,24
 353 437 353 437 383 437 c 2,25,-1
 504 437 l 1,26,-1
 504 43 l 1,27,-1
 539 43 l 2,28,29
 568 43 568 43 567 23 c 0,30,31
 567 0 567 0 539 0 c 2,32,-1
 461 0 l 1,0,-1
EndSplineSet
Validated: 33
EndChar

StartChar: v
Encoding: 118 118 89
Width: 628
GlyphClass: 2
Flags: W
LayerCount: 2
Fore
SplineSet
352 0 m 1,0,-1
 279 0 l 1,1,-1
 102 394 l 1,2,-1
 59 394 l 2,3,4
 30 394 30 394 32 417 c 0,5,6
 32 437 32 437 59 437 c 2,7,-1
 218 437 l 2,8,9
 248 437 248 437 248 417 c 0,10,11
 248 394 248 394 218 394 c 2,12,-1
 150 394 l 1,13,-1
 307 43 l 1,14,-1
 327 43 l 1,15,-1
 481 394 l 1,16,-1
 410 394 l 2,17,18
 381 394 381 394 382 417 c 0,19,20
 382 437 382 437 410 437 c 2,21,-1
 569 437 l 2,22,23
 598 437 598 437 598 417 c 0,24,25
 598 394 598 394 569 394 c 2,26,-1
 526 394 l 1,27,-1
 352 0 l 1,0,-1
EndSplineSet
Validated: 33
EndChar

StartChar: w
Encoding: 119 119 90
Width: 628
GlyphClass: 2
Flags: W
LayerCount: 2
Fore
SplineSet
463 0 m 1,0,-1
 410 0 l 1,1,-1
 314 271 l 1,2,-1
 221 0 l 1,3,-1
 168 0 l 1,4,-1
 80 394 l 1,5,-1
 59 394 l 2,6,7
 30 394 30 394 32 417 c 0,8,9
 32 437 32 437 59 437 c 2,10,-1
 176 437 l 2,11,12
 205 437 205 437 205 417 c 0,13,14
 205 394 205 394 176 394 c 2,15,-1
 121 394 l 1,16,-1
 196 58 l 1,17,-1
 287 326 l 1,18,-1
 340 326 l 1,19,-1
 433 58 l 1,20,-1
 506 394 l 1,21,-1
 453 394 l 2,22,23
 424 394 424 394 425 417 c 0,24,25
 425 437 425 437 453 437 c 2,26,-1
 569 437 l 2,27,28
 598 437 598 437 598 417 c 0,29,30
 598 394 598 394 569 394 c 2,31,-1
 550 394 l 1,32,-1
 463 0 l 1,0,-1
EndSplineSet
Validated: 33
EndChar

StartChar: x
Encoding: 120 120 91
Width: 628
GlyphClass: 2
Flags: W
LayerCount: 2
Fore
SplineSet
345 229 m 1,0,-1
 538 43 l 1,1,-1
 548 43 l 2,2,3
 577 43 577 43 575 23 c 0,4,5
 575 0 575 0 548 0 c 2,6,-1
 409 0 l 2,7,8
 380 0 380 0 381 23 c 0,9,10
 381 43 381 43 409 43 c 2,11,-1
 477 43 l 1,12,-1
 314 200 l 1,13,-1
 150 43 l 1,14,-1
 221 43 l 2,15,16
 250 43 250 43 250 23 c 0,17,18
 250 0 250 0 221 0 c 2,19,-1
 82 0 l 2,20,21
 53 0 53 0 53 23 c 0,22,23
 53 43 53 43 82 43 c 2,24,-1
 91 43 l 1,25,-1
 285 229 l 1,26,-1
 114 394 l 1,27,-1
 105 394 l 2,28,29
 76 394 76 394 78 417 c 0,30,31
 78 437 78 437 105 437 c 2,32,-1
 222 437 l 2,33,34
 251 437 251 437 251 417 c 0,35,36
 251 394 251 394 222 394 c 2,37,-1
 174 394 l 1,38,-1
 314 258 l 1,39,-1
 458 394 l 1,40,-1
 408 394 l 2,41,42
 379 394 379 394 380 417 c 0,43,44
 380 437 380 437 408 437 c 2,45,-1
 523 437 l 2,46,47
 552 437 552 437 552 417 c 0,48,49
 552 394 552 394 523 394 c 2,50,-1
 516 394 l 1,51,-1
 345 229 l 1,0,-1
EndSplineSet
Validated: 33
EndChar

StartChar: y
Encoding: 121 121 92
Width: 628
GlyphClass: 2
Flags: W
AnchorPoint: "Anchor-1" 476 0 basechar 0
LayerCount: 2
Fore
SplineSet
296 0 m 1,0,-1
 98 394 l 1,1,-1
 82 394 l 2,2,3
 53 394 53 394 53 417 c 0,4,5
 53 437 53 437 82 437 c 2,6,-1
 203 437 l 2,7,8
 232 437 232 437 230 417 c 0,9,10
 230 394 230 394 203 394 c 2,11,-1
 147 394 l 1,12,-1
 319 47 l 1,13,-1
 488 394 l 1,14,-1
 432 394 l 2,15,16
 403 394 403 394 403 417 c 0,17,18
 403 437 403 437 432 437 c 2,19,-1
 548 437 l 2,20,21
 577 437 577 437 575 417 c 0,22,23
 575 394 575 394 548 394 c 2,24,-1
 532 394 l 1,25,-1
 264 -152 l 1,26,-1
 333 -152 l 2,27,28
 362 -152 362 -152 360 -173 c 0,29,30
 360 -196 360 -196 333 -195 c 2,31,-1
 88 -195 l 2,32,33
 59 -195 59 -195 59 -173 c 0,34,35
 59 -153 59 -153 88 -152 c 2,36,-1
 221 -152 l 1,37,-1
 296 0 l 1,0,-1
EndSplineSet
Validated: 33
EndChar

StartChar: z
Encoding: 122 122 93
Width: 628
GlyphClass: 2
Flags: W
LayerCount: 2
Fore
SplineSet
497 437 m 1,0,-1
 497 399 l 1,1,-1
 179 43 l 1,2,-1
 470 43 l 1,3,-1
 470 101 l 2,4,5
 470 130 470 130 492 130 c 0,6,7
 512 130 512 130 513 101 c 2,8,-1
 513 0 l 1,9,-1
 121 0 l 1,10,-1
 121 38 l 1,11,-1
 436 394 l 1,12,-1
 173 394 l 1,13,-1
 173 337 l 2,14,15
 173 308 173 308 152 308 c 0,16,17
 129 308 129 308 130 337 c 2,18,-1
 130 437 l 1,19,-1
 497 437 l 1,0,-1
EndSplineSet
Validated: 33
EndChar

StartChar: braceleft
Encoding: 123 123 94
Width: 628
GlyphClass: 2
Flags: W
LayerCount: 2
Fore
SplineSet
430 -109 m 0,0,1
 430 -129 430 -129 408 -130 c 0,2,3
 354 -130 354 -130 324.5 -99.5 c 128,-1,4
 295 -69 295 -69 295 -14 c 2,5,-1
 295 140 l 2,6,7
 295 185 295 185 259.5 208 c 128,-1,8
 224 231 224 231 186 231 c 0,9,10
 163 231 163 231 165 252 c 0,11,12
 165 275 165 275 186 273 c 0,13,14
 224 273 224 273 259.5 295.5 c 128,-1,15
 295 318 295 318 295 362 c 2,16,-1
 295 517 l 2,17,18
 295 571 295 571 324 602 c 128,-1,19
 353 633 353 633 408 633 c 0,20,21
 417 633 417 633 423.5 627.5 c 128,-1,22
 430 622 430 622 430 612 c 0,23,24
 430 604 430 604 423.5 598 c 128,-1,25
 417 592 417 592 407 592 c 0,26,27
 380 592 380 592 359 574.5 c 128,-1,28
 338 557 338 557 338 517 c 2,29,-1
 338 362 l 2,30,31
 338 282 338 282 256 252 c 1,32,33
 338 226 338 226 338 140 c 2,34,-1
 338 -14 l 2,35,36
 338 -53 338 -53 359.5 -70.5 c 128,-1,37
 381 -88 381 -88 408 -88 c 0,38,39
 417 -88 417 -88 423.5 -94.5 c 128,-1,40
 430 -101 430 -101 430 -109 c 0,0,1
EndSplineSet
Validated: 1
EndChar

StartChar: bar
Encoding: 124 124 95
Width: 628
GlyphClass: 2
Flags: W
LayerCount: 2
Fore
SplineSet
336 605 m 2,0,-1
 336 -101 l 2,1,2
 336 -130 336 -130 315 -130 c 128,-1,3
 294 -130 294 -130 294 -101 c 2,4,-1
 294 605 l 2,5,6
 294 634 294 634 315 634 c 128,-1,7
 336 634 336 634 336 605 c 2,0,-1
EndSplineSet
Validated: 1
EndChar

StartChar: braceright
Encoding: 125 125 96
Width: 628
GlyphClass: 2
Flags: W
LayerCount: 2
Fore
SplineSet
200 -109 m 0,0,1
 200 -101 200 -101 206 -94.5 c 128,-1,2
 212 -88 212 -88 221 -88 c 0,3,4
 249 -88 249 -88 270.5 -70.5 c 128,-1,5
 292 -53 292 -53 292 -14 c 2,6,-1
 292 140 l 2,7,8
 292 226 292 226 374 252 c 1,9,10
 292 284 292 284 292 362 c 2,11,-1
 292 517 l 2,12,13
 292 557 292 557 270.5 574.5 c 128,-1,14
 249 592 249 592 222 592 c 0,15,16
 213 592 213 592 206.5 598 c 128,-1,17
 200 604 200 604 200 612 c 0,18,19
 200 621 200 621 206 627 c 128,-1,20
 212 633 212 633 221 633 c 0,21,22
 275 633 275 633 305 602 c 128,-1,23
 335 571 335 571 335 517 c 2,24,-1
 335 362 l 2,25,26
 335 318 335 318 369.5 295.5 c 128,-1,27
 404 273 404 273 442 273 c 0,28,29
 465 273 465 273 465 252 c 0,30,31
 465 233 465 233 442 231 c 0,32,33
 404 231 404 231 369.5 208 c 128,-1,34
 335 185 335 185 335 140 c 2,35,-1
 335 -14 l 2,36,37
 335 -67 335 -67 305 -98.5 c 128,-1,38
 275 -130 275 -130 221 -130 c 0,39,40
 200 -129 200 -129 200 -109 c 0,0,1
EndSplineSet
Validated: 1
EndChar

StartChar: asciitilde
Encoding: 126 126 97
Width: 628
GlyphClass: 2
Flags: W
LayerCount: 2
Fore
SplineSet
404 265 m 0,0,1
 428 265 428 265 450 285.5 c 128,-1,2
 472 306 472 306 488 326 c 128,-1,3
 504 346 504 346 512 346 c 128,-1,4
 520 346 520 346 526 340.5 c 128,-1,5
 532 335 532 335 532 326 c 0,6,7
 532 307 532 307 489 264.5 c 128,-1,8
 446 222 446 222 408 222 c 0,9,10
 376 222 376 222 341.5 247 c 128,-1,11
 307 272 307 272 276.5 297 c 128,-1,12
 246 322 246 322 222 322 c 0,13,14
 203 322 203 322 186 309.5 c 128,-1,15
 169 297 169 297 159.5 281.5 c 128,-1,16
 150 266 150 266 138.5 254 c 128,-1,17
 127 242 127 242 117 242 c 0,18,19
 110 242 110 242 103 248 c 128,-1,20
 96 254 96 254 96 261 c 0,21,22
 96 278 96 278 136 321.5 c 128,-1,23
 176 365 176 365 222 365 c 0,24,25
 254 365 254 365 290 339.5 c 128,-1,26
 326 314 326 314 357 289.5 c 128,-1,27
 388 265 388 265 404 265 c 0,0,1
EndSplineSet
Validated: 1
EndChar

StartChar: exclamdown
Encoding: 161 161 99
Width: 628
GlyphClass: 2
Flags: W
LayerCount: 2
Fore
SplineSet
274 -116 m 2,0,-1
 294 226 l 2,1,2
 295 256 295 256 315 256 c 0,3,4
 334 256 334 256 337 226 c 2,5,-1
 355 -116 l 2,6,7
 356 -123 356 -123 356 -132 c 0,8,9
 356 -149 356 -149 344.5 -161 c 128,-1,10
 333 -173 333 -173 314 -173 c 0,11,12
 298 -173 298 -173 285.5 -160.5 c 128,-1,13
 273 -148 273 -148 273 -132 c 2,14,-1
 274 -126 l 2,15,16
 274 -121 274 -121 274 -116 c 2,0,-1
322 386 m 2,17,-1
 308 386 l 2,18,19
 283 386 283 386 267.5 401.5 c 128,-1,20
 252 417 252 417 252 439 c 128,-1,21
 252 461 252 461 268.5 475.5 c 128,-1,22
 285 490 285 490 308 490 c 2,23,-1
 322 490 l 2,24,25
 346 490 346 490 362 475.5 c 128,-1,26
 378 461 378 461 378 439 c 128,-1,27
 378 417 378 417 362 401.5 c 128,-1,28
 346 386 346 386 322 386 c 2,17,-1
EndSplineSet
Validated: 1
EndChar

StartChar: cent
Encoding: 162 162 100
Width: 628
GlyphClass: 2
Flags: W
LayerCount: 2
Fore
SplineSet
119 326 m 0,0,1
 119 345 119 345 125 368.5 c 128,-1,2
 131 392 131 392 147.5 424 c 128,-1,3
 164 456 164 456 201.5 482.5 c 128,-1,4
 239 509 239 509 294 520 c 1,5,-1
 294 632 l 2,6,7
 294 661 294 661 315 660 c 0,8,9
 335 660 335 660 337 632 c 2,10,-1
 337 521 l 1,11,12
 404 521 404 521 445 483 c 1,13,14
 450 500 450 500 467 501 c 0,15,16
 490 501 490 501 488 475 c 2,17,-1
 488 411 l 2,18,19
 488 381 488 381 468 382 c 0,20,21
 451 382 451 382 446 406 c 0,22,23
 441 440 441 440 409 460 c 128,-1,24
 377 480 377 480 326 480 c 0,25,26
 254 480 254 480 208 436.5 c 128,-1,27
 162 393 162 393 162 326 c 0,28,29
 162 259 162 259 207.5 216 c 128,-1,30
 253 173 253 173 322 173 c 0,31,32
 368 173 368 173 399 186.5 c 128,-1,33
 430 200 430 200 446.5 212.5 c 128,-1,34
 463 225 463 225 472 225 c 0,35,36
 491 225 491 225 491.5 204 c 128,-1,37
 492 183 492 183 440.5 159 c 128,-1,38
 389 135 389 135 337 133 c 1,39,-1
 337 14 l 2,40,41
 337 -15 337 -15 315 -13 c 0,42,43
 292 -13 292 -13 294 14 c 2,44,-1
 294 133 l 1,45,46
 217 141 217 141 168 196 c 128,-1,47
 119 251 119 251 119 326 c 0,0,1
EndSplineSet
Validated: 33
EndChar

StartChar: sterling
Encoding: 163 163 101
Width: 628
GlyphClass: 2
Flags: W
LayerCount: 2
Fore
SplineSet
208 456 m 0,0,1
 208 429 208 429 236 330 c 1,2,-1
 340 330 l 2,3,4
 369 330 369 330 368 307 c 0,5,6
 368 287 368 287 340 287 c 2,7,-1
 246 287 l 1,8,9
 251 250 251 250 251 226 c 0,10,11
 251 117 251 117 190 43 c 1,12,-1
 455 43 l 2,13,14
 474 43 474 43 485.5 55.5 c 128,-1,15
 497 68 497 68 499.5 82 c 128,-1,16
 502 96 502 96 508 108.5 c 128,-1,17
 514 121 514 121 524 121 c 0,18,19
 544 121 544 121 545 97 c 0,20,21
 545 57 545 57 519.5 28.5 c 128,-1,22
 494 0 494 0 457 0 c 2,23,-1
 119 0 l 2,24,25
 90 0 90 0 90 23 c 0,26,27
 90 42 90 42 114 42 c 0,28,29
 151 44 151 44 179.5 101.5 c 128,-1,30
 208 159 208 159 208 230 c 0,31,32
 208 259 208 259 204 287 c 1,33,-1
 94 287 l 2,34,35
 65 287 65 287 67 308 c 0,36,37
 67 328 67 328 94 330 c 2,38,-1
 193 330 l 1,39,40
 164 419 164 419 165 456 c 0,41,42
 165 517 165 517 208.5 561.5 c 128,-1,43
 252 606 252 606 312 606 c 0,44,45
 365 606 365 606 406 572.5 c 128,-1,46
 447 539 447 539 447 519 c 0,47,48
 447 512 447 512 440.5 505.5 c 128,-1,49
 434 499 434 499 427 499 c 128,-1,50
 420 499 420 499 406 514.5 c 128,-1,51
 392 530 392 530 368.5 546.5 c 128,-1,52
 345 563 345 563 313 563 c 0,53,54
 270 563 270 563 239 531 c 128,-1,55
 208 499 208 499 208 456 c 0,0,1
EndSplineSet
Validated: 33
EndChar

StartChar: currency
Encoding: 164 164 102
Width: 628
GlyphClass: 2
Flags: W
LayerCount: 2
Fore
SplineSet
209 170 m 1,0,-1
 148 112 l 2,1,2
 138 101 138 101 130 99 c 0,3,4
 121 99 121 99 114.5 106 c 128,-1,5
 108 113 108 113 108 121 c 0,6,7
 108 130 108 130 120 141 c 2,8,-1
 178 201 l 1,9,10
 141 250 141 250 141 306 c 0,11,12
 141 367 141 367 177 413 c 1,13,-1
 120 472 l 2,14,15
 109 482 109 482 108 492 c 0,16,17
 108 500 108 500 114.5 506.5 c 128,-1,18
 121 513 121 513 129 513 c 128,-1,19
 137 513 137 513 148 501 c 2,20,-1
 208 443 l 1,21,22
 254 480 254 480 314 480 c 0,23,24
 373 480 373 480 422 443 c 1,25,-1
 479 501 l 2,26,27
 490 512 490 512 500 513 c 0,28,29
 508 513 508 513 514.5 506.5 c 128,-1,30
 521 500 521 500 521 490 c 0,31,32
 521 482 521 482 511 472 c 2,33,-1
 453 413 l 1,34,35
 489 364 489 364 488 307 c 0,36,37
 488 247 488 247 452 201 c 1,38,-1
 510 141 l 2,39,40
 520 131 520 131 520 121 c 0,41,42
 520 113 520 113 514 106 c 128,-1,43
 508 99 508 99 499 99 c 0,44,45
 490 99 490 99 479 112 c 2,46,-1
 421 170 l 1,47,48
 372 133 372 133 314 133 c 0,49,50
 257 133 257 133 209 170 c 1,0,-1
314 437 m 0,51,52
 261 437 261 437 222.5 398.5 c 128,-1,53
 184 360 184 360 184 307 c 0,54,55
 184 253 184 253 222.5 214.5 c 128,-1,56
 261 176 261 176 314 176 c 0,57,58
 366 176 366 176 405 214.5 c 128,-1,59
 444 253 444 253 444 305 c 0,60,61
 444 360 444 360 406 398.5 c 128,-1,62
 368 437 368 437 314 437 c 0,51,52
EndSplineSet
Validated: 33
EndChar

StartChar: yen
Encoding: 165 165 103
Width: 628
GlyphClass: 2
Flags: W
LayerCount: 2
Fore
SplineSet
337 250 m 1,0,-1
 337 186 l 1,1,-1
 474 186 l 2,2,3
 497 186 497 186 496 168 c 0,4,5
 496 149 496 149 474 147 c 2,6,-1
 337 147 l 1,7,-1
 337 43 l 1,8,-1
 427 43 l 2,9,10
 456 43 456 43 455 23 c 0,11,12
 455 0 455 0 427 0 c 2,13,-1
 204 0 l 2,14,15
 175 0 175 0 175 23 c 0,16,17
 175 43 175 43 204 43 c 2,18,-1
 294 43 l 1,19,-1
 294 147 l 1,20,-1
 158 147 l 2,21,22
 134 147 134 147 134 168 c 0,23,24
 134 186 134 186 158 186 c 2,25,-1
 294 186 l 1,26,-1
 294 250 l 1,27,-1
 158 250 l 2,28,29
 134 250 134 250 134 269 c 0,30,31
 134 287 134 287 158 289 c 2,32,-1
 279 289 l 1,33,-1
 106 548 l 1,34,-1
 82 548 l 2,35,36
 53 548 53 548 53 569 c 0,37,38
 53 589 53 589 82 591 c 2,39,-1
 198 591 l 2,40,41
 227 591 227 591 225 569 c 0,42,43
 225 546 225 546 198 548 c 2,44,-1
 157 548 l 1,45,-1
 314 309 l 1,46,-1
 473 548 l 1,47,-1
 432 548 l 2,48,49
 403 548 403 548 403 569 c 0,50,51
 403 589 403 589 432 591 c 2,52,-1
 548 591 l 2,53,54
 577 591 577 591 575 569 c 0,55,56
 575 546 575 546 548 548 c 2,57,-1
 522 548 l 1,58,-1
 350 289 l 1,59,-1
 474 289 l 2,60,61
 497 289 497 289 496 269 c 0,62,63
 496 250 496 250 474 250 c 2,64,-1
 337 250 l 1,0,-1
EndSplineSet
Validated: 33
EndChar

StartChar: brokenbar
Encoding: 166 166 104
Width: 628
GlyphClass: 2
Flags: W
LayerCount: 2
Fore
SplineSet
336 605 m 2,0,-1
 336 325 l 2,1,2
 336 296 336 296 315 296.5 c 128,-1,3
 294 297 294 297 294 325 c 2,4,-1
 294 605 l 2,5,6
 294 634 294 634 315 634 c 128,-1,7
 336 634 336 634 336 605 c 2,0,-1
336 178 m 2,8,-1
 336 -101 l 2,9,10
 336 -130 336 -130 315 -130 c 128,-1,11
 294 -130 294 -130 294 -101 c 2,12,-1
 294 178 l 2,13,14
 294 207 294 207 315 207 c 128,-1,15
 336 207 336 207 336 178 c 2,8,-1
EndSplineSet
Validated: 33
EndChar

StartChar: section
Encoding: 167 167 105
Width: 628
GlyphClass: 2
Flags: W
LayerCount: 2
Fore
SplineSet
560 194 m 0,0,1
 560 118 560 118 453 105 c 1,2,3
 466 81 466 81 467 54 c 0,4,5
 467 3 467 3 427 -31 c 128,-1,6
 387 -65 387 -65 327 -65 c 2,7,-1
 111 -65 l 1,8,-1
 111 51 l 2,9,10
 111 77 111 77 132 77 c 0,11,12
 152 77 152 77 154 51 c 2,13,-1
 154 -24 l 1,14,-1
 326 -24 l 2,15,16
 368 -24 368 -24 396 -0.5 c 128,-1,17
 424 23 424 23 424 55 c 0,18,19
 424 83 424 83 392.5 112 c 128,-1,20
 361 141 361 141 287 183 c 2,21,-1
 218 221 l 2,22,23
 70 305 70 305 70 376 c 0,24,25
 70 412 70 412 99 435 c 128,-1,26
 128 458 128 458 177 463 c 1,27,28
 164 487 164 487 164 511 c 0,29,30
 164 560 164 560 204 596 c 128,-1,31
 244 632 244 632 298 632 c 2,32,-1
 520 632 l 1,33,-1
 520 518 l 2,34,35
 520 492 520 492 499 493 c 0,36,37
 476 493 476 493 477 518 c 2,38,-1
 477 591 l 1,39,-1
 301 591 l 2,40,41
 262 591 262 591 234 567 c 128,-1,42
 206 543 206 543 206 511 c 0,43,44
 206 481 206 481 237 454 c 128,-1,45
 268 427 268 427 361 376 c 2,46,-1
 421 343 l 2,47,48
 495 303 495 303 527.5 268 c 128,-1,49
 560 233 560 233 560 194 c 0,0,1
420 145 m 1,50,51
 424 147 424 147 450.5 151.5 c 128,-1,52
 477 156 477 156 496 164.5 c 128,-1,53
 515 173 515 173 515 193 c 0,54,55
 515 217 515 217 484.5 246.5 c 128,-1,56
 454 276 454 276 402 304 c 2,57,-1
 336 342 l 2,58,59
 248 390 248 390 211 423 c 1,60,61
 205 422 205 422 191 422 c 0,62,63
 157 422 157 422 136 408 c 128,-1,64
 115 394 115 394 115 375 c 0,65,66
 115 330 115 330 246 255 c 2,67,-1
 310 218 l 2,68,69
 394 171 394 171 420 145 c 1,50,51
EndSplineSet
Validated: 33
EndChar

StartChar: dieresis
Encoding: 168 168 106
Width: 628
GlyphClass: 2
Flags: W
LayerCount: 2
Fore
SplineSet
200 641 m 0,0,1
 223 641 223 641 237.5 625 c 128,-1,2
 252 609 252 609 252 587 c 0,3,4
 252 567 252 567 236 551.5 c 128,-1,5
 220 536 220 536 199 536 c 128,-1,6
 178 536 178 536 162 551.5 c 128,-1,7
 146 567 146 567 146 588 c 128,-1,8
 146 609 146 609 163 625 c 128,-1,9
 180 641 180 641 200 641 c 0,0,1
431 641 m 0,10,11
 454 641 454 641 468.5 625 c 128,-1,12
 483 609 483 609 483 587 c 0,13,14
 483 567 483 567 467.5 551.5 c 128,-1,15
 452 536 452 536 431 536 c 128,-1,16
 410 536 410 536 394.5 551.5 c 128,-1,17
 379 567 379 567 379 588 c 128,-1,18
 379 609 379 609 395 625 c 128,-1,19
 411 641 411 641 431 641 c 0,10,11
EndSplineSet
Validated: 1
EndChar

StartChar: copyright
Encoding: 169 169 107
Width: 628
GlyphClass: 2
Flags: W
LayerCount: 2
Fore
SplineSet
445 194 m 0,0,1
 445 185 445 185 430.5 166.5 c 128,-1,2
 416 148 416 148 384 132.5 c 128,-1,3
 352 117 352 117 316 117 c 0,4,5
 255 117 255 117 208 164 c 128,-1,6
 161 211 161 211 161 272 c 2,7,-1
 161 319 l 2,8,9
 161 381 161 381 204 426.5 c 128,-1,10
 247 472 247 472 306 472 c 0,11,12
 351 472 351 472 399 441 c 1,13,14
 399 465 399 465 418 465 c 128,-1,15
 437 465 437 465 437 443 c 2,16,-1
 437 376 l 2,17,18
 437 356 437 356 419 354 c 0,19,20
 404 354 404 354 399 375 c 0,21,22
 397 400 397 400 370 417 c 128,-1,23
 343 434 343 434 307 434 c 0,24,25
 262 434 262 434 230.5 400 c 128,-1,26
 199 366 199 366 199 316 c 2,27,-1
 199 275 l 2,28,29
 199 226 199 226 233.5 190.5 c 128,-1,30
 268 155 268 155 316 155 c 0,31,32
 343 155 343 155 363 163.5 c 128,-1,33
 383 172 383 172 392 183 c 128,-1,34
 401 194 401 194 411 203 c 128,-1,35
 421 212 421 212 428 212 c 128,-1,36
 435 212 435 212 440 206.5 c 128,-1,37
 445 201 445 201 445 194 c 0,0,1
314 606 m 0,38,39
 442 606 442 606 533.5 515 c 128,-1,40
 625 424 625 424 625 296 c 0,41,42
 625 165 625 165 533.5 75 c 128,-1,43
 442 -15 442 -15 310 -15 c 0,44,45
 184 -15 184 -15 93.5 76.5 c 128,-1,46
 3 168 3 168 3 296 c 128,-1,47
 3 424 3 424 94 515 c 128,-1,48
 185 606 185 606 314 606 c 0,38,39
314 563 m 0,49,50
 202 563 202 563 124 485 c 128,-1,51
 46 407 46 407 46 296 c 0,52,53
 46 185 46 185 124.5 106.5 c 128,-1,54
 203 28 203 28 310 28 c 0,55,56
 425 28 425 28 503.5 105.5 c 128,-1,57
 582 183 582 183 582 296 c 0,58,59
 582 407 582 407 503.5 485 c 128,-1,60
 425 563 425 563 314 563 c 0,49,50
EndSplineSet
Validated: 1
EndChar

StartChar: ordfeminine
Encoding: 170 170 108
Width: 628
GlyphClass: 2
Flags: W
LayerCount: 2
Fore
SplineSet
199 559 m 0,0,1
 199 577 199 577 243.5 589.5 c 128,-1,2
 288 602 288 602 312 602 c 0,3,4
 358 602 358 602 388 577.5 c 128,-1,5
 418 553 418 553 418 514 c 2,6,-1
 418 335 l 1,7,-1
 444 335 l 2,8,9
 469 335 469 335 469 314 c 0,10,11
 469 296 469 296 444 296 c 2,12,-1
 379 296 l 1,13,-1
 379 323 l 1,14,15
 323 292 323 292 266 293 c 0,16,17
 220 293 220 293 191.5 316 c 128,-1,18
 163 339 163 339 163 376 c 0,19,20
 163 421 163 421 202.5 449 c 128,-1,21
 242 477 242 477 302 477 c 0,22,23
 332 477 332 477 379 468 c 1,24,-1
 379 514 l 2,25,26
 379 537 379 537 360 550 c 128,-1,27
 341 563 341 563 310 563 c 0,28,29
 287 563 287 563 252.5 551 c 128,-1,30
 218 539 218 539 216 539 c 0,31,32
 209 539 209 539 204 545 c 128,-1,33
 199 551 199 551 199 559 c 0,0,1
379 367 m 1,34,-1
 379 429 l 1,35,36
 348 440 348 440 304 440 c 0,37,38
 259 440 259 440 230.5 421 c 128,-1,39
 202 402 202 402 202 374 c 0,40,41
 202 356 202 356 219.5 344 c 128,-1,42
 237 332 237 332 266 332 c 0,43,44
 325 331 325 331 379 367 c 1,34,-1
EndSplineSet
Validated: 33
EndChar

StartChar: guillemotleft
Encoding: 171 171 109
Width: 628
GlyphClass: 2
Flags: W
LayerCount: 2
Fore
SplineSet
67 219 m 1,0,-1
 285 426 l 2,1,2
 296 437 296 437 306 437 c 0,3,4
 314 437 314 437 320.5 431 c 128,-1,5
 327 425 327 425 327 416.5 c 128,-1,6
 327 408 327 408 315 395 c 2,7,-1
 166 219 l 1,8,-1
 315 42 l 2,9,10
 326 30 326 30 326.5 21 c 128,-1,11
 327 12 327 12 320.5 6 c 128,-1,12
 314 0 314 0 306 0 c 128,-1,13
 298 0 298 0 285 11 c 2,14,-1
 67 219 l 1,0,-1
306 219 m 1,15,-1
 524 426 l 2,16,17
 535 437 535 437 547 437 c 0,18,19
 555 437 555 437 561 431 c 128,-1,20
 567 425 567 425 567 416.5 c 128,-1,21
 567 408 567 408 556 395 c 2,22,-1
 406 219 l 1,23,-1
 556 42 l 2,24,25
 567 30 567 30 567 21 c 128,-1,26
 567 12 567 12 561 6 c 128,-1,27
 555 0 555 0 546.5 0 c 128,-1,28
 538 0 538 0 524 11 c 2,29,-1
 306 219 l 1,15,-1
EndSplineSet
Validated: 1
EndChar

StartChar: logicalnot
Encoding: 172 172 110
Width: 628
GlyphClass: 2
Flags: W
LayerCount: 2
Fore
SplineSet
511 417 m 1,0,-1
 103 417 l 2,1,2
 74 417 74 417 76 438 c 0,3,4
 76 458 76 458 103 460 c 2,5,-1
 554 460 l 1,6,-1
 554 205 l 2,7,8
 554 176 554 176 531 176 c 0,9,10
 511 176 511 176 511 205 c 2,11,-1
 511 417 l 1,0,-1
EndSplineSet
Validated: 33
EndChar

StartChar: registered
Encoding: 174 174 112
Width: 628
GlyphClass: 2
Flags: W
LayerCount: 2
Fore
SplineSet
245 270 m 1,0,-1
 245 164 l 1,1,-1
 282 164 l 2,2,3
 302 164 302 164 302.5 145 c 128,-1,4
 303 126 303 126 282 126 c 2,5,-1
 181 126 l 2,6,7
 158 126 158 126 159 145 c 128,-1,8
 160 164 160 164 181 164 c 2,9,-1
 207 164 l 1,10,-1
 207 427 l 1,11,-1
 181 427 l 2,12,13
 158 427 158 427 159 446 c 128,-1,14
 160 465 160 465 181 465 c 2,15,-1
 326 465 l 2,16,17
 374 465 374 465 405 437.5 c 128,-1,18
 436 410 436 410 436 367 c 0,19,20
 436 337 436 337 416 314.5 c 128,-1,21
 396 292 396 292 362 282 c 1,22,23
 389 263 389 263 404.5 241.5 c 128,-1,24
 420 220 420 220 452 164 c 1,25,-1
 468 164 l 2,26,27
 488 164 488 164 488 145 c 128,-1,28
 488 126 488 126 468 126 c 2,29,-1
 427 126 l 1,30,31
 368 251 368 251 310 270 c 1,32,-1
 245 270 l 1,0,-1
245 308 m 1,33,-1
 303 308 l 2,34,35
 347 308 347 308 372.5 324.5 c 128,-1,36
 398 341 398 341 398 369 c 0,37,38
 398 395 398 395 377.5 411 c 128,-1,39
 357 427 357 427 325 427 c 2,40,-1
 245 427 l 1,41,-1
 245 308 l 1,33,-1
314 606 m 0,42,43
 442 606 442 606 533.5 515 c 128,-1,44
 625 424 625 424 625 296 c 0,45,46
 625 165 625 165 533.5 75 c 128,-1,47
 442 -15 442 -15 310 -15 c 0,48,49
 184 -15 184 -15 93.5 76.5 c 128,-1,50
 3 168 3 168 3 296 c 128,-1,51
 3 424 3 424 94 515 c 128,-1,52
 185 606 185 606 314 606 c 0,42,43
314 563 m 0,53,54
 202 563 202 563 124 485 c 128,-1,55
 46 407 46 407 46 296 c 0,56,57
 46 185 46 185 124.5 106.5 c 128,-1,58
 203 28 203 28 310 28 c 0,59,60
 425 28 425 28 503.5 105.5 c 128,-1,61
 582 183 582 183 582 296 c 0,62,63
 582 407 582 407 503.5 485 c 128,-1,64
 425 563 425 563 314 563 c 0,53,54
EndSplineSet
Validated: 1
EndChar

StartChar: macron
Encoding: 175 175 113
Width: 628
GlyphClass: 2
Flags: W
LayerCount: 2
Fore
SplineSet
438 562 m 2,0,-1
 190 562 l 2,1,2
 161 562 161 562 162 583 c 128,-1,3
 163 604 163 604 190 604 c 2,4,-1
 438 604 l 2,5,6
 467 604 467 604 467 583 c 128,-1,7
 467 562 467 562 438 562 c 2,0,-1
EndSplineSet
Validated: 33
EndChar

StartChar: degree
Encoding: 176 176 114
Width: 628
GlyphClass: 2
Flags: W
LayerCount: 2
Fore
SplineSet
314 667 m 0,0,1
 376 667 376 667 421.5 622.5 c 128,-1,2
 467 578 467 578 467 515 c 128,-1,3
 467 452 467 452 422.5 407 c 128,-1,4
 378 362 378 362 314 362 c 0,5,6
 251 362 251 362 207 407 c 128,-1,7
 163 452 163 452 163 517 c 0,8,9
 163 577 163 577 208 622 c 128,-1,10
 253 667 253 667 314 667 c 0,0,1
314 624 m 128,-1,12
 269 624 269 624 237.5 592 c 128,-1,13
 206 560 206 560 206 516 c 0,14,15
 206 470 206 470 237.5 438 c 128,-1,16
 269 406 269 406 314 406 c 128,-1,17
 359 406 359 406 391.5 438 c 128,-1,18
 424 470 424 470 424 515 c 128,-1,19
 424 560 424 560 391.5 592 c 128,-1,11
 359 624 359 624 314 624 c 128,-1,12
EndSplineSet
Validated: 1
EndChar

StartChar: plusminus
Encoding: 177 177 115
Width: 628
GlyphClass: 2
Flags: W
LayerCount: 2
Fore
SplineSet
336 315 m 1,0,-1
 336 145 l 2,1,2
 336 116 336 116 314 118 c 0,3,4
 291 118 291 118 293 145 c 2,5,-1
 293 315 l 1,6,-1
 103 315 l 2,7,8
 74 315 74 315 75 336 c 128,-1,9
 76 357 76 357 103 357 c 2,10,-1
 293 357 l 1,11,-1
 293 526 l 2,12,13
 293 555 293 555 314 555 c 0,14,15
 334 555 334 555 336 526 c 2,16,-1
 336 357 l 1,17,-1
 524 357 l 2,18,19
 554 357 554 357 554 336 c 128,-1,20
 554 315 554 315 524 315 c 2,21,-1
 336 315 l 1,0,-1
103 42 m 2,22,-1
 525 42 l 2,23,24
 554 42 554 42 554 21 c 128,-1,25
 554 0 554 0 525 0 c 2,26,-1
 103 0 l 2,27,28
 74 0 74 0 74 21 c 128,-1,29
 74 42 74 42 103 42 c 2,22,-1
EndSplineSet
Validated: 33
EndChar

StartChar: twosuperior
Encoding: 178 178 116
Width: 628
GlyphClass: 2
Flags: W
LayerCount: 2
Fore
SplineSet
195 551 m 0,0,1
 195 579 195 579 228.5 610.5 c 128,-1,2
 262 642 262 642 309 642 c 0,3,4
 354 642 354 642 388.5 610.5 c 128,-1,5
 423 579 423 579 423 536 c 0,6,7
 423 502 423 502 391.5 466 c 128,-1,8
 360 430 360 430 229 309 c 1,9,-1
 387 309 l 1,10,-1
 387 312 l 2,11,12
 387 332 387 332 406 333 c 128,-1,13
 425 334 425 334 425 312 c 2,14,-1
 425 271 l 1,15,-1
 183 271 l 1,16,-1
 183 316 l 1,17,-1
 322 445 l 2,18,19
 362 485 362 485 373.5 502 c 128,-1,20
 385 519 385 519 385 536 c 0,21,22
 385 564 385 564 362.5 584 c 128,-1,23
 340 604 340 604 309 604 c 0,24,25
 281 604 281 604 260 588.5 c 128,-1,26
 239 573 239 573 231 550 c 0,27,28
 227 534 227 534 213 532 c 0,29,30
 206 532 206 532 200.5 538 c 128,-1,31
 195 544 195 544 195 551 c 0,0,1
EndSplineSet
Validated: 1
EndChar

StartChar: threesuperior
Encoding: 179 179 117
Width: 628
GlyphClass: 2
Flags: W
LayerCount: 2
Fore
SplineSet
314 604 m 0,0,1
 291 604 291 604 275 598 c 128,-1,2
 259 592 259 592 252.5 585 c 128,-1,3
 246 578 246 578 238.5 571.5 c 128,-1,4
 231 565 231 565 225 565 c 0,5,6
 218 565 218 565 212.5 570 c 128,-1,7
 207 575 207 575 207 583 c 0,8,9
 207 602 207 602 243 622 c 128,-1,10
 279 642 279 642 314 642 c 0,11,12
 360 642 360 642 392 614 c 128,-1,13
 424 586 424 586 424 545 c 0,14,15
 424 500 424 500 376 468 c 1,16,17
 436 430 436 430 436 376 c 0,18,19
 436 330 436 330 398.5 296.5 c 128,-1,20
 361 263 361 263 309 263 c 0,21,22
 270 263 270 263 229.5 282 c 128,-1,23
 189 301 189 301 189 318 c 0,24,25
 189 325 189 325 195 331 c 128,-1,26
 201 337 201 337 208 337 c 0,27,28
 211 337 211 337 241 319 c 128,-1,29
 271 301 271 301 309 301 c 0,30,31
 345 301 345 301 371.5 323 c 128,-1,32
 398 345 398 345 398 376 c 0,33,34
 398 408 398 408 371 429.5 c 128,-1,35
 344 451 344 451 302 452 c 0,36,37
 279 454 279 454 280 471 c 0,38,39
 280 482 280 482 288.5 485.5 c 128,-1,40
 297 489 297 489 318 489 c 0,41,42
 348 489 348 489 367 505 c 128,-1,43
 386 521 386 521 386 545 c 0,44,45
 386 571 386 571 365.5 587.5 c 128,-1,46
 345 604 345 604 314 604 c 0,0,1
EndSplineSet
Validated: 1
EndChar

StartChar: acute
Encoding: 180 180 118
Width: 628
GlyphClass: 2
Flags: W
LayerCount: 2
Fore
SplineSet
454 628 m 2,0,-1
 335 523 l 2,1,2
 323 514 323 514 314 514 c 0,3,4
 306 514 306 514 300 520 c 128,-1,5
 294 526 294 526 294 536 c 0,6,7
 294 544 294 544 306 556 c 2,8,-1
 426 660 l 2,9,10
 438 669 438 669 445 670 c 0,11,12
 453 670 453 670 460 663.5 c 128,-1,13
 467 657 467 657 467 648 c 0,14,15
 466 639 466 639 454 628 c 2,0,-1
EndSplineSet
Validated: 1
EndChar

StartChar: micro
Encoding: 181 181 119
Width: 628
GlyphClass: 2
Flags: W
LayerCount: 2
Fore
SplineSet
173 16 m 1,0,-1
 173 -181 l 2,1,2
 173 -210 173 -210 151 -210 c 0,3,4
 131 -210 131 -210 130 -181 c 2,5,-1
 130 395 l 1,6,-1
 74 395 l 2,7,8
 45 395 45 395 45 416 c 128,-1,9
 45 437 45 437 74 437 c 2,10,-1
 173 437 l 1,11,-1
 173 121 l 2,12,13
 173 78 173 78 199.5 52 c 128,-1,14
 226 26 226 26 268 26 c 0,15,16
 373 26 373 26 461 121 c 1,17,-1
 461 395 l 1,18,-1
 383 395 l 2,19,20
 353 395 353 395 353 416 c 128,-1,21
 353 437 353 437 383 437 c 2,22,-1
 504 437 l 1,23,-1
 504 42 l 1,24,-1
 539 42 l 2,25,26
 568 42 568 42 567.5 21 c 128,-1,27
 567 0 567 0 539 0 c 2,28,-1
 461 0 l 1,29,-1
 461 61 l 1,30,31
 377 -18 377 -18 270 -16 c 0,32,33
 211 -18 211 -18 173 16 c 1,0,-1
EndSplineSet
Validated: 33
EndChar

StartChar: paragraph
Encoding: 182 182 120
Width: 628
GlyphClass: 2
Flags: W
LayerCount: 2
Fore
SplineSet
298 272 m 1,0,1
 202 278 202 278 142.5 320 c 128,-1,2
 83 362 83 362 83 426 c 2,3,-1
 83 475 l 2,4,5
 83 546 83 546 146.5 589.5 c 128,-1,6
 210 633 210 633 312 633 c 2,7,-1
 522 633 l 2,8,9
 549 633 549 633 549 612 c 0,10,11
 549 589 549 589 522 591 c 2,12,-1
 458 591 l 1,13,-1
 458 -23 l 1,14,-1
 523 -23 l 2,15,16
 551 -23 551 -23 551 -43 c 0,17,18
 551 -66 551 -66 523 -65 c 2,19,-1
 421 -65 l 2,20,21
 394 -65 394 -65 394 -43 c 0,22,23
 394 -25 394 -25 417 -23 c 1,24,-1
 417 591 l 1,25,-1
 341 591 l 1,26,-1
 341 -23 l 1,27,28
 364 -25 364 -25 362 -43 c 0,29,30
 362 -66 362 -66 337 -65 c 2,31,-1
 196 -65 l 2,32,33
 168 -65 168 -65 169 -43 c 0,34,35
 169 -23 169 -23 196 -23 c 2,36,-1
 298 -23 l 1,37,-1
 298 272 l 1,0,1
298 322 m 1,38,-1
 298 585 l 1,39,40
 238 579 238 579 197.5 547 c 128,-1,41
 157 515 157 515 157 473 c 2,42,-1
 157 434 l 2,43,44
 157 392 157 392 197.5 360 c 128,-1,45
 238 328 238 328 298 322 c 1,38,-1
EndSplineSet
Validated: 33
EndChar

StartChar: middot
Encoding: 183 183 121
Width: 628
GlyphClass: 2
Flags: W
LayerCount: 2
Fore
SplineSet
314 294 m 0,0,1
 337 294 337 294 352 278 c 128,-1,2
 367 262 367 262 367 240 c 0,3,4
 367 220 367 220 351.5 204 c 128,-1,5
 336 188 336 188 315 188 c 128,-1,6
 294 188 294 188 278 204 c 128,-1,7
 262 220 262 220 262 241 c 128,-1,8
 262 262 262 262 278 278 c 128,-1,9
 294 294 294 294 314 294 c 0,0,1
EndSplineSet
Validated: 1
EndChar

StartChar: cedilla
Encoding: 184 184 122
Width: 628
GlyphClass: 2
Flags: W
LayerCount: 2
Fore
SplineSet
242 -120 m 0,0,1
 246 -120 246 -120 269 -130.5 c 128,-1,2
 292 -141 292 -141 310 -141 c 0,3,4
 329 -141 329 -141 342.5 -133 c 128,-1,5
 356 -125 356 -125 356 -112 c 0,6,7
 356 -85 356 -85 308 -85 c 2,8,-1
 288 -85 l 1,9,-1
 288 0 l 1,10,-1
 327 0 l 1,11,-1
 327 -49 l 1,12,13
 396 -51 396 -51 395 -114 c 0,14,15
 395 -145 395 -145 372 -163 c 128,-1,16
 349 -181 349 -181 312 -181 c 0,17,18
 284 -181 284 -181 252 -169.5 c 128,-1,19
 220 -158 220 -158 220 -139 c 0,20,21
 220 -131 220 -131 227 -125.5 c 128,-1,22
 234 -120 234 -120 242 -120 c 0,0,1
EndSplineSet
Validated: 33
EndChar

StartChar: onesuperior
Encoding: 185 185 123
Width: 628
GlyphClass: 2
Flags: W
LayerCount: 2
Fore
SplineSet
335 638 m 1,0,-1
 335 305 l 1,1,-1
 409 305 l 2,2,3
 429 305 429 305 429.5 286 c 128,-1,4
 430 267 430 267 409 267 c 2,5,-1
 222 267 l 2,6,7
 199 267 199 267 201 287 c 0,8,9
 201 306 201 306 232 306 c 0,10,11
 273 306 273 306 297 305 c 1,12,-1
 297 586 l 1,13,-1
 228 564 l 2,14,15
 220 562 220 562 219 562 c 0,16,17
 213 562 213 562 207.5 567.5 c 128,-1,18
 202 573 202 573 202 581 c 0,19,20
 202 592 202 592 219 599.5 c 128,-1,21
 236 607 236 607 335 638 c 1,0,-1
EndSplineSet
Validated: 1
EndChar

StartChar: ordmasculine
Encoding: 186 186 124
Width: 628
GlyphClass: 2
Flags: W
LayerCount: 2
Fore
SplineSet
315 605 m 0,0,1
 380 605 380 605 425 560 c 128,-1,2
 470 515 470 515 470 450 c 0,3,4
 470 389 470 389 424.5 343.5 c 128,-1,5
 379 298 379 298 315 298 c 0,6,7
 252 298 252 298 207 343 c 128,-1,8
 162 388 162 388 162 452 c 0,9,10
 162 514 162 514 207 559.5 c 128,-1,11
 252 605 252 605 315 605 c 0,0,1
315.5 566 m 128,-1,13
 267 566 267 566 234 532.5 c 128,-1,14
 201 499 201 499 201 452 c 0,15,16
 201 404 201 404 234.5 370.5 c 128,-1,17
 268 337 268 337 315 337 c 128,-1,18
 362 337 362 337 396.5 370 c 128,-1,19
 431 403 431 403 431 450 c 0,20,21
 431 499 431 499 397.5 532.5 c 128,-1,12
 364 566 364 566 315.5 566 c 128,-1,13
EndSplineSet
Validated: 1
EndChar

StartChar: guillemotright
Encoding: 187 187 125
Width: 628
GlyphClass: 2
Flags: W
LayerCount: 2
Fore
SplineSet
326 218 m 1,0,-1
 109 11 l 2,1,2
 98 0 98 0 87 0 c 0,3,4
 79 0 79 0 73 6 c 128,-1,5
 67 12 67 12 67 21 c 128,-1,6
 67 30 67 30 78 42 c 2,7,-1
 226 218 l 1,8,-1
 78 395 l 2,9,10
 67 407 67 407 67 416 c 128,-1,11
 67 425 67 425 73 431 c 128,-1,12
 79 437 79 437 87 437 c 128,-1,13
 95 437 95 437 109 426 c 2,14,-1
 326 218 l 1,0,-1
567 218 m 1,15,-1
 350 11 l 2,16,17
 339 0 339 0 329 0 c 0,18,19
 321 0 321 0 314 6 c 128,-1,20
 307 12 307 12 307 21 c 128,-1,21
 307 30 307 30 318 42 c 2,22,-1
 468 218 l 1,23,-1
 318 395 l 2,24,25
 307 407 307 407 307 416 c 128,-1,26
 307 425 307 425 313 431 c 128,-1,27
 319 437 319 437 328 437 c 128,-1,28
 337 437 337 437 350 426 c 2,29,-1
 567 218 l 1,15,-1
EndSplineSet
Validated: 1
EndChar

StartChar: onequarter
Encoding: 188 188 126
Width: 628
GlyphClass: 2
Flags: W
LayerCount: 2
Fore
SplineSet
151 642 m 1,0,-1
 151 309 l 1,1,-1
 225 309 l 2,2,3
 248 309 248 309 248 290 c 128,-1,4
 248 271 248 271 225 271 c 2,5,-1
 39 271 l 2,6,7
 16 271 16 271 16 291 c 0,8,9
 16 310 16 310 49 310 c 0,10,11
 90 310 90 310 114 309 c 1,12,-1
 114 591 l 1,13,-1
 45 568 l 2,14,15
 37 566 37 566 36 566 c 0,16,17
 30 566 30 566 23.5 572 c 128,-1,18
 17 578 17 578 17 585 c 0,19,20
 17 596 17 596 34.5 603.5 c 128,-1,21
 52 611 52 611 151 642 c 1,0,-1
516 500 m 2,22,-1
 147 67 l 2,23,24
 137 55 137 55 129 54 c 128,-1,25
 121 53 121 53 114.5 60 c 128,-1,26
 108 67 108 67 108 75 c 0,27,28
 108 82 108 82 118 92 c 2,29,-1
 484 526 l 2,30,31
 495 538 495 538 504 539 c 0,32,33
 512 539 512 539 518 532.5 c 128,-1,34
 524 526 524 526 524 518 c 0,35,36
 524 510 524 510 516 500 c 2,22,-1
475 18 m 0,37,38
 475 30 475 30 484.5 34 c 128,-1,39
 494 38 494 38 523 38 c 2,40,-1
 535 38 l 1,41,-1
 535 97 l 1,42,-1
 379 97 l 1,43,-1
 379 133 l 1,44,-1
 513 361 l 1,45,-1
 572 361 l 1,46,-1
 572 135 l 1,47,-1
 586 135 l 2,48,49
 609 135 609 135 608.5 116 c 128,-1,50
 608 97 608 97 582 97 c 2,51,-1
 572 97 l 1,52,-1
 572 38 l 1,53,-1
 586 38 l 2,54,55
 609 38 609 38 608.5 19 c 128,-1,56
 608 0 608 0 586 0 c 2,57,-1
 497 0 l 2,58,59
 475 0 475 0 475 18 c 0,37,38
535 135 m 1,60,-1
 535 324 l 1,61,-1
 532 324 l 1,62,-1
 421 135 l 1,63,-1
 535 135 l 1,60,-1
EndSplineSet
Validated: 1
EndChar

StartChar: onehalf
Encoding: 189 189 127
Width: 628
GlyphClass: 2
Flags: W
LayerCount: 2
Fore
SplineSet
509 500 m 2,0,-1
 140 67 l 2,1,2
 130 55 130 55 122 54 c 128,-1,3
 114 53 114 53 107 60 c 128,-1,4
 100 67 100 67 100 75 c 0,5,6
 100 82 100 82 111 92 c 2,7,-1
 477 526 l 2,8,9
 488 538 488 538 496 539 c 0,10,11
 504 539 504 539 510.5 532.5 c 128,-1,12
 517 526 517 526 517 518 c 0,13,14
 517 510 517 510 509 500 c 2,0,-1
159 642 m 1,15,-1
 159 309 l 1,16,-1
 232 309 l 2,17,18
 252 309 252 309 253 290 c 128,-1,19
 254 271 254 271 232 271 c 2,20,-1
 46 271 l 2,21,22
 23 271 23 271 25 291 c 0,23,24
 25 310 25 310 56 310 c 0,25,26
 97 310 97 310 121 309 c 1,27,-1
 121 591 l 1,28,-1
 52 568 l 2,29,30
 44 566 44 566 43 566 c 0,31,32
 37 566 37 566 31.5 572 c 128,-1,33
 26 578 26 578 26 585 c 0,34,35
 26 596 26 596 43 603.5 c 128,-1,36
 60 611 60 611 159 642 c 1,15,-1
371 279 m 0,37,38
 371 307 371 307 404.5 338.5 c 128,-1,39
 438 370 438 370 485 370 c 0,40,41
 530 370 530 370 564.5 338.5 c 128,-1,42
 599 307 599 307 599 264 c 0,43,44
 599 230 599 230 568 194.5 c 128,-1,45
 537 159 537 159 406 38 c 1,46,-1
 563 38 l 1,47,-1
 563 41 l 2,48,49
 563 61 563 61 582 61 c 128,-1,50
 601 61 601 61 601 41 c 2,51,-1
 601 0 l 1,52,-1
 359 0 l 1,53,-1
 359 45 l 1,54,-1
 498 174 l 2,55,56
 538 214 538 214 549.5 231 c 128,-1,57
 561 248 561 248 561 264 c 0,58,59
 561 292 561 292 538.5 312.5 c 128,-1,60
 516 333 516 333 485 333 c 0,61,62
 457 333 457 333 436.5 317.5 c 128,-1,63
 416 302 416 302 408 278 c 0,64,65
 404 262 404 262 389 261 c 0,66,67
 382 261 382 261 376.5 266.5 c 128,-1,68
 371 272 371 272 371 279 c 0,37,38
EndSplineSet
Validated: 1
EndChar

StartChar: threequarters
Encoding: 190 190 128
Width: 628
GlyphClass: 2
Flags: W
LayerCount: 2
Fore
SplineSet
131 604 m 0,0,1
 108 604 108 604 92 598 c 128,-1,2
 76 592 76 592 68.5 585 c 128,-1,3
 61 578 61 578 54.5 571.5 c 128,-1,4
 48 565 48 565 42 565 c 0,5,6
 35 565 35 565 29.5 570 c 128,-1,7
 24 575 24 575 24 583 c 0,8,9
 24 602 24 602 59.5 622 c 128,-1,10
 95 642 95 642 131 642 c 0,11,12
 177 642 177 642 208.5 614 c 128,-1,13
 240 586 240 586 240 545 c 0,14,15
 240 500 240 500 191 468 c 1,16,17
 251 430 251 430 253 376 c 0,18,19
 253 330 253 330 215.5 296.5 c 128,-1,20
 178 263 178 263 126 263 c 0,21,22
 87 263 87 263 46.5 282 c 128,-1,23
 6 301 6 301 6 318 c 0,24,25
 6 325 6 325 11 331 c 128,-1,26
 16 337 16 337 25 337 c 0,27,28
 28 337 28 337 58 319 c 128,-1,29
 88 301 88 301 126 301 c 0,30,31
 162 301 162 301 188.5 323 c 128,-1,32
 215 345 215 345 215 376 c 0,33,34
 215 408 215 408 188 429.5 c 128,-1,35
 161 451 161 451 119 452 c 0,36,37
 96 454 96 454 96 471 c 0,38,39
 96 482 96 482 105 485.5 c 128,-1,40
 114 489 114 489 135 489 c 0,41,42
 165 489 165 489 184 505 c 128,-1,43
 203 521 203 521 203 545 c 0,44,45
 203 571 203 571 182.5 587.5 c 128,-1,46
 162 604 162 604 131 604 c 0,0,1
515 500 m 2,47,-1
 146 67 l 2,48,49
 136 55 136 55 128 54 c 128,-1,50
 120 53 120 53 113 60 c 128,-1,51
 106 67 106 67 106 75 c 0,52,53
 106 82 106 82 117 92 c 2,54,-1
 483 526 l 2,55,56
 494 538 494 538 502 539 c 0,57,58
 510 539 510 539 516.5 532.5 c 128,-1,59
 523 526 523 526 523 518 c 0,60,61
 523 510 523 510 515 500 c 2,47,-1
475 18 m 0,62,63
 475 30 475 30 484.5 34 c 128,-1,64
 494 38 494 38 523 38 c 2,65,-1
 535 38 l 1,66,-1
 535 97 l 1,67,-1
 379 97 l 1,68,-1
 379 133 l 1,69,-1
 513 361 l 1,70,-1
 572 361 l 1,71,-1
 572 135 l 1,72,-1
 586 135 l 2,73,74
 609 135 609 135 608.5 116 c 128,-1,75
 608 97 608 97 582 97 c 2,76,-1
 572 97 l 1,77,-1
 572 38 l 1,78,-1
 586 38 l 2,79,80
 609 38 609 38 608.5 19 c 128,-1,81
 608 0 608 0 586 0 c 2,82,-1
 497 0 l 2,83,84
 475 0 475 0 475 18 c 0,62,63
535 135 m 1,85,-1
 535 324 l 1,86,-1
 532 324 l 1,87,-1
 421 135 l 1,88,-1
 535 135 l 1,85,-1
EndSplineSet
Validated: 1
EndChar

StartChar: questiondown
Encoding: 191 191 129
Width: 628
GlyphClass: 2
Flags: W
LayerCount: 2
Fore
SplineSet
488 -132 m 1,0,1
 385 -183 385 -183 305 -183 c 0,2,3
 221 -183 221 -183 170 -138.5 c 128,-1,4
 119 -94 119 -94 119 -23 c 0,5,6
 119 35 119 35 156 76 c 128,-1,7
 193 117 193 117 292 163 c 1,8,-1
 292 206 l 2,9,10
 292 235 292 235 312 233 c 0,11,12
 335 233 335 233 335 206 c 2,13,-1
 335 134 l 1,14,15
 244 96 244 96 203 60 c 128,-1,16
 162 24 162 24 162 -23 c 0,17,18
 162 -75 162 -75 204 -107.5 c 128,-1,19
 246 -140 246 -140 310 -140 c 0,20,21
 372 -140 372 -140 445 -104 c 1,22,-1
 445 -61 l 2,23,24
 445 -32 445 -32 467 -34 c 0,25,26
 490 -34 490 -34 488 -61 c 2,27,-1
 488 -132 l 1,0,1
329 333 m 2,28,-1
 300 333 l 2,29,30
 273 333 273 333 256.5 347 c 128,-1,31
 240 361 240 361 240 384.5 c 128,-1,32
 240 408 240 408 256.5 422.5 c 128,-1,33
 273 437 273 437 300 437 c 2,34,-1
 329 437 l 2,35,36
 357 437 357 437 372.5 422.5 c 128,-1,37
 388 408 388 408 388 384.5 c 128,-1,38
 388 361 388 361 372.5 347 c 128,-1,39
 357 333 357 333 329 333 c 2,28,-1
EndSplineSet
Validated: 33
EndChar

StartChar: AE
Encoding: 198 198 136
Width: 628
GlyphClass: 2
Flags: W
LayerCount: 2
Fore
SplineSet
311 199 m 1,0,-1
 164 199 l 1,1,-1
 121 43 l 1,2,-1
 147 43 l 2,3,4
 176 43 176 43 176 23 c 0,5,6
 176 0 176 0 147 0 c 2,7,-1
 39 0 l 2,8,9
 10 0 10 0 10 23 c 0,10,11
 10 43 10 43 39 43 c 2,12,-1
 78 43 l 1,13,-1
 217 548 l 1,14,-1
 151 548 l 2,15,16
 122 548 122 548 123 569 c 0,17,18
 123 589 123 589 151 591 c 2,19,-1
 598 591 l 1,20,-1
 598 431 l 2,21,22
 598 402 598 402 575 402 c 0,23,24
 555 402 555 402 555 431 c 2,25,-1
 555 548 l 1,26,-1
 354 548 l 1,27,-1
 354 330 l 1,28,-1
 436 330 l 1,29,-1
 436 358 l 2,30,31
 436 387 436 387 457 387 c 128,-1,32
 478 387 478 387 478 358 c 2,33,-1
 478 258 l 2,34,35
 478 229 478 229 457 229 c 128,-1,36
 436 229 436 229 436 258 c 2,37,-1
 436 287 l 1,38,-1
 354 287 l 1,39,-1
 354 43 l 1,40,-1
 575 43 l 1,41,-1
 575 140 l 2,42,43
 575 168 575 168 597 168 c 0,44,45
 620 168 620 168 618 140 c 2,46,-1
 618 0 l 1,47,-1
 257 0 l 2,48,49
 228 0 228 0 228 23 c 0,50,51
 228 43 228 43 257 43 c 2,52,-1
 311 43 l 1,53,-1
 311 199 l 1,0,-1
311 242 m 1,54,-1
 311 548 l 1,55,-1
 259 548 l 1,56,-1
 175 242 l 1,57,-1
 311 242 l 1,54,-1
EndSplineSet
Validated: 33
EndChar

StartChar: Ccedilla
Encoding: 199 199 137
Width: 628
GlyphClass: 2
Flags: W
LayerCount: 2
Fore
SplineSet
67 341 m 2,0,1
 67 360 67 360 72.5 389.5 c 128,-1,2
 78 419 78 419 96 457.5 c 128,-1,3
 114 496 114 496 140 527.5 c 128,-1,4
 166 559 166 559 213 581.5 c 128,-1,5
 260 604 260 604 319 604 c 0,6,7
 424 604 424 604 501 531 c 1,8,-1
 501 562 l 2,9,10
 501 591 501 591 523 591 c 0,11,12
 543 591 543 591 544 562 c 2,13,-1
 544 444 l 2,14,15
 544 415 544 415 522 417 c 0,16,17
 504 417 504 417 501 441 c 0,18,19
 498 489 498 489 444 525 c 128,-1,20
 390 561 390 561 319 561 c 0,21,22
 232 561 232 561 170.5 494.5 c 128,-1,23
 109 428 109 428 109 335 c 2,24,-1
 109 260 l 2,25,26
 109 166 109 166 177.5 96.5 c 128,-1,27
 246 27 246 27 338 27 c 0,28,29
 392 27 392 27 435 49 c 128,-1,30
 478 71 478 71 520 121 c 0,31,32
 529 131 529 131 539 131 c 0,33,34
 559 131 559 131 560 112 c 0,35,36
 560 96 560 96 520 57 c 0,37,38
 483 23 483 23 436 3.5 c 128,-1,39
 389 -16 389 -16 346 -16 c 2,40,-1
 333 -16 l 1,41,-1
 333 -49 l 1,42,43
 402 -51 402 -51 400 -114 c 0,44,45
 400 -145 400 -145 377 -163 c 128,-1,46
 354 -181 354 -181 317 -181 c 0,47,48
 289 -181 289 -181 257 -169.5 c 128,-1,49
 225 -158 225 -158 225 -139 c 0,50,51
 225 -131 225 -131 231.5 -125.5 c 128,-1,52
 238 -120 238 -120 247 -120 c 0,53,54
 251 -120 251 -120 274 -130.5 c 128,-1,55
 297 -141 297 -141 315 -141 c 0,56,57
 334 -141 334 -141 347.5 -133 c 128,-1,58
 361 -125 361 -125 361 -112 c 0,59,60
 361 -85 361 -85 313 -85 c 2,61,-1
 293 -85 l 1,62,-1
 293 -12 l 1,63,64
 179 17 179 17 123 95 c 128,-1,65
 67 173 67 173 67 254 c 2,66,-1
 67 341 l 2,0,1
EndSplineSet
Validated: 33
EndChar

StartChar: Eth
Encoding: 208 208 146
Width: 628
GlyphClass: 2
Flags: W
LayerCount: 2
Fore
SplineSet
109 286 m 1,0,-1
 29 286 l 2,1,2
 0 286 0 286 0 307 c 0,3,4
 0 327 0 327 29 329 c 2,5,-1
 109 329 l 1,6,-1
 109 548 l 1,7,-1
 74 548 l 2,8,9
 45 548 45 548 45 569 c 0,10,11
 45 589 45 589 74 591 c 2,12,-1
 304 591 l 2,13,14
 402 591 402 591 473.5 512.5 c 128,-1,15
 545 434 545 434 545 325 c 2,16,-1
 545 266 l 2,17,18
 545 157 545 157 473.5 78.5 c 128,-1,19
 402 0 402 0 304 0 c 2,20,-1
 74 0 l 2,21,22
 45 0 45 0 45 23 c 0,23,24
 45 43 45 43 74 43 c 2,25,-1
 109 43 l 1,26,-1
 109 286 l 1,0,-1
502 335 m 2,27,28
 502 350 502 350 497 373 c 128,-1,29
 492 396 492 396 478 428 c 128,-1,30
 464 460 464 460 442.5 485.5 c 128,-1,31
 421 511 421 511 384 529.5 c 128,-1,32
 347 548 347 548 302 548 c 2,33,-1
 152 548 l 1,34,-1
 152 329 l 1,35,-1
 322 329 l 2,36,37
 351 329 351 329 350 307 c 0,38,39
 350 284 350 284 322 286 c 2,40,-1
 152 286 l 1,41,-1
 152 43 l 1,42,-1
 309 43 l 2,43,44
 384 43 384 43 443 108.5 c 128,-1,45
 502 174 502 174 502 257 c 2,46,-1
 502 335 l 2,27,28
EndSplineSet
Validated: 33
EndChar

StartChar: multiply
Encoding: 215 215 153
Width: 628
GlyphClass: 2
Flags: W
LayerCount: 2
Fore
SplineSet
314 326 m 1,0,-1
 464 475 l 2,1,2
 475 486 475 486 483.5 486 c 128,-1,3
 492 486 492 486 499 480 c 128,-1,4
 506 474 506 474 506 465 c 0,5,6
 506 457 506 457 494 444 c 2,7,-1
 345 296 l 1,8,-1
 494 145 l 2,9,10
 505 135 505 135 506 126 c 0,11,12
 506 118 506 118 499.5 111 c 128,-1,13
 493 104 493 104 483.5 104 c 128,-1,14
 474 104 474 104 464 116 c 2,15,-1
 314 265 l 1,16,-1
 166 116 l 2,17,18
 155 106 155 106 145 104 c 0,19,20
 136 104 136 104 130 111 c 128,-1,21
 124 118 124 118 124 126 c 0,22,23
 124 135 124 135 134 145 c 2,24,-1
 285 296 l 1,25,-1
 134 444 l 2,26,27
 124 455 124 455 124 465 c 0,28,29
 124 474 124 474 130 480 c 128,-1,30
 136 486 136 486 145 486 c 0,31,32
 152 486 152 486 165 475 c 2,33,-1
 314 326 l 1,0,-1
EndSplineSet
Validated: 1
EndChar

StartChar: Oslash
Encoding: 216 216 154
Width: 628
GlyphClass: 2
Flags: W
LayerCount: 2
Fore
SplineSet
147 53 m 1,0,-1
 80 -33 l 2,1,2
 71 -45 71 -45 60 -45 c 0,3,4
 52 -45 52 -45 47 -39.5 c 128,-1,5
 42 -34 42 -34 42 -27 c 0,6,7
 42 -21 42 -21 50 -9 c 2,8,-1
 123 82 l 1,9,10
 53 174 53 174 53 294 c 0,11,12
 53 424 53 424 129.5 514 c 128,-1,13
 206 604 206 604 314 604 c 0,14,15
 404 604 404 604 480 535 c 1,16,-1
 550 622 l 2,17,18
 559 634 559 634 568 635 c 0,19,20
 576 635 576 635 581.5 629 c 128,-1,21
 587 623 587 623 587 615 c 0,22,23
 587 610 587 610 579 599 c 2,24,-1
 506 507 l 1,25,26
 577 420 577 420 575 294 c 0,27,28
 575 164 575 164 499.5 74 c 128,-1,29
 424 -16 424 -16 314 -16 c 0,30,31
 220 -18 220 -18 147 53 c 1,0,-1
151 118 m 1,32,-1
 453 499 l 1,33,34
 392 560 392 560 314 561 c 0,35,36
 224 561 224 561 160 482 c 128,-1,37
 96 403 96 403 96 294 c 0,38,39
 97 199 97 199 151 118 c 1,32,-1
478 471 m 1,40,-1
 175 88 l 1,41,42
 236 27 236 27 314 27 c 0,43,44
 404 27 404 27 468 105 c 128,-1,45
 532 183 532 183 532 294 c 0,46,47
 532 392 532 392 478 471 c 1,40,-1
EndSplineSet
Validated: 33
EndChar

StartChar: Thorn
Encoding: 222 222 160
Width: 628
GlyphClass: 2
Flags: W
LayerCount: 2
Fore
SplineSet
173 117 m 1,0,-1
 173 43 l 1,1,-1
 317 43 l 2,2,3
 347 43 347 43 347 23 c 0,4,5
 347 0 347 0 317 0 c 2,6,-1
 74 0 l 2,7,8
 45 0 45 0 45 23 c 0,9,10
 45 43 45 43 74 43 c 2,11,-1
 130 43 l 1,12,-1
 130 548 l 1,13,-1
 74 548 l 2,14,15
 45 548 45 548 45 569 c 0,16,17
 45 589 45 589 74 591 c 2,18,-1
 317 591 l 2,19,20
 347 591 347 591 347 569 c 0,21,22
 347 546 347 546 317 548 c 2,23,-1
 173 548 l 1,24,-1
 173 465 l 1,25,-1
 325 465 l 2,26,27
 409 465 409 465 466 415 c 128,-1,28
 523 365 523 365 523 291.5 c 128,-1,29
 523 218 523 218 461 167.5 c 128,-1,30
 399 117 399 117 310 117 c 2,31,-1
 173 117 l 1,0,-1
173 160 m 1,32,-1
 313 160 l 2,33,34
 382 160 382 160 431 198.5 c 128,-1,35
 480 237 480 237 480 292 c 0,36,37
 480 345 480 345 435.5 383.5 c 128,-1,38
 391 422 391 422 330 422 c 2,39,-1
 173 422 l 1,40,-1
 173 160 l 1,32,-1
EndSplineSet
Validated: 33
EndChar

StartChar: germandbls
Encoding: 223 223 161
Width: 628
GlyphClass: 2
Flags: W
LayerCount: 2
Fore
SplineSet
478 170 m 0,0,1
 478 220 478 220 455 258 c 128,-1,2
 432 296 432 296 398 315 c 128,-1,3
 364 334 364 334 334 342 c 128,-1,4
 304 350 304 350 282 350 c 2,5,-1
 276 350 l 2,6,7
 247 350 247 350 249 373 c 0,8,9
 249 393 249 393 272 393 c 2,10,-1
 278 393 l 2,11,12
 318 393 318 393 348.5 419.5 c 128,-1,13
 379 446 379 446 379 481 c 0,14,15
 379 525 379 525 344 558 c 128,-1,16
 309 591 309 591 263 591 c 0,17,18
 219 591 219 591 185.5 561 c 128,-1,19
 152 531 152 531 152 493 c 2,20,-1
 152 43 l 1,21,-1
 168 43 l 2,22,23
 197 43 197 43 196 23 c 0,24,25
 196 0 196 0 168 0 c 2,26,-1
 52 0 l 2,27,28
 23 0 23 0 25 23 c 0,29,30
 25 43 25 43 52 43 c 2,31,-1
 109 43 l 1,32,-1
 109 493 l 2,33,34
 109 548 109 548 156 590.5 c 128,-1,35
 203 633 203 633 263 633 c 0,36,37
 331 633 331 633 376.5 590 c 128,-1,38
 422 547 422 547 422 480 c 0,39,40
 422 418 422 418 360 377 c 1,41,42
 521 329 521 329 521 169 c 0,43,44
 521 81 521 81 483 32.5 c 128,-1,45
 445 -16 445 -16 378 -16 c 0,46,47
 325 -16 325 -16 288 19 c 128,-1,48
 251 54 251 54 251 105 c 0,49,50
 251 130 251 130 271 130 c 0,51,52
 282 130 282 130 290.5 113.5 c 128,-1,53
 299 97 299 97 304 77.5 c 128,-1,54
 309 58 309 58 328 42.5 c 128,-1,55
 347 27 347 27 378 27 c 0,56,57
 426 27 426 27 452 63 c 128,-1,58
 478 99 478 99 478 170 c 0,0,1
EndSplineSet
Validated: 33
EndChar

StartChar: ae
Encoding: 230 230 168
Width: 628
GlyphClass: 2
Flags: W
LayerCount: 2
Fore
SplineSet
75 396 m 0,0,1
 75 419 75 419 126 435.5 c 128,-1,2
 177 452 177 452 209 452 c 0,3,4
 248 452 248 452 280 427.5 c 128,-1,5
 312 403 312 403 327 364 c 1,6,7
 345 405 345 405 379 428.5 c 128,-1,8
 413 452 413 452 451 452 c 0,9,10
 528 452 528 452 565.5 386.5 c 128,-1,11
 603 321 603 321 605 209 c 1,12,-1
 335 209 l 1,13,14
 340 129 340 129 378 78 c 128,-1,15
 416 27 416 27 468 27 c 0,16,17
 495 27 495 27 518.5 42.5 c 128,-1,18
 542 58 542 58 559.5 74.5 c 128,-1,19
 577 91 577 91 585.5 91 c 128,-1,20
 594 91 594 91 600 85 c 128,-1,21
 606 79 606 79 606 71 c 0,22,23
 606 54 606 54 557.5 19 c 128,-1,24
 509 -16 509 -16 466 -16 c 0,25,26
 388 -16 388 -16 336 63 c 1,27,-1
 336 29 l 2,28,29
 336 0 336 0 315 0 c 128,-1,30
 294 0 294 0 294 29 c 2,31,-1
 294 54 l 1,32,33
 236 -18 236 -18 168 -17 c 128,-1,34
 100 -16 100 -16 56 28 c 128,-1,35
 12 72 12 72 12 138 c 0,36,37
 12 194 12 194 68.5 231.5 c 128,-1,38
 125 269 125 269 205 269 c 0,39,40
 248 269 248 269 294 257 c 1,41,-1
 294 319 l 2,42,43
 294 356 294 356 267 382.5 c 128,-1,44
 240 409 240 409 202 409 c 0,45,46
 164 409 164 409 131 392.5 c 128,-1,47
 98 376 98 376 94 376 c 0,48,49
 87 376 87 376 81 382.5 c 128,-1,50
 75 389 75 389 75 396 c 0,0,1
294 116 m 1,51,-1
 294 213 l 1,52,53
 248 226 248 226 211 226 c 0,54,55
 177 226 177 226 138 214 c 128,-1,56
 99 202 99 202 82 184 c 0,57,58
 59 161 59 161 59 127 c 0,59,60
 59 83 59 83 90.5 55 c 128,-1,61
 122 27 122 27 170 27 c 0,62,63
 223 27 223 27 294 116 c 1,51,-1
561 252 m 1,64,65
 557 283 557 283 553 303 c 128,-1,66
 549 323 549 323 537 351 c 128,-1,67
 525 379 525 379 503 394 c 128,-1,68
 481 409 481 409 450 409 c 0,69,70
 357 409 357 409 336 252 c 1,71,-1
 561 252 l 1,64,65
EndSplineSet
Validated: 33
EndChar

StartChar: ccedilla
Encoding: 231 231 169
Width: 628
GlyphClass: 2
Flags: W
LayerCount: 2
Fore
SplineSet
561 92 m 0,0,1
 561 85 561 85 552.5 73 c 128,-1,2
 544 61 544 61 525 47 c 128,-1,3
 506 33 506 33 480 19 c 128,-1,4
 454 5 454 5 415 -4.5 c 128,-1,5
 376 -14 376 -14 331 -16 c 1,6,-1
 331 -49 l 1,7,8
 400 -51 400 -51 398 -114 c 0,9,10
 398 -145 398 -145 375 -163 c 128,-1,11
 352 -181 352 -181 315 -181 c 0,12,13
 287 -181 287 -181 255 -169 c 128,-1,14
 223 -157 223 -157 223 -140 c 0,15,16
 223 -132 223 -132 229.5 -126 c 128,-1,17
 236 -120 236 -120 245 -120 c 0,18,19
 249 -120 249 -120 272 -130.5 c 128,-1,20
 295 -141 295 -141 313 -141 c 0,21,22
 332 -141 332 -141 345.5 -133 c 128,-1,23
 359 -125 359 -125 359 -112 c 0,24,25
 359 -85 359 -85 312 -85 c 2,26,-1
 291 -85 l 1,27,-1
 291 -14 l 1,28,29
 239 -7 239 -7 199.5 15 c 128,-1,30
 160 37 160 37 139.5 62.5 c 128,-1,31
 119 88 119 88 106.5 121 c 128,-1,32
 94 154 94 154 91 174.5 c 128,-1,33
 88 195 88 195 88 214 c 0,34,35
 88 317 88 317 156 384.5 c 128,-1,36
 224 452 224 452 330 452 c 0,37,38
 427 452 427 452 493 394 c 1,39,-1
 493 408 l 2,40,41
 493 438 493 438 515 437 c 0,42,43
 535 437 535 437 536 408 c 2,44,-1
 536 312 l 2,45,46
 536 283 536 283 515 284 c 128,-1,47
 494 285 494 285 493 309 c 0,48,49
 489 351 489 351 440.5 380 c 128,-1,50
 392 409 392 409 326 409 c 0,51,52
 239 409 239 409 185 355 c 128,-1,53
 131 301 131 301 131 215 c 0,54,55
 131 132 131 132 185.5 79.5 c 128,-1,56
 240 27 240 27 326 27 c 0,57,58
 441 27 441 27 522 101 c 0,59,60
 532 111 532 111 541 112 c 128,-1,61
 550 113 550 113 555.5 106.5 c 128,-1,62
 561 100 561 100 561 92 c 0,0,1
EndSplineSet
Validated: 33
EndChar

StartChar: eth
Encoding: 240 240 178
Width: 628
GlyphClass: 2
Flags: W
LayerCount: 2
Fore
SplineSet
291 575 m 1,0,1
 264 586 264 586 240 594.5 c 128,-1,2
 216 603 216 603 203.5 605.5 c 128,-1,3
 191 608 191 608 182 610.5 c 128,-1,4
 173 613 173 613 170 616.5 c 128,-1,5
 167 620 167 620 167 627 c 0,6,7
 167 637 167 637 173 643.5 c 128,-1,8
 179 650 179 650 188 650 c 0,9,10
 237 650 237 650 344 600 c 1,11,-1
 443 644 l 1,12,-1
 451 645 l 2,13,14
 459 645 459 645 465 638.5 c 128,-1,15
 471 632 471 632 471 623 c 0,16,17
 471 610 471 610 462 605 c 2,18,-1
 383 569 l 1,19,20
 462 501 462 501 508 409.5 c 128,-1,21
 554 318 554 318 554 231 c 0,22,23
 554 117 554 117 485 50 c 128,-1,24
 416 -17 416 -17 314 -17 c 0,25,26
 215 -17 215 -17 145.5 51 c 128,-1,27
 76 119 76 119 76 217 c 0,28,29
 76 313 76 313 145 382 c 128,-1,30
 214 451 214 451 312 451 c 0,31,32
 355 451 355 451 389 438.5 c 128,-1,33
 423 426 423 426 466 395 c 1,34,35
 411 498 411 498 339 551 c 1,36,-1
 244 507 l 2,37,38
 242 506 242 506 236 506 c 0,39,40
 228 506 228 506 221.5 513 c 128,-1,41
 215 520 215 520 215 529 c 0,42,43
 215 542 215 542 224 547 c 2,44,-1
 291 575 l 1,0,1
315 409 m 0,45,46
 233 409 233 409 176.5 353.5 c 128,-1,47
 120 298 120 298 120 218 c 128,-1,48
 120 138 120 138 176.5 82.5 c 128,-1,49
 233 27 233 27 315 27 c 0,50,51
 396 27 396 27 454 82 c 128,-1,52
 512 137 512 137 512 215 c 0,53,54
 512 298 512 298 455 353.5 c 128,-1,55
 398 409 398 409 315 409 c 0,45,46
EndSplineSet
Validated: 1
EndChar

StartChar: divide
Encoding: 247 247 185
Width: 628
GlyphClass: 2
Flags: W
LayerCount: 2
Fore
SplineSet
525 274 m 2,0,-1
 103 274 l 2,1,2
 74 274 74 274 75 295 c 128,-1,3
 76 316 76 316 103 316 c 2,4,-1
 525 316 l 2,5,6
 554 316 554 316 554 295 c 128,-1,7
 554 274 554 274 525 274 c 2,0,-1
314 130 m 0,8,9
 337 130 337 130 352 114.5 c 128,-1,10
 367 99 367 99 367 78 c 0,11,12
 367 58 367 58 351.5 42.5 c 128,-1,13
 336 27 336 27 315 27 c 128,-1,14
 294 27 294 27 278.5 41.5 c 128,-1,15
 263 56 263 56 263 79 c 0,16,17
 263 99 263 99 278.5 114.5 c 128,-1,18
 294 130 294 130 314 130 c 0,8,9
314 566 m 0,19,20
 337 566 337 566 352 551 c 128,-1,21
 367 536 367 536 367 514 c 0,22,23
 367 494 367 494 351.5 478.5 c 128,-1,24
 336 463 336 463 315 463 c 128,-1,25
 294 463 294 463 278.5 478 c 128,-1,26
 263 493 263 493 263 515 c 0,27,28
 263 535 263 535 278.5 550.5 c 128,-1,29
 294 566 294 566 314 566 c 0,19,20
EndSplineSet
Validated: 33
EndChar

StartChar: oslash
Encoding: 248 248 186
Width: 628
GlyphClass: 2
Flags: W
LayerCount: 2
Fore
SplineSet
162 37 m 1,0,-1
 92 -35 l 2,1,2
 82 -45 82 -45 75 -45 c 128,-1,3
 68 -45 68 -45 61.5 -39.5 c 128,-1,4
 55 -34 55 -34 55 -26 c 128,-1,5
 55 -18 55 -18 67 -8 c 2,6,-1
 135 61 l 1,7,8
 76 131 76 131 76 218 c 0,9,10
 76 315 76 315 145.5 383.5 c 128,-1,11
 215 452 215 452 314 452 c 0,12,13
 400 452 400 452 466 400 c 1,14,-1
 532 470 l 2,15,16
 543 480 543 480 551 480 c 128,-1,17
 559 480 559 480 564 474.5 c 128,-1,18
 569 469 569 469 569 461.5 c 128,-1,19
 569 454 569 454 559 443 c 2,20,-1
 492 376 l 1,21,22
 553 307 553 307 554 217 c 0,23,24
 554 120 554 120 484 52 c 128,-1,25
 414 -16 414 -16 314 -16 c 0,26,27
 232 -16 232 -16 162 37 c 1,0,-1
463 345 m 1,28,-1
 191 69 l 1,29,30
 244 27 244 27 314 27 c 0,31,32
 396 27 396 27 453.5 82 c 128,-1,33
 511 137 511 137 511 217 c 0,34,35
 511 289 511 289 463 345 c 1,28,-1
166 93 m 1,36,-1
 435 369 l 1,37,38
 383 409 383 409 314 409 c 0,39,40
 232 409 232 409 175.5 353.5 c 128,-1,41
 119 298 119 298 119 218 c 0,42,43
 119 146 119 146 166 93 c 1,36,-1
EndSplineSet
Validated: 1
EndChar

StartChar: thorn
Encoding: 254 254 192
Width: 628
GlyphClass: 2
Flags: W
LayerCount: 2
Fore
SplineSet
151 618 m 1,0,-1
 151 351 l 1,1,2
 193 405 193 405 236 428.5 c 128,-1,3
 279 452 279 452 339 452 c 0,4,5
 436 452 436 452 501.5 388.5 c 128,-1,6
 567 325 567 325 567 231.5 c 128,-1,7
 567 138 567 138 501 74 c 128,-1,8
 435 10 435 10 339 10 c 0,9,10
 221 10 221 10 151 112 c 1,11,-1
 151 -152 l 1,12,-1
 254 -152 l 2,13,14
 283 -152 283 -152 282 -173 c 0,15,16
 282 -196 282 -196 254 -195 c 2,17,-1
 51 -195 l 2,18,19
 22 -195 22 -195 24 -173 c 0,20,21
 24 -153 24 -153 51 -152 c 2,22,-1
 108 -152 l 1,23,-1
 108 575 l 1,24,-1
 51 575 l 2,25,26
 22 575 22 575 24 598 c 0,27,28
 24 618 24 618 51 618 c 2,29,-1
 151 618 l 1,0,-1
338 409 m 0,30,31
 260 409 260 409 205.5 357 c 128,-1,32
 151 305 151 305 151 231 c 0,33,34
 151 156 151 156 205.5 104.5 c 128,-1,35
 260 53 260 53 338 53 c 128,-1,36
 416 53 416 53 470 105 c 128,-1,37
 524 157 524 157 524 229 c 0,38,39
 524 306 524 306 471 357.5 c 128,-1,40
 418 409 418 409 338 409 c 0,30,31
EndSplineSet
Validated: 33
EndChar

StartChar: Aogonek
Encoding: 260 260 198
Width: 628
GlyphClass: 2
Flags: W
LayerCount: 2
Fore
SplineSet
556 -129 m 0,0,1
 580 -129 580 -129 596 -119 c 128,-1,2
 612 -109 612 -109 615 -109 c 0,3,4
 620 -109 620 -109 625 -114 c 128,-1,5
 630 -119 630 -119 630 -125 c 0,6,7
 630 -138 630 -138 604.5 -150.5 c 128,-1,8
 579 -163 579 -163 550 -163 c 0,9,10
 512 -163 512 -163 491 -146 c 128,-1,11
 470 -129 470 -129 470 -98 c 0,12,13
 470 -38 470 -38 551 0 c 1,14,-1
 428 0 l 2,15,16
 399 0 399 0 399 23 c 0,17,18
 399 43 399 43 428 43 c 2,19,-1
 508 43 l 1,20,-1
 449 198 l 1,21,-1
 170 198 l 1,22,-1
 114 43 l 1,23,-1
 196 43 l 2,24,25
 225 43 225 43 224 23 c 0,26,27
 224 0 224 0 196 0 c 2,28,-1
 38 0 l 2,29,30
 9 0 9 0 9 23 c 0,31,32
 9 43 9 43 38 43 c 2,33,-1
 71 43 l 1,34,-1
 258 548 l 1,35,-1
 132 548 l 2,36,37
 103 548 103 548 103 569 c 0,38,39
 103 589 103 589 132 591 c 2,40,-1
 346 591 l 1,41,-1
 553 43 l 1,42,-1
 592 43 l 2,43,44
 621 43 621 43 620 23 c 0,45,46
 620 0 620 0 592 0 c 2,47,-1
 600 0 l 1,48,-1
 571 -15 l 2,49,50
 511 -50 511 -50 511 -93 c 0,51,52
 511 -129 511 -129 556 -129 c 0,0,1
433 240 m 1,53,-1
 315 548 l 1,54,-1
 300 548 l 1,55,-1
 186 240 l 1,56,-1
 433 240 l 1,53,-1
EndSplineSet
Validated: 33
EndChar

StartChar: aogonek
Encoding: 261 261 199
Width: 628
GlyphClass: 2
Flags: W
LayerCount: 2
Fore
SplineSet
131 396 m 0,0,1
 131 420 131 420 202 436 c 128,-1,2
 273 452 273 452 313 452 c 0,3,4
 387 452 387 452 434.5 415.5 c 128,-1,5
 482 379 482 379 482 323 c 2,6,-1
 482 43 l 1,7,-1
 539 43 l 2,8,9
 568 43 568 43 567 23 c 0,10,11
 567 14 567 14 551 2 c 128,-1,12
 535 -10 535 -10 515.5 -21.5 c 128,-1,13
 496 -33 496 -33 480 -52.5 c 128,-1,14
 464 -72 464 -72 464 -93 c 0,15,16
 464 -129 464 -129 509 -129 c 0,17,18
 533 -129 533 -129 549 -119 c 128,-1,19
 565 -109 565 -109 568 -109 c 0,20,21
 573 -109 573 -109 578 -114 c 128,-1,22
 583 -119 583 -119 583 -125 c 0,23,24
 583 -138 583 -138 557 -150.5 c 128,-1,25
 531 -163 531 -163 502 -163 c 0,26,27
 464 -163 464 -163 443.5 -146 c 128,-1,28
 423 -129 423 -129 423 -98 c 0,29,30
 423 -65 423 -65 441.5 -42.5 c 128,-1,31
 460 -20 460 -20 504 0 c 1,32,-1
 439 0 l 1,33,-1
 439 71 l 1,34,35
 346 -16 346 -16 239 -16 c 0,36,37
 165 -16 165 -16 120.5 20.5 c 128,-1,38
 76 57 76 57 76 118 c 0,39,40
 76 187 76 187 137.5 228.5 c 128,-1,41
 199 270 199 270 297 270 c 0,42,43
 358 270 358 270 439 249 c 1,44,-1
 439 323 l 2,45,46
 439 362 439 362 403.5 385.5 c 128,-1,47
 368 409 368 409 310 409 c 0,48,49
 262 409 262 409 211 392.5 c 128,-1,50
 160 376 160 376 151 376 c 128,-1,51
 142 376 142 376 136.5 382 c 128,-1,52
 131 388 131 388 131 396 c 0,0,1
439 118 m 1,53,-1
 439 212 l 1,54,55
 377 227 377 227 305 227 c 0,56,57
 222 227 222 227 170.5 196.5 c 128,-1,58
 119 166 119 166 119 117 c 0,59,60
 119 76 119 76 151 51.5 c 128,-1,61
 183 27 183 27 238 27 c 0,62,63
 293 27 293 27 340 48 c 128,-1,64
 387 69 387 69 439 118 c 1,53,-1
EndSplineSet
Validated: 33
EndChar

StartChar: dcroat
Encoding: 273 273 211
Width: 628
GlyphClass: 2
Flags: W
LayerCount: 2
Fore
SplineSet
526 545 m 1,0,-1
 583 545 l 2,1,2
 612 545 612 545 611 524 c 0,3,4
 611 501 611 501 583 502 c 2,5,-1
 526 502 l 1,6,-1
 526 43 l 1,7,-1
 583 43 l 2,8,9
 612 43 612 43 611 23 c 0,10,11
 611 0 611 0 583 0 c 2,12,-1
 483 0 l 1,13,-1
 483 85 l 1,14,15
 409 -16 409 -16 294 -16 c 0,16,17
 200 -16 200 -16 133.5 52.5 c 128,-1,18
 67 121 67 121 67 218 c 0,19,20
 67 314 67 314 133.5 383 c 128,-1,21
 200 452 200 452 294 452 c 0,22,23
 409 452 409 452 483 351 c 1,24,-1
 483 502 l 1,25,-1
 339 502 l 2,26,27
 310 502 310 502 310 524 c 0,28,29
 310 544 310 544 339 545 c 2,30,-1
 483 545 l 1,31,-1
 483 591 l 1,32,-1
 427 591 l 2,33,34
 398 591 398 591 398 612 c 0,35,36
 398 632 398 632 427 633 c 2,37,-1
 526 633 l 1,38,-1
 526 545 l 1,0,-1
296 409 m 0,39,40
 218 409 218 409 163.5 353.5 c 128,-1,41
 109 298 109 298 109 218 c 0,42,43
 109 137 109 137 163.5 82 c 128,-1,44
 218 27 218 27 297 27 c 0,45,46
 374 27 374 27 428.5 82 c 128,-1,47
 483 137 483 137 483 215 c 0,48,49
 483 298 483 298 429.5 353.5 c 128,-1,50
 376 409 376 409 296 409 c 0,39,40
EndSplineSet
Validated: 33
EndChar

StartChar: Eogonek
Encoding: 280 280 218
Width: 628
GlyphClass: 2
Flags: W
LayerCount: 2
Fore
SplineSet
500 -129 m 0,0,1
 524 -129 524 -129 540.5 -119 c 128,-1,2
 557 -109 557 -109 560 -109 c 0,3,4
 565 -109 565 -109 569.5 -114 c 128,-1,5
 574 -119 574 -119 574 -125 c 0,6,7
 574 -138 574 -138 548.5 -150.5 c 128,-1,8
 523 -163 523 -163 494 -163 c 0,9,10
 456 -163 456 -163 435 -146 c 128,-1,11
 414 -129 414 -129 414 -98 c 0,12,13
 414 -38 414 -38 495 0 c 1,14,-1
 74 0 l 2,15,16
 45 0 45 0 45 23 c 0,17,18
 45 43 45 43 74 43 c 2,19,-1
 130 43 l 1,20,-1
 130 548 l 1,21,-1
 74 548 l 2,22,23
 45 548 45 548 45 569 c 0,24,25
 45 589 45 589 74 591 c 2,26,-1
 523 591 l 1,27,-1
 523 444 l 2,28,29
 523 415 523 415 501 417 c 0,30,31
 481 417 481 417 480 444 c 2,32,-1
 480 548 l 1,33,-1
 173 548 l 1,34,-1
 173 329 l 1,35,-1
 325 329 l 1,36,-1
 325 376 l 2,37,38
 325 405 325 405 347 403 c 0,39,40
 367 403 367 403 368 376 c 2,41,-1
 368 238 l 2,42,43
 368 209 368 209 347 210 c 0,44,45
 324 210 324 210 325 238 c 2,46,-1
 325 286 l 1,47,-1
 173 286 l 1,48,-1
 173 43 l 1,49,-1
 502 43 l 1,50,-1
 502 168 l 2,51,52
 502 197 502 197 524 196 c 0,53,54
 544 196 544 196 545 168 c 2,55,-1
 545 0 l 1,56,-1
 516 -15 l 2,57,58
 456 -48 456 -48 455 -93 c 0,59,60
 455 -129 455 -129 500 -129 c 0,0,1
EndSplineSet
Validated: 33
EndChar

StartChar: eogonek
Encoding: 281 281 219
Width: 628
GlyphClass: 2
Flags: W
LayerCount: 2
Fore
SplineSet
408 -129 m 0,0,1
 432 -129 432 -129 448.5 -119 c 128,-1,2
 465 -109 465 -109 468 -109 c 0,3,4
 473 -109 473 -109 477.5 -114 c 128,-1,5
 482 -119 482 -119 482 -125 c 0,6,7
 482 -138 482 -138 456.5 -150.5 c 128,-1,8
 431 -163 431 -163 401 -163 c 0,9,10
 363 -163 363 -163 342.5 -146 c 128,-1,11
 322 -129 322 -129 322 -98 c 0,12,13
 322 -46 322 -46 379 -11 c 1,14,15
 347 -16 347 -16 321 -16 c 0,16,17
 215 -16 215 -16 141 54.5 c 128,-1,18
 67 125 67 125 67 227 c 0,19,20
 67 322 67 322 136 387 c 128,-1,21
 205 452 205 452 305 452 c 0,22,23
 410 452 410 452 477.5 385 c 128,-1,24
 545 318 545 318 545 209 c 1,25,-1
 109 209 l 1,26,27
 120 126 120 126 178 76.5 c 128,-1,28
 236 27 236 27 321 27 c 0,29,30
 370 27 370 27 421.5 42 c 128,-1,31
 473 57 473 57 505 83 c 0,32,33
 515 90 515 90 521 90 c 0,34,35
 529 90 529 90 535 84 c 128,-1,36
 541 78 541 78 541 70 c 0,37,38
 541 58 541 58 513 38 c 128,-1,39
 485 18 485 18 452 1 c 128,-1,40
 419 -16 419 -16 390.5 -43 c 128,-1,41
 362 -70 362 -70 362 -93 c 0,42,43
 363 -129 363 -129 408 -129 c 0,0,1
109 252 m 1,44,-1
 501 252 l 1,45,46
 489 324 489 324 435.5 366.5 c 128,-1,47
 382 409 382 409 305 409 c 128,-1,48
 228 409 228 409 175.5 367 c 128,-1,49
 123 325 123 325 109 252 c 1,44,-1
EndSplineSet
Validated: 1
EndChar

StartChar: Hbar
Encoding: 294 294 232
Width: 628
GlyphClass: 2
Flags: W
LayerCount: 2
Fore
SplineSet
501 441 m 1,0,-1
 527 441 l 2,1,2
 556 441 556 441 556 420 c 128,-1,3
 556 399 556 399 527 399 c 2,4,-1
 501 399 l 1,5,-1
 501 43 l 1,6,-1
 550 43 l 2,7,8
 579 43 579 43 578 23 c 0,9,10
 578 0 578 0 550 0 c 2,11,-1
 401 0 l 2,12,13
 372 0 372 0 374 23 c 0,14,15
 374 43 374 43 401 43 c 2,16,-1
 458 43 l 1,17,-1
 458 286 l 1,18,-1
 175 286 l 1,19,-1
 175 43 l 1,20,-1
 231 43 l 2,21,22
 260 43 260 43 260 23 c 0,23,24
 260 0 260 0 231 0 c 2,25,-1
 85 0 l 2,26,27
 55 0 55 0 55 23 c 0,28,29
 55 43 55 43 85 43 c 2,30,-1
 132 43 l 1,31,-1
 132 399 l 1,32,-1
 105 399 l 2,33,34
 76 399 76 399 77 420 c 128,-1,35
 78 441 78 441 105 441 c 2,36,-1
 132 441 l 1,37,-1
 132 548 l 1,38,-1
 105 548 l 2,39,40
 76 548 76 548 78 569 c 0,41,42
 78 589 78 589 105 591 c 2,43,-1
 231 591 l 2,44,45
 260 591 260 591 260 569 c 0,46,47
 260 546 260 546 231 548 c 2,48,-1
 175 548 l 1,49,-1
 175 441 l 1,50,-1
 458 441 l 1,51,-1
 458 548 l 1,52,-1
 401 548 l 2,53,54
 372 548 372 548 374 569 c 0,55,56
 374 589 374 589 401 591 c 2,57,-1
 527 591 l 2,58,59
 556 591 556 591 556 569 c 0,60,61
 556 546 556 546 527 548 c 2,62,-1
 501 548 l 1,63,-1
 501 441 l 1,0,-1
458 399 m 1,64,-1
 175 399 l 1,65,-1
 175 329 l 1,66,-1
 458 329 l 1,67,-1
 458 399 l 1,64,-1
EndSplineSet
Validated: 33
EndChar

StartChar: hbar
Encoding: 295 295 233
Width: 628
GlyphClass: 2
Flags: W
LayerCount: 2
Fore
SplineSet
458 302 m 2,0,1
 458 349 458 349 422.5 379 c 128,-1,2
 387 409 387 409 330 409 c 0,3,4
 286 409 286 409 256.5 392 c 128,-1,5
 227 375 227 375 184 324 c 2,6,-1
 173 310 l 1,7,-1
 173 43 l 1,8,-1
 220 43 l 2,9,10
 250 43 250 43 250 23 c 0,11,12
 250 0 250 0 220 0 c 2,13,-1
 82 0 l 2,14,15
 53 0 53 0 53 23 c 0,16,17
 53 43 53 43 82 43 c 2,18,-1
 130 43 l 1,19,-1
 130 492 l 1,20,-1
 74 492 l 2,21,22
 45 492 45 492 45 513 c 128,-1,23
 45 534 45 534 74 534 c 2,24,-1
 130 534 l 1,25,-1
 130 591 l 1,26,-1
 74 591 l 2,27,28
 45 591 45 591 45 612 c 0,29,30
 45 632 45 632 74 633 c 2,31,-1
 173 633 l 1,32,-1
 173 534 l 1,33,-1
 321 534 l 2,34,35
 350 534 350 534 349.5 513 c 128,-1,36
 349 492 349 492 321 492 c 2,37,-1
 173 492 l 1,38,-1
 173 364 l 1,39,40
 213 412 213 412 250 432 c 128,-1,41
 287 452 287 452 335 452 c 0,42,43
 409 452 409 452 455 410.5 c 128,-1,44
 501 369 501 369 501 305 c 2,45,-1
 501 43 l 1,46,-1
 549 43 l 2,47,48
 579 43 579 43 578 23 c 0,49,50
 578 0 578 0 549 0 c 2,51,-1
 411 0 l 2,52,53
 382 0 382 0 383 23 c 0,54,55
 383 43 383 43 411 43 c 2,56,-1
 458 43 l 1,57,-1
 458 302 l 2,0,1
EndSplineSet
Validated: 33
EndChar

StartChar: Iogonek
Encoding: 302 302 240
Width: 628
GlyphClass: 2
Flags: W
LayerCount: 2
Fore
SplineSet
450 -129 m 0,0,1
 474 -129 474 -129 490.5 -119 c 128,-1,2
 507 -109 507 -109 510 -109 c 0,3,4
 515 -109 515 -109 519.5 -114 c 128,-1,5
 524 -119 524 -119 524 -125 c 0,6,7
 524 -138 524 -138 498.5 -150.5 c 128,-1,8
 473 -163 473 -163 443 -163 c 0,9,10
 405 -163 405 -163 384.5 -146 c 128,-1,11
 364 -129 364 -129 364 -98 c 0,12,13
 364 -65 364 -65 382 -42.5 c 128,-1,14
 400 -20 400 -20 444 0 c 1,15,-1
 146 0 l 2,16,17
 117 0 117 0 119 23 c 0,18,19
 119 43 119 43 146 43 c 2,20,-1
 293 43 l 1,21,-1
 293 548 l 1,22,-1
 146 548 l 2,23,24
 117 548 117 548 119 569 c 0,25,26
 119 589 119 589 146 591 c 2,27,-1
 481 591 l 2,28,29
 511 591 511 591 511 569 c 0,30,31
 511 546 511 546 481 548 c 2,32,-1
 336 548 l 1,33,-1
 336 43 l 1,34,-1
 481 43 l 2,35,36
 511 43 511 43 511 23 c 0,37,38
 511 14 511 14 494 2 c 128,-1,39
 477 -10 477 -10 457.5 -21 c 128,-1,40
 438 -32 438 -32 421 -51.5 c 128,-1,41
 404 -71 404 -71 404 -93 c 0,42,43
 405 -129 405 -129 450 -129 c 0,0,1
EndSplineSet
Validated: 33
EndChar

StartChar: iogonek
Encoding: 303 303 241
Width: 628
GlyphClass: 2
Flags: W
LayerCount: 2
Fore
SplineSet
471 -129 m 0,0,1
 495 -129 495 -129 511 -119 c 128,-1,2
 527 -109 527 -109 530 -109 c 0,3,4
 535 -109 535 -109 540 -114 c 128,-1,5
 545 -119 545 -119 545 -125 c 0,6,7
 545 -138 545 -138 519.5 -150.5 c 128,-1,8
 494 -163 494 -163 465 -163 c 0,9,10
 427 -163 427 -163 406 -146 c 128,-1,11
 385 -129 385 -129 385 -98 c 0,12,13
 385 -65 385 -65 403.5 -42.5 c 128,-1,14
 422 -20 422 -20 466 0 c 1,15,-1
 125 0 l 2,16,17
 96 0 96 0 96 23 c 0,18,19
 96 43 96 43 125 43 c 2,20,-1
 293 43 l 1,21,-1
 293 394 l 1,22,-1
 169 394 l 2,23,24
 140 394 140 394 140 417 c 0,25,26
 140 437 140 437 169 437 c 2,27,-1
 336 437 l 1,28,-1
 336 43 l 1,29,-1
 504 43 l 2,30,31
 534 43 534 43 532 23 c 0,32,33
 532 13 532 13 515.5 1.5 c 128,-1,34
 499 -10 499 -10 479.5 -21 c 128,-1,35
 460 -32 460 -32 443 -51 c 128,-1,36
 426 -70 426 -70 426 -93 c 0,37,38
 426 -129 426 -129 471 -129 c 0,0,1
334 654 m 1,39,-1
 334 545 l 1,40,-1
 271 545 l 1,41,-1
 271 654 l 1,42,-1
 334 654 l 1,39,-1
EndSplineSet
Validated: 33
EndChar

StartChar: dotlessi
Encoding: 305 305 243
Width: 628
GlyphClass: 2
Flags: W
AnchorPoint: "Anchor-2" 308 452 basechar 0
LayerCount: 2
Fore
SplineSet
336 437 m 1,0,-1
 336 43 l 1,1,-1
 504 43 l 2,2,3
 534 43 534 43 532 23 c 0,4,5
 532 0 532 0 504 0 c 2,6,-1
 125 0 l 2,7,8
 96 0 96 0 96 23 c 0,9,10
 96 43 96 43 125 43 c 2,11,-1
 293 43 l 1,12,-1
 293 394 l 1,13,-1
 169 394 l 2,14,15
 140 394 140 394 140 417 c 0,16,17
 140 437 140 437 169 437 c 2,18,-1
 336 437 l 1,0,-1
EndSplineSet
Validated: 33
EndChar

StartChar: IJ
Encoding: 306 306 244
Width: 628
GlyphClass: 2
Flags: W
LayerCount: 2
Fore
SplineSet
518 548 m 1,0,-1
 518 173 l 2,1,2
 518 89 518 89 481 36.5 c 128,-1,3
 444 -16 444 -16 368 -16 c 0,4,5
 319 -16 319 -16 286.5 6 c 128,-1,6
 254 28 254 28 220 78 c 1,7,-1
 220 233 l 2,8,9
 220 262 220 262 243 262 c 0,10,11
 263 262 263 262 263 233 c 2,12,-1
 263 97 l 1,13,14
 289 54 289 54 310 40.5 c 128,-1,15
 331 27 331 27 369 27 c 0,16,17
 427 27 427 27 451 65 c 128,-1,18
 475 103 475 103 475 173 c 2,19,-1
 475 548 l 1,20,-1
 376 548 l 2,21,22
 347 548 347 548 347 569 c 0,23,24
 347 589 347 589 376 591 c 2,25,-1
 570 591 l 2,26,27
 599 591 599 591 599 569 c 0,28,29
 599 546 599 546 570 548 c 2,30,-1
 518 548 l 1,0,-1
147 548 m 1,31,-1
 147 43 l 1,32,-1
 194 43 l 2,33,34
 224 43 224 43 223 23 c 0,35,36
 223 0 223 0 194 0 c 2,37,-1
 58 0 l 2,38,39
 29 0 29 0 31 23 c 0,40,41
 31 43 31 43 58 43 c 2,42,-1
 104 43 l 1,43,-1
 104 548 l 1,44,-1
 58 548 l 2,45,46
 29 548 29 548 31 569 c 0,47,48
 31 589 31 589 58 591 c 2,49,-1
 194 591 l 2,50,51
 224 591 224 591 223 569 c 0,52,53
 223 546 223 546 194 548 c 2,54,-1
 147 548 l 1,31,-1
EndSplineSet
Validated: 33
EndChar

StartChar: ij
Encoding: 307 307 245
Width: 628
GlyphClass: 2
Flags: W
LayerCount: 2
Fore
SplineSet
456 394 m 1,0,-1
 371 394 l 2,1,2
 342 394 342 394 343 417 c 0,3,4
 343 437 343 437 371 437 c 2,5,-1
 499 437 l 1,6,-1
 499 -30 l 2,7,8
 499 -104 499 -104 453.5 -149.5 c 128,-1,9
 408 -195 408 -195 337 -195 c 2,10,-1
 202 -195 l 2,11,12
 173 -195 173 -195 173 -173 c 0,13,14
 173 -153 173 -153 202 -152 c 2,15,-1
 336 -152 l 2,16,17
 388 -152 388 -152 422 -117.5 c 128,-1,18
 456 -83 456 -83 456 -30 c 2,19,-1
 456 394 l 1,0,-1
507 654 m 1,20,-1
 507 545 l 1,21,-1
 444 545 l 1,22,-1
 444 654 l 1,23,-1
 507 654 l 1,20,-1
270 437 m 1,24,-1
 270 43 l 1,25,-1
 338 43 l 2,26,27
 368 43 368 43 367 23 c 0,28,29
 367 0 367 0 338 0 c 2,30,-1
 159 0 l 2,31,32
 130 0 130 0 130 23 c 0,33,34
 130 43 130 43 159 43 c 2,35,-1
 227 43 l 1,36,-1
 227 394 l 1,37,-1
 169 394 l 2,38,39
 140 394 140 394 140 417 c 0,40,41
 140 437 140 437 169 437 c 2,42,-1
 270 437 l 1,24,-1
282 654 m 1,43,-1
 282 545 l 1,44,-1
 220 545 l 1,45,-1
 220 654 l 1,46,-1
 282 654 l 1,43,-1
EndSplineSet
Validated: 33
EndChar

StartChar: Lslash
Encoding: 321 321 259
Width: 628
GlyphClass: 2
Flags: W
LayerCount: 2
Fore
SplineSet
237 548 m 1,0,-1
 237 325 l 1,1,-1
 378 409 l 2,2,3
 390 414 390 414 395 414 c 0,4,5
 403 414 403 414 410 407.5 c 128,-1,6
 417 401 417 401 417 393 c 0,7,8
 417 382 417 382 398 373 c 2,9,-1
 237 275 l 1,10,-1
 237 43 l 1,11,-1
 524 43 l 1,12,-1
 524 212 l 2,13,14
 524 241 524 241 547 240 c 0,15,16
 567 240 567 240 567 212 c 2,17,-1
 567 0 l 1,18,-1
 93 0 l 2,19,20
 64 0 64 0 65 23 c 0,21,22
 65 43 65 43 93 43 c 2,23,-1
 194 43 l 1,24,-1
 194 258 l 1,25,-1
 83 193 l 2,26,27
 74 187 74 187 65 186 c 0,28,29
 58 186 58 186 51.5 193.5 c 128,-1,30
 45 201 45 201 45 209 c 0,31,32
 45 220 45 220 61 229 c 2,33,-1
 194 307 l 1,34,-1
 194 548 l 1,35,-1
 93 548 l 2,36,37
 64 548 64 548 65 569 c 0,38,39
 65 589 65 589 93 591 c 2,40,-1
 338 591 l 2,41,42
 367 591 367 591 366 569 c 0,43,44
 366 546 366 546 338 548 c 2,45,-1
 237 548 l 1,0,-1
EndSplineSet
Validated: 33
EndChar

StartChar: lslash
Encoding: 322 322 260
Width: 628
GlyphClass: 2
Flags: W
LayerCount: 2
Fore
SplineSet
335 633 m 1,0,-1
 335 359 l 1,1,-1
 427 413 l 2,2,3
 438 419 438 419 444 420 c 0,4,5
 452 420 452 420 458.5 413.5 c 128,-1,6
 465 407 465 407 465 398 c 0,7,8
 465 386 465 386 447 377 c 2,9,-1
 335 311 l 1,10,-1
 335 43 l 1,11,-1
 505 43 l 2,12,13
 534 43 534 43 532 23 c 0,14,15
 532 0 532 0 505 0 c 2,16,-1
 125 0 l 2,17,18
 96 0 96 0 96 23 c 0,19,20
 96 43 96 43 125 43 c 2,21,-1
 292 43 l 1,22,-1
 292 294 l 1,23,-1
 201 242 l 2,24,25
 190 236 190 236 182 234 c 0,26,27
 175 234 175 234 169 241.5 c 128,-1,28
 163 249 163 249 163 257 c 0,29,30
 163 269 163 269 179 279 c 2,31,-1
 292 343 l 1,32,-1
 292 591 l 1,33,-1
 169 591 l 2,34,35
 140 591 140 591 140 612 c 0,36,37
 140 632 140 632 169 633 c 2,38,-1
 335 633 l 1,0,-1
EndSplineSet
Validated: 33
EndChar

StartChar: Eng
Encoding: 330 330 268
Width: 628
GlyphClass: 2
Flags: W
LayerCount: 2
Fore
SplineSet
504 313 m 0,0,1
 504 432 504 432 462 497 c 128,-1,2
 420 562 420 562 355 562 c 0,3,4
 254 562 254 562 175 462 c 1,5,-1
 175 43 l 1,6,-1
 222 43 l 2,7,8
 251 43 251 43 251 23 c 0,9,10
 251 0 251 0 222 0 c 2,11,-1
 85 0 l 2,12,13
 55 0 55 0 55 23 c 0,14,15
 55 43 55 43 85 43 c 2,16,-1
 132 43 l 1,17,-1
 132 548 l 1,18,-1
 96 548 l 2,19,20
 67 548 67 548 69 569 c 0,21,22
 69 589 69 589 96 591 c 2,23,-1
 175 591 l 1,24,-1
 175 518 l 1,25,26
 254 605 254 605 359 605 c 0,27,28
 436 605 436 605 491.5 532.5 c 128,-1,29
 547 460 547 460 547 321 c 0,30,31
 547 -12 547 -12 392 -11 c 0,32,33
 365 -11 365 -11 333 -3 c 128,-1,34
 301 5 301 5 301 25 c 0,35,36
 301 33 301 33 306.5 39 c 128,-1,37
 312 45 312 45 319 45 c 0,38,39
 322 45 322 45 346.5 38.5 c 128,-1,40
 371 32 371 32 393 32 c 0,41,42
 504 31 504 31 504 313 c 0,0,1
EndSplineSet
Validated: 33
Substitution2: "'locl' Localized Forms in Latin lookup 2 subtable" Engsami
EndChar

StartChar: eng
Encoding: 331 331 269
Width: 628
GlyphClass: 2
Flags: W
LayerCount: 2
Fore
SplineSet
276 -152 m 0,0,1
 280 -152 280 -152 303.5 -159 c 128,-1,2
 327 -166 327 -166 350 -166 c 0,3,4
 398 -166 398 -166 429.5 -131.5 c 128,-1,5
 461 -97 461 -97 461 -44 c 2,6,-1
 461 302 l 2,7,8
 461 347 461 347 426.5 378 c 128,-1,9
 392 409 392 409 335 409 c 0,10,11
 317 409 317 409 299 405 c 128,-1,12
 281 401 281 401 266 393.5 c 128,-1,13
 251 386 251 386 240 379.5 c 128,-1,14
 229 373 229 373 217.5 360 c 128,-1,15
 206 347 206 347 201 341.5 c 128,-1,16
 196 336 196 336 186 322.5 c 128,-1,17
 176 309 176 309 175 308 c 2,18,-1
 175 43 l 1,19,-1
 222 43 l 2,20,21
 251 43 251 43 251 23 c 0,22,23
 251 0 251 0 222 0 c 2,24,-1
 85 0 l 2,25,26
 55 0 55 0 55 23 c 0,27,28
 55 43 55 43 85 43 c 2,29,-1
 132 43 l 1,30,-1
 132 394 l 1,31,-1
 96 394 l 2,32,33
 67 394 67 394 69 417 c 0,34,35
 69 437 69 437 96 437 c 2,36,-1
 175 437 l 1,37,-1
 175 365 l 1,38,39
 220 415 220 415 255 433.5 c 128,-1,40
 290 452 290 452 339 452 c 0,41,42
 410 452 410 452 457 411 c 128,-1,43
 504 370 504 370 504 309 c 2,44,-1
 504 -50 l 2,45,46
 504 -117 504 -117 458.5 -163 c 128,-1,47
 413 -209 413 -209 349 -209 c 0,48,49
 322 -209 322 -209 290 -200 c 128,-1,50
 258 -191 258 -191 258 -173 c 0,51,52
 258 -165 258 -165 263.5 -158.5 c 128,-1,53
 269 -152 269 -152 276 -152 c 0,0,1
EndSplineSet
Validated: 33
EndChar

StartChar: OE
Encoding: 338 338 276
Width: 628
GlyphClass: 2
Flags: W
LayerCount: 2
Fore
SplineSet
354 286 m 1,0,-1
 354 43 l 1,1,-1
 575 43 l 1,2,-1
 575 139 l 2,3,4
 575 168 575 168 597 168 c 0,5,6
 620 168 620 168 618 139 c 2,7,-1
 618 0 l 1,8,-1
 275 0 l 2,9,10
 155 0 155 0 82.5 81.5 c 128,-1,11
 10 163 10 163 10 296 c 0,12,13
 10 427 10 427 82 509 c 128,-1,14
 154 591 154 591 267 591 c 2,15,-1
 598 591 l 1,16,-1
 598 429 l 2,17,18
 598 400 598 400 577 400 c 0,19,20
 554 400 554 400 555 429 c 2,21,-1
 555 548 l 1,22,-1
 354 548 l 1,23,-1
 354 329 l 1,24,-1
 436 329 l 1,25,-1
 436 356 l 2,26,27
 436 385 436 385 458 385 c 0,28,29
 478 385 478 385 479 356 c 2,30,-1
 479 256 l 2,31,32
 479 227 479 227 458 227 c 0,33,34
 435 227 435 227 436 256 c 2,35,-1
 436 286 l 1,36,-1
 354 286 l 1,0,-1
53 295 m 0,37,38
 53 252 53 252 64 211 c 128,-1,39
 75 170 75 170 98.5 130.5 c 128,-1,40
 122 91 122 91 168 67 c 128,-1,41
 214 43 214 43 278 43 c 2,42,-1
 311 43 l 1,43,-1
 311 548 l 1,44,-1
 278 548 l 2,45,46
 215 548 215 548 168.5 523.5 c 128,-1,47
 122 499 122 499 98.5 460 c 128,-1,48
 75 421 75 421 64 380 c 128,-1,49
 53 339 53 339 53 295 c 0,37,38
EndSplineSet
Validated: 33
EndChar

StartChar: oe
Encoding: 339 339 277
Width: 628
GlyphClass: 2
Flags: W
LayerCount: 2
Fore
SplineSet
313 333 m 1,0,1
 360 453 360 453 452 452 c 0,2,3
 478 452 478 452 502 441 c 128,-1,4
 526 430 526 430 550.5 404.5 c 128,-1,5
 575 379 575 379 590 328.5 c 128,-1,6
 605 278 605 278 605 209 c 1,7,-1
 335 209 l 1,8,9
 341 131 341 131 379.5 79 c 128,-1,10
 418 27 418 27 468 27 c 0,11,12
 495 27 495 27 518.5 42.5 c 128,-1,13
 542 58 542 58 559.5 74.5 c 128,-1,14
 577 91 577 91 585.5 91 c 128,-1,15
 594 91 594 91 600 84.5 c 128,-1,16
 606 78 606 78 606 71 c 0,17,18
 606 54 606 54 557.5 19 c 128,-1,19
 509 -16 509 -16 466 -16 c 0,20,21
 419 -16 419 -16 378.5 17 c 128,-1,22
 338 50 338 50 313 108 c 1,23,24
 289 49 289 49 253.5 16.5 c 128,-1,25
 218 -16 218 -16 174 -16 c 0,26,27
 109 -16 109 -16 60.5 55 c 128,-1,28
 12 126 12 126 12 222 c 0,29,30
 12 315 12 315 60 383.5 c 128,-1,31
 108 452 108 452 173 452 c 0,32,33
 216 452 216 452 253 419.5 c 128,-1,34
 290 387 290 387 313 333 c 1,0,1
562 252 m 1,35,36
 558 283 558 283 553.5 302.5 c 128,-1,37
 549 322 549 322 537.5 350.5 c 128,-1,38
 526 379 526 379 503.5 394 c 128,-1,39
 481 409 481 409 450 409 c 0,40,41
 357 409 357 409 336 252 c 1,42,-1
 562 252 l 1,35,36
174 409 m 0,43,44
 127 409 127 409 91 352 c 128,-1,45
 55 295 55 295 55 218 c 128,-1,46
 55 141 55 141 91 84 c 128,-1,47
 127 27 127 27 175 27 c 0,48,49
 221 27 221 27 257.5 84 c 128,-1,50
 294 141 294 141 294 216 c 0,51,52
 294 294 294 294 258 351.5 c 128,-1,53
 222 409 222 409 174 409 c 0,43,44
EndSplineSet
Validated: 33
EndChar

StartChar: Scedilla
Encoding: 350 350 288
Width: 628
GlyphClass: 2
Flags: W
LayerCount: 2
Fore
SplineSet
167 440 m 0,0,1
 167 399 167 399 194 374 c 128,-1,2
 221 349 221 349 261.5 340.5 c 128,-1,3
 302 332 302 332 349.5 319.5 c 128,-1,4
 397 307 397 307 437.5 294.5 c 128,-1,5
 478 282 478 282 505 247 c 128,-1,6
 532 212 532 212 532 159 c 0,7,8
 532 85 532 85 476 37 c 128,-1,9
 420 -11 420 -11 327 -16 c 1,10,-1
 327 -49 l 1,11,12
 396 -51 396 -51 395 -114 c 0,13,14
 395 -145 395 -145 372 -163 c 128,-1,15
 349 -181 349 -181 312 -181 c 0,16,17
 284 -181 284 -181 252 -169.5 c 128,-1,18
 220 -158 220 -158 220 -139 c 0,19,20
 220 -131 220 -131 226 -125.5 c 128,-1,21
 232 -120 232 -120 242 -120 c 0,22,23
 246 -120 246 -120 269.5 -130.5 c 128,-1,24
 293 -141 293 -141 311 -141 c 0,25,26
 330 -141 330 -141 343.5 -133 c 128,-1,27
 357 -125 357 -125 357 -112 c 0,28,29
 357 -85 357 -85 308 -85 c 2,30,-1
 288 -85 l 1,31,-1
 288 -15 l 1,32,33
 192 -4 192 -4 139 58 c 1,34,-1
 139 29 l 2,35,36
 139 0 139 0 118 0 c 0,37,38
 98 0 98 0 96 29 c 2,39,-1
 96 145 l 2,40,41
 96 174 96 174 119 174 c 0,42,43
 138 174 138 174 139 148 c 0,44,45
 141 97 141 97 193 62 c 128,-1,46
 245 27 245 27 315 27 c 0,47,48
 390 27 390 27 438 64.5 c 128,-1,49
 486 102 486 102 486 161 c 0,50,51
 486 205 486 205 459 232 c 128,-1,52
 432 259 432 259 391.5 267.5 c 128,-1,53
 351 276 351 276 303.5 287.5 c 128,-1,54
 256 299 256 299 215.5 311 c 128,-1,55
 175 323 175 323 148 356 c 128,-1,56
 121 389 121 389 121 441 c 0,57,58
 121 511 121 511 175.5 557.5 c 128,-1,59
 230 604 230 604 313 604 c 0,60,61
 403 604 403 604 467 542 c 1,62,-1
 467 562 l 2,63,64
 467 591 467 591 488 591 c 0,65,66
 508 591 508 591 510 562 c 2,67,-1
 510 454 l 2,68,69
 510 425 510 425 488 426 c 256,70,71
 468 426 468 426 467 451 c 0,72,73
 464 498 464 498 421 529.5 c 128,-1,74
 378 561 378 561 316 561 c 0,75,76
 251 561 251 561 209 526 c 128,-1,77
 167 491 167 491 167 440 c 0,0,1
EndSplineSet
Validated: 33
EndChar

StartChar: scedilla
Encoding: 351 351 289
Width: 628
GlyphClass: 2
Flags: W
LayerCount: 2
Fore
SplineSet
474 123 m 0,0,1
 474 162 474 162 438 183 c 128,-1,2
 402 204 402 204 352 211 c 128,-1,3
 302 218 302 218 252 226 c 128,-1,4
 202 234 202 234 166 261 c 128,-1,5
 130 288 130 288 130 334 c 0,6,7
 130 385 130 385 180.5 418.5 c 128,-1,8
 231 452 231 452 308 452 c 0,9,10
 398 452 398 452 453 403 c 1,11,-1
 453 408 l 2,12,13
 453 438 453 438 475 437 c 0,14,15
 495 437 495 437 496 408 c 2,16,-1
 496 336 l 2,17,18
 496 307 496 307 475 307 c 0,19,20
 457 307 457 307 453 332 c 0,21,22
 450 367 450 367 411.5 388 c 128,-1,23
 373 409 373 409 314 409 c 128,-1,24
 255 409 255 409 216 386.5 c 128,-1,25
 177 364 177 364 177 331 c 0,26,27
 177 299 177 299 210 283 c 128,-1,28
 243 267 243 267 285 263.5 c 128,-1,29
 327 260 327 260 381.5 248.5 c 128,-1,30
 436 237 436 237 469 216 c 0,31,32
 521 180 521 180 521 121 c 128,-1,33
 521 62 521 62 467.5 25 c 128,-1,34
 414 -12 414 -12 327 -16 c 1,35,-1
 327 -49 l 1,36,37
 396 -51 396 -51 395 -114 c 0,38,39
 395 -145 395 -145 372 -163 c 128,-1,40
 349 -181 349 -181 312 -181 c 0,41,42
 284 -181 284 -181 252 -169.5 c 128,-1,43
 220 -158 220 -158 220 -139 c 0,44,45
 220 -131 220 -131 225.5 -125.5 c 128,-1,46
 231 -120 231 -120 240 -120 c 0,47,48
 245 -120 245 -120 268.5 -130.5 c 128,-1,49
 292 -141 292 -141 310 -141 c 0,50,51
 329 -141 329 -141 342.5 -133 c 128,-1,52
 356 -125 356 -125 356 -112 c 0,53,54
 356 -85 356 -85 308 -85 c 2,55,-1
 288 -85 l 1,56,-1
 288 -15 l 1,57,58
 200 -6 200 -6 151 40 c 1,59,-1
 151 29 l 2,60,61
 151 0 151 0 130 0 c 0,62,63
 107 0 107 0 108 29 c 2,64,-1
 108 116 l 2,65,66
 108 145 108 145 130 143 c 0,67,68
 150 143 150 143 151 121 c 2,69,-1
 151 114 l 2,70,71
 151 78 151 78 198.5 52.5 c 128,-1,72
 246 27 246 27 312 27 c 0,73,74
 382 27 382 27 428 54 c 128,-1,75
 474 81 474 81 474 123 c 0,0,1
EndSplineSet
Validated: 33
EndChar

StartChar: uni0162
Encoding: 354 354 292
Width: 628
GlyphClass: 2
Flags: W
LayerCount: 2
Fore
SplineSet
248 -120 m 0,0,1
 252 -120 252 -120 275 -130.5 c 128,-1,2
 298 -141 298 -141 316 -141 c 0,3,4
 335 -141 335 -141 348.5 -133 c 128,-1,5
 362 -125 362 -125 362 -112 c 0,6,7
 362 -85 362 -85 314 -85 c 2,8,-1
 294 -85 l 1,9,-1
 294 0 l 1,10,-1
 183 0 l 2,11,12
 154 0 154 0 156 23 c 0,13,14
 156 43 156 43 183 43 c 2,15,-1
 294 43 l 1,16,-1
 294 548 l 1,17,-1
 119 548 l 1,18,-1
 119 471 l 2,19,20
 119 442 119 442 96 442 c 0,21,22
 76 442 76 442 76 471 c 2,23,-1
 76 591 l 1,24,-1
 554 591 l 1,25,-1
 554 471 l 2,26,27
 554 442 554 442 532 442 c 0,28,29
 523 442 523 442 517 450 c 128,-1,30
 511 458 511 458 511 471 c 2,31,-1
 511 548 l 1,32,-1
 337 548 l 1,33,-1
 337 43 l 1,34,-1
 446 43 l 2,35,36
 475 43 475 43 475 23 c 0,37,38
 475 0 475 0 446 0 c 2,39,-1
 334 0 l 1,40,-1
 334 -49 l 1,41,42
 403 -51 403 -51 401 -114 c 0,43,44
 401 -145 401 -145 378 -163 c 128,-1,45
 355 -181 355 -181 318 -181 c 0,46,47
 290 -181 290 -181 258 -169.5 c 128,-1,48
 226 -158 226 -158 226 -139 c 0,49,50
 226 -131 226 -131 233 -125.5 c 128,-1,51
 240 -120 240 -120 248 -120 c 0,0,1
EndSplineSet
Validated: 33
EndChar

StartChar: Tbar
Encoding: 358 358 296
Width: 628
GlyphClass: 2
Flags: W
LayerCount: 2
Fore
SplineSet
337 353 m 1,0,-1
 440 353 l 2,1,2
 469 353 469 353 469 332 c 128,-1,3
 469 311 469 311 440 311 c 2,4,-1
 337 311 l 1,5,-1
 337 43 l 1,6,-1
 446 43 l 2,7,8
 475 43 475 43 475 23 c 0,9,10
 475 0 475 0 446 0 c 2,11,-1
 183 0 l 2,12,13
 154 0 154 0 156 23 c 0,14,15
 156 43 156 43 183 43 c 2,16,-1
 294 43 l 1,17,-1
 294 311 l 1,18,-1
 193 311 l 2,19,20
 164 311 164 311 164.5 332 c 128,-1,21
 165 353 165 353 193 353 c 2,22,-1
 294 353 l 1,23,-1
 294 548 l 1,24,-1
 119 548 l 1,25,-1
 119 471 l 2,26,27
 119 442 119 442 96 442 c 0,28,29
 76 442 76 442 76 471 c 2,30,-1
 76 591 l 1,31,-1
 554 591 l 1,32,-1
 554 471 l 2,33,34
 554 442 554 442 532 442 c 0,35,36
 523 442 523 442 517 450 c 128,-1,37
 511 458 511 458 511 471 c 2,38,-1
 511 548 l 1,39,-1
 337 548 l 1,40,-1
 337 353 l 1,0,-1
EndSplineSet
Validated: 33
EndChar

StartChar: tbar
Encoding: 359 359 297
Width: 628
GlyphClass: 2
Flags: W
LayerCount: 2
Fore
SplineSet
152 289 m 1,0,-1
 152 394 l 1,1,-1
 75 394 l 2,2,3
 45 394 45 394 45 417 c 0,4,5
 45 437 45 437 75 437 c 2,6,-1
 152 437 l 1,7,-1
 152 562 l 2,8,9
 152 591 152 591 174 591 c 0,10,11
 194 591 194 591 195 562 c 2,12,-1
 195 437 l 1,13,-1
 426 437 l 2,14,15
 455 437 455 437 454 417 c 0,16,17
 454 394 454 394 426 394 c 2,18,-1
 195 394 l 1,19,-1
 195 289 l 1,20,-1
 426 289 l 2,21,22
 455 289 455 289 454.5 268 c 128,-1,23
 454 247 454 247 426 247 c 2,24,-1
 195 247 l 1,25,-1
 195 115 l 2,26,27
 195 75 195 75 226.5 51 c 128,-1,28
 258 27 258 27 312 27 c 0,29,30
 356 27 356 27 406 38.5 c 128,-1,31
 456 50 456 50 486 69 c 0,32,33
 496 75 496 75 504 75 c 0,34,35
 511 75 511 75 517 68 c 128,-1,36
 523 61 523 61 523 53 c 0,37,38
 523 29 523 29 452.5 6.5 c 128,-1,39
 382 -16 382 -16 314 -16 c 0,40,41
 239 -16 239 -16 195.5 18.5 c 128,-1,42
 152 53 152 53 152 113 c 2,43,-1
 152 247 l 1,44,-1
 74 247 l 2,45,46
 45 247 45 247 45 268 c 128,-1,47
 45 289 45 289 74 289 c 2,48,-1
 152 289 l 1,0,-1
EndSplineSet
Validated: 33
EndChar

StartChar: Uogonek
Encoding: 370 370 308
Width: 628
GlyphClass: 2
Flags: W
LayerCount: 2
Fore
SplineSet
401 -129 m 0,0,1
 424 -129 424 -129 440.5 -119 c 128,-1,2
 457 -109 457 -109 461 -109 c 0,3,4
 466 -109 466 -109 470.5 -114 c 128,-1,5
 475 -119 475 -119 475 -125 c 0,6,7
 475 -138 475 -138 449.5 -150.5 c 128,-1,8
 424 -163 424 -163 394 -163 c 0,9,10
 357 -163 357 -163 335.5 -145.5 c 128,-1,11
 314 -128 314 -128 314 -98 c 0,12,13
 314 -46 314 -46 378 -8 c 1,14,15
 337 -16 337 -16 313 -16 c 0,16,17
 225 -16 225 -16 165 44 c 128,-1,18
 105 104 105 104 105 194 c 2,19,-1
 105 548 l 1,20,-1
 71 548 l 2,21,22
 42 548 42 548 42 569 c 0,23,24
 42 589 42 589 71 591 c 2,25,-1
 226 591 l 2,26,27
 255 591 255 591 255 569 c 0,28,29
 255 546 255 546 226 548 c 2,30,-1
 148 548 l 1,31,-1
 148 194 l 2,32,33
 148 122 148 122 196.5 74.5 c 128,-1,34
 245 27 245 27 314 27 c 0,35,36
 384 27 384 27 432 75.5 c 128,-1,37
 480 124 480 124 480 194 c 2,38,-1
 480 548 l 1,39,-1
 402 548 l 2,40,41
 373 548 373 548 375 569 c 0,42,43
 375 589 375 589 402 591 c 2,44,-1
 559 591 l 2,45,46
 588 591 588 591 587 569 c 0,47,48
 587 546 587 546 559 548 c 2,49,-1
 523 548 l 1,50,-1
 523 194 l 2,51,52
 523 147 523 147 505.5 108.5 c 128,-1,53
 488 70 488 70 463.5 44.5 c 128,-1,54
 439 19 439 19 414.5 -2 c 128,-1,55
 390 -23 390 -23 372.5 -46 c 128,-1,56
 355 -69 355 -69 355 -93 c 0,57,58
 355 -129 355 -129 401 -129 c 0,0,1
EndSplineSet
Validated: 33
EndChar

StartChar: uogonek
Encoding: 371 371 309
Width: 628
GlyphClass: 2
Flags: W
LayerCount: 2
Fore
SplineSet
509 -129 m 0,0,1
 533 -129 533 -129 549 -119 c 128,-1,2
 565 -109 565 -109 568 -109 c 0,3,4
 573 -109 573 -109 578 -114 c 128,-1,5
 583 -119 583 -119 583 -125 c 0,6,7
 583 -138 583 -138 557 -150.5 c 128,-1,8
 531 -163 531 -163 502 -163 c 0,9,10
 464 -163 464 -163 443.5 -146 c 128,-1,11
 423 -129 423 -129 423 -98 c 0,12,13
 423 -65 423 -65 441.5 -42.5 c 128,-1,14
 460 -20 460 -20 504 0 c 1,15,-1
 461 0 l 1,16,-1
 461 70 l 1,17,18
 373 -16 373 -16 269 -16 c 0,19,20
 207 -16 207 -16 168.5 21 c 128,-1,21
 130 58 130 58 130 121 c 2,22,-1
 130 394 l 1,23,-1
 74 394 l 2,24,25
 45 394 45 394 45 417 c 0,26,27
 45 437 45 437 74 437 c 2,28,-1
 173 437 l 1,29,-1
 173 121 l 2,30,31
 173 81 173 81 200.5 54 c 128,-1,32
 228 27 228 27 268 27 c 0,33,34
 372 27 372 27 461 121 c 1,35,-1
 461 394 l 1,36,-1
 383 394 l 2,37,38
 353 394 353 394 353 417 c 0,39,40
 353 437 353 437 383 437 c 2,41,-1
 504 437 l 1,42,-1
 504 43 l 1,43,-1
 539 43 l 2,44,45
 568 43 568 43 567 23 c 0,46,47
 567 14 567 14 551 2 c 128,-1,48
 535 -10 535 -10 515.5 -21.5 c 128,-1,49
 496 -33 496 -33 480 -52.5 c 128,-1,50
 464 -72 464 -72 464 -93 c 0,51,52
 464 -129 464 -129 509 -129 c 0,0,1
EndSplineSet
Validated: 33
EndChar

StartChar: longs
Encoding: 383 383 321
Width: 628
GlyphClass: 2
Flags: W
LayerCount: 2
Fore
SplineSet
545 578 m 0,0,1
 543 578 543 578 519 581 c 128,-1,2
 495 584 495 584 461 587.5 c 128,-1,3
 427 591 427 591 400 591 c 0,4,5
 349 591 349 591 317 566 c 128,-1,6
 285 541 285 541 285 501 c 2,7,-1
 285 43 l 1,8,-1
 471 43 l 2,9,10
 500 43 500 43 499 23 c 0,11,12
 499 0 499 0 471 0 c 2,13,-1
 138 0 l 2,14,15
 109 0 109 0 111 23 c 0,16,17
 111 43 111 43 138 43 c 2,18,-1
 242 43 l 1,19,-1
 242 394 l 1,20,-1
 148 394 l 2,21,22
 119 394 119 394 121 417 c 0,23,24
 121 437 121 437 148 437 c 2,25,-1
 242 437 l 1,26,-1
 242 501 l 2,27,28
 242 558 242 558 287.5 595.5 c 128,-1,29
 333 633 333 633 402 633 c 0,30,31
 476 633 476 633 549 620 c 0,32,33
 567 615 567 615 567 599 c 0,34,35
 568 578 568 578 545 578 c 0,0,1
EndSplineSet
Validated: 33
EndChar

StartChar: uni0180
Encoding: 384 384 322
Width: 628
GlyphClass: 2
Flags: W
LayerCount: 2
Fore
SplineSet
338 409 m 0,0,1
 260 409 260 409 205.5 353.5 c 128,-1,2
 151 298 151 298 151 218 c 128,-1,3
 151 138 151 138 205.5 82.5 c 128,-1,4
 260 27 260 27 338 27 c 0,5,6
 415 27 415 27 469.5 82 c 128,-1,7
 524 137 524 137 524 215 c 0,8,9
 524 297 524 297 470.5 353 c 128,-1,10
 417 409 417 409 338 409 c 0,0,1
108 545 m 1,11,-1
 108 591 l 1,12,-1
 51 591 l 2,13,14
 22 591 22 591 24 612 c 0,15,16
 24 632 24 632 51 633 c 2,17,-1
 151 633 l 1,18,-1
 151 545 l 1,19,-1
 296 545 l 2,20,21
 325 545 325 545 324 524 c 0,22,23
 324 501 324 501 296 502 c 2,24,-1
 151 502 l 1,25,-1
 151 344 l 1,26,27
 228 452 228 452 340 452 c 0,28,29
 435 452 435 452 501 384.5 c 128,-1,30
 567 317 567 317 567 220 c 0,31,32
 567 122 567 122 500.5 53 c 128,-1,33
 434 -16 434 -16 340 -16 c 0,34,35
 224 -16 224 -16 151 92 c 1,36,-1
 151 0 l 1,37,-1
 51 0 l 2,38,39
 22 0 22 0 24 23 c 0,40,41
 24 43 24 43 51 43 c 2,42,-1
 108 43 l 1,43,-1
 108 502 l 1,44,-1
 51 502 l 2,45,46
 22 502 22 502 24 524 c 0,47,48
 24 544 24 544 51 545 c 2,49,-1
 108 545 l 1,11,-1
EndSplineSet
Validated: 33
EndChar

StartChar: uni0181
Encoding: 385 385 323
Width: 628
GlyphClass: 2
Flags: W
LayerCount: 2
Fore
SplineSet
173 329 m 1,0,-1
 327 329 l 2,1,2
 395 329 395 329 437.5 360 c 128,-1,3
 480 391 480 391 480 439 c 0,4,5
 480 485 480 485 441 516.5 c 128,-1,6
 402 548 402 548 345 548 c 2,7,-1
 173 548 l 1,8,-1
 173 329 l 1,0,-1
524 161 m 0,9,10
 524 184 524 184 515.5 203 c 128,-1,11
 507 222 507 222 487 241.5 c 128,-1,12
 467 261 467 261 426.5 273.5 c 128,-1,13
 386 286 386 286 330 286 c 2,14,-1
 173 286 l 1,15,-1
 173 43 l 1,16,-1
 391 43 l 2,17,18
 446 43 446 43 485 77.5 c 128,-1,19
 524 112 524 112 524 161 c 0,9,10
74 591 m 2,20,-1
 344 591 l 2,21,22
 421 591 421 591 472 547.5 c 128,-1,23
 523 504 523 504 523 438 c 0,24,25
 523 360 523 360 434 312 c 1,26,27
 567 265 567 265 567 161 c 0,28,29
 567 94 567 94 516.5 47 c 128,-1,30
 466 0 466 0 394 0 c 2,31,-1
 74 0 l 2,32,33
 45 0 45 0 45 23 c 0,34,35
 45 43 45 43 74 43 c 2,36,-1
 130 43 l 1,37,-1
 130 548 l 1,38,-1
 74 548 l 2,39,40
 56 548 56 548 35.5 530.5 c 128,-1,41
 15 513 15 513 15 493 c 2,42,-1
 15 490 l 2,43,44
 15 466 15 466 32.5 450.5 c 128,-1,45
 50 435 50 435 72 435 c 0,46,47
 81 435 81 435 87 429 c 128,-1,48
 93 423 93 423 93 413 c 0,49,50
 93 405 93 405 87 398.5 c 128,-1,51
 81 392 81 392 72 392 c 0,52,53
 33 392 33 392 2.5 421 c 128,-1,54
 -28 450 -28 450 -28 493 c 128,-1,55
 -28 536 -28 536 4 563.5 c 128,-1,56
 36 591 36 591 74 591 c 2,20,-1
EndSplineSet
Validated: 1
EndChar

StartChar: uni0183
Encoding: 387 387 325
Width: 628
GlyphClass: 2
Flags: W
LayerCount: 2
Fore
SplineSet
338 409 m 0,0,1
 260 409 260 409 205.5 353.5 c 128,-1,2
 151 298 151 298 151 218 c 128,-1,3
 151 138 151 138 205.5 82.5 c 128,-1,4
 260 27 260 27 338 27 c 0,5,6
 415 27 415 27 469.5 82 c 128,-1,7
 524 137 524 137 524 215 c 0,8,9
 524 297 524 297 470.5 353 c 128,-1,10
 417 409 417 409 338 409 c 0,0,1
151 591 m 1,11,-1
 151 344 l 1,12,13
 228 452 228 452 340 452 c 0,14,15
 435 452 435 452 501 384.5 c 128,-1,16
 567 317 567 317 567 220 c 0,17,18
 567 122 567 122 500.5 53 c 128,-1,19
 434 -16 434 -16 340 -16 c 0,20,21
 224 -16 224 -16 151 92 c 1,22,-1
 151 0 l 1,23,-1
 51 0 l 2,24,25
 22 0 22 0 24 23 c 0,26,27
 24 43 24 43 51 43 c 2,28,-1
 108 43 l 1,29,-1
 108 591 l 1,30,-1
 51 591 l 2,31,32
 22 591 22 591 24 612 c 0,33,34
 24 632 24 632 51 633 c 2,35,-1
 496 633 l 2,36,37
 525 633 525 633 524 612 c 0,38,39
 524 589 524 589 496 591 c 2,40,-1
 151 591 l 1,11,-1
EndSplineSet
Validated: 33
EndChar

StartChar: uni0184
Encoding: 388 388 326
Width: 628
GlyphClass: 2
Flags: W
LayerCount: 2
Fore
SplineSet
532 161 m 0,0,1
 532 184 532 184 523.5 203 c 128,-1,2
 515 222 515 222 495 241.5 c 128,-1,3
 475 261 475 261 434.5 273.5 c 128,-1,4
 394 286 394 286 338 286 c 2,5,-1
 181 286 l 1,6,-1
 181 43 l 1,7,-1
 399 43 l 2,8,9
 454 43 454 43 493 77.5 c 128,-1,10
 532 112 532 112 532 161 c 0,0,1
181 499 m 1,11,-1
 181 329 l 1,12,-1
 336 329 l 2,13,14
 405 329 405 329 454.5 313 c 128,-1,15
 504 297 504 297 529 271 c 128,-1,16
 554 245 554 245 564.5 217 c 128,-1,17
 575 189 575 189 575 161 c 0,18,19
 575 94 575 94 524.5 47 c 128,-1,20
 474 0 474 0 402 0 c 2,21,-1
 82 0 l 2,22,23
 53 0 53 0 53 23 c 0,24,25
 53 43 53 43 82 43 c 2,26,-1
 138 43 l 1,27,-1
 138 470 l 1,28,-1
 86 433 l 2,29,30
 75 427 75 427 69 427 c 0,31,32
 62 427 62 427 55 433.5 c 128,-1,33
 48 440 48 440 48 449 c 0,34,35
 48 461 48 461 65 471 c 2,36,-1
 138 521 l 1,37,-1
 138 591 l 2,38,39
 138 620 138 620 160 618 c 0,40,41
 183 618 183 618 181 591 c 2,42,-1
 181 552 l 1,43,-1
 259 605 l 2,44,45
 271 611 271 611 276 611 c 0,46,47
 284 611 284 611 290.5 605 c 128,-1,48
 297 599 297 599 297 591 c 0,49,50
 297 579 297 579 280 568 c 2,51,-1
 181 499 l 1,11,-1
EndSplineSet
Validated: 33
EndChar

StartChar: uni0185
Encoding: 389 389 327
Width: 628
GlyphClass: 2
Flags: W
LayerCount: 2
Fore
SplineSet
151 218 m 128,-1,1
 151 138 151 138 205.5 82.5 c 128,-1,2
 260 27 260 27 338 27 c 0,3,4
 415 27 415 27 469.5 82 c 128,-1,5
 524 137 524 137 524 215 c 0,6,7
 524 297 524 297 470.5 353 c 128,-1,8
 417 409 417 409 338 409 c 0,9,10
 260 409 260 409 205.5 353.5 c 128,-1,0
 151 298 151 298 151 218 c 128,-1,1
151 498 m 1,11,-1
 151 344 l 1,12,13
 228 452 228 452 340 452 c 0,14,15
 435 452 435 452 501 384.5 c 128,-1,16
 567 317 567 317 567 220 c 0,17,18
 567 122 567 122 500.5 53 c 128,-1,19
 434 -16 434 -16 340 -16 c 0,20,21
 224 -16 224 -16 151 92 c 1,22,-1
 151 0 l 1,23,-1
 51 0 l 2,24,25
 22 0 22 0 24 23 c 0,26,27
 24 43 24 43 51 43 c 2,28,-1
 108 43 l 1,29,-1
 108 468 l 1,30,-1
 60 435 l 2,31,32
 49 429 49 429 43 429 c 0,33,34
 36 429 36 429 30 435.5 c 128,-1,35
 24 442 24 442 24 451 c 0,36,37
 24 463 24 463 40 473 c 2,38,-1
 108 520 l 1,39,-1
 108 591 l 2,40,41
 108 620 108 620 129 618 c 0,42,43
 152 618 152 618 151 591 c 2,44,-1
 151 550 l 1,45,-1
 233 607 l 2,46,47
 245 613 245 613 252 613 c 0,48,49
 260 613 260 613 265.5 607 c 128,-1,50
 271 601 271 601 271 593 c 0,51,52
 271 581 271 581 255 570 c 2,53,-1
 151 498 l 1,11,-1
EndSplineSet
Validated: 33
EndChar

StartChar: uni0186
Encoding: 390 390 328
Width: 628
GlyphClass: 2
Flags: W
LayerCount: 2
Fore
SplineSet
87 131 m 0,0,1
 96 131 96 131 112 114.5 c 128,-1,2
 128 98 128 98 146.5 78 c 128,-1,3
 165 58 165 58 202.5 42.5 c 128,-1,4
 240 27 240 27 289 27 c 0,5,6
 381 27 381 27 449 96.5 c 128,-1,7
 517 166 517 166 517 260 c 2,8,-1
 517 335 l 2,9,10
 517 428 517 428 455 494.5 c 128,-1,11
 393 561 393 561 306 561 c 0,12,13
 235 561 235 561 181.5 525 c 128,-1,14
 128 489 128 489 125 441 c 0,15,16
 124 415 124 415 103 417 c 0,17,18
 80 417 80 417 82 444 c 2,19,-1
 82 562 l 2,20,21
 82 591 82 591 102 591 c 0,22,23
 125 591 125 591 125 562 c 2,24,-1
 125 531 l 1,25,26
 201 604 201 604 306 604 c 0,27,28
 363 604 363 604 410 582.5 c 128,-1,29
 457 561 457 561 484 529.5 c 128,-1,30
 511 498 511 498 529.5 460 c 128,-1,31
 548 422 548 422 554 392 c 128,-1,32
 560 362 560 362 560 341 c 2,33,-1
 560 254 l 2,34,35
 560 149 560 149 477.5 66.5 c 128,-1,36
 395 -16 395 -16 289 -16 c 0,37,38
 244 -16 244 -16 200.5 -0.5 c 128,-1,39
 157 15 157 15 128.5 37 c 128,-1,40
 100 59 100 59 83.5 79.5 c 128,-1,41
 67 100 67 100 67 112 c 0,42,43
 67 131 67 131 87 131 c 0,0,1
EndSplineSet
Validated: 33
EndChar

StartChar: uni0187
Encoding: 391 391 329
Width: 628
GlyphClass: 2
Flags: W
LayerCount: 2
Fore
SplineSet
67 341 m 2,0,1
 67 360 67 360 72.5 389.5 c 128,-1,2
 78 419 78 419 96 457.5 c 128,-1,3
 114 496 114 496 140 527.5 c 128,-1,4
 166 559 166 559 213 581.5 c 128,-1,5
 260 604 260 604 319 604 c 0,6,7
 424 604 424 604 501 531 c 1,8,-1
 501 562 l 2,9,10
 501 601 501 601 528.5 632 c 128,-1,11
 556 663 556 663 599 663 c 128,-1,12
 642 663 642 663 670.5 633.5 c 128,-1,13
 699 604 699 604 699 564 c 0,14,15
 699 556 699 556 693 549.5 c 128,-1,16
 687 543 687 543 679 543 c 0,17,18
 670 543 670 543 663 549.5 c 128,-1,19
 656 556 656 556 656 564 c 0,20,21
 656 587 656 587 639.5 604 c 128,-1,22
 623 621 623 621 598 621 c 0,23,24
 579 620 579 620 561.5 601 c 128,-1,25
 544 582 544 582 544 562 c 2,26,-1
 544 444 l 2,27,28
 544 415 544 415 522 417 c 0,29,30
 504 417 504 417 501 441 c 0,31,32
 498 489 498 489 444 525 c 128,-1,33
 390 561 390 561 319 561 c 0,34,35
 232 561 232 561 170.5 494.5 c 128,-1,36
 109 428 109 428 109 335 c 2,37,-1
 109 260 l 2,38,39
 109 166 109 166 177.5 96.5 c 128,-1,40
 246 27 246 27 338 27 c 0,41,42
 392 27 392 27 435 49 c 128,-1,43
 478 71 478 71 520 121 c 0,44,45
 529 131 529 131 539 131 c 0,46,47
 559 131 559 131 560 112 c 0,48,49
 560 103 560 103 543 82 c 128,-1,50
 526 61 526 61 499 38.5 c 128,-1,51
 472 16 472 16 428 0 c 128,-1,52
 384 -16 384 -16 338 -16 c 0,53,54
 232 -16 232 -16 149.5 65.5 c 128,-1,55
 67 147 67 147 67 254 c 2,56,-1
 67 341 l 2,0,1
EndSplineSet
Validated: 33
EndChar

StartChar: uni0188
Encoding: 392 392 330
Width: 628
GlyphClass: 2
Flags: W
LayerCount: 2
Fore
SplineSet
561 92 m 0,0,1
 561 83 561 83 543 65.5 c 128,-1,2
 525 48 525 48 496.5 29 c 128,-1,3
 468 10 468 10 421 -3 c 128,-1,4
 374 -16 374 -16 324 -16 c 0,5,6
 222 -16 222 -16 155 49 c 128,-1,7
 88 114 88 114 88 214 c 0,8,9
 88 317 88 317 156 384.5 c 128,-1,10
 224 452 224 452 330 452 c 0,11,12
 427 452 427 452 493 394 c 1,13,-1
 493 408 l 2,14,15
 493 447 493 447 520.5 478 c 128,-1,16
 548 509 548 509 590.5 509 c 128,-1,17
 633 509 633 509 662 479.5 c 128,-1,18
 691 450 691 450 691 410 c 0,19,20
 691 402 691 402 685 395.5 c 128,-1,21
 679 389 679 389 670 389 c 0,22,23
 661 389 661 389 654.5 395 c 128,-1,24
 648 401 648 401 648 410 c 0,25,26
 648 433 648 433 631 450 c 128,-1,27
 614 467 614 467 589 467 c 0,28,29
 570 466 570 466 553 447 c 128,-1,30
 536 428 536 428 536 408 c 2,31,-1
 536 312 l 2,32,33
 536 283 536 283 515 285 c 0,34,35
 497 285 497 285 493 309 c 0,36,37
 490 351 490 351 441 380 c 128,-1,38
 392 409 392 409 326 409 c 0,39,40
 239 409 239 409 185 355 c 128,-1,41
 131 301 131 301 131 215 c 0,42,43
 131 132 131 132 185.5 79.5 c 128,-1,44
 240 27 240 27 326 27 c 0,45,46
 441 27 441 27 522 101 c 0,47,48
 532 111 532 111 541 112 c 128,-1,49
 550 113 550 113 555.5 106.5 c 128,-1,50
 561 100 561 100 561 92 c 0,0,1
EndSplineSet
Validated: 33
EndChar

StartChar: uni018A
Encoding: 394 394 332
Width: 628
GlyphClass: 2
Flags: W
LayerCount: 2
Fore
SplineSet
502 334 m 2,0,1
 502 354 502 354 492.5 386 c 128,-1,2
 483 418 483 418 462.5 456 c 128,-1,3
 442 494 442 494 399.5 521 c 128,-1,4
 357 548 357 548 302 548 c 2,5,-1
 152 548 l 1,6,-1
 152 43 l 1,7,-1
 309 43 l 2,8,9
 385 43 385 43 443.5 108 c 128,-1,10
 502 173 502 173 502 257 c 2,11,-1
 502 334 l 2,0,1
36 591 m 2,12,-1
 304 591 l 2,13,14
 405 591 405 591 475 513.5 c 128,-1,15
 545 436 545 436 545 325 c 2,16,-1
 545 266 l 2,17,18
 545 153 545 153 475.5 76.5 c 128,-1,19
 406 0 406 0 304 0 c 2,20,-1
 74 0 l 2,21,22
 45 0 45 0 45 23 c 0,23,24
 45 43 45 43 74 43 c 2,25,-1
 109 43 l 1,26,-1
 109 548 l 1,27,-1
 36 548 l 2,28,29
 17 548 17 548 -3 531 c 128,-1,30
 -23 514 -23 514 -24 494 c 0,31,32
 -24 468 -24 468 -6.5 451.5 c 128,-1,33
 11 435 11 435 34 435 c 0,34,35
 42 435 42 435 48 429 c 128,-1,36
 54 423 54 423 54 413 c 0,37,38
 54 405 54 405 48 398.5 c 128,-1,39
 42 392 42 392 34 392 c 0,40,41
 -6 392 -6 392 -35.5 421 c 128,-1,42
 -65 450 -65 450 -65 493 c 128,-1,43
 -65 536 -65 536 -33.5 563.5 c 128,-1,44
 -2 591 -2 591 36 591 c 2,12,-1
EndSplineSet
Validated: 1
EndChar

StartChar: uni018B
Encoding: 395 395 333
Width: 628
GlyphClass: 2
Flags: W
LayerCount: 2
Fore
SplineSet
301 339 m 2,0,-1
 455 339 l 1,1,-1
 455 548 l 1,2,-1
 136 548 l 1,3,-1
 136 444 l 2,4,5
 136 415 136 415 116 417 c 0,6,7
 93 417 93 417 93 444 c 2,8,-1
 93 591 l 1,9,-1
 555 591 l 2,10,11
 584 591 584 591 583 569 c 0,12,13
 583 546 583 546 555 548 c 2,14,-1
 498 548 l 1,15,-1
 498 43 l 1,16,-1
 555 43 l 2,17,18
 584 43 584 43 583 23 c 0,19,20
 583 0 583 0 555 0 c 2,21,-1
 233 0 l 2,22,23
 161 0 161 0 110.5 49 c 128,-1,24
 60 98 60 98 60 166 c 0,25,26
 60 196 60 196 71.5 223.5 c 128,-1,27
 83 251 83 251 108 278 c 128,-1,28
 133 305 133 305 182.5 322 c 128,-1,29
 232 339 232 339 301 339 c 2,0,-1
103 166 m 0,30,31
 103 117 103 117 142 80 c 128,-1,32
 181 43 181 43 237 43 c 2,33,-1
 455 43 l 1,34,-1
 455 296 l 1,35,-1
 299 296 l 2,36,37
 188 296 188 296 145.5 256 c 128,-1,38
 103 216 103 216 103 166 c 0,30,31
EndSplineSet
Validated: 33
EndChar

StartChar: uni018C
Encoding: 396 396 334
Width: 628
GlyphClass: 2
Flags: W
LayerCount: 2
Fore
SplineSet
253 409 m 0,0,1
 174 409 174 409 120.5 353 c 128,-1,2
 67 297 67 297 67 215 c 0,3,4
 67 137 67 137 121.5 82 c 128,-1,5
 176 27 176 27 253 27 c 0,6,7
 331 27 331 27 385 82.5 c 128,-1,8
 439 138 439 138 439 218 c 128,-1,9
 439 298 439 298 385 353.5 c 128,-1,10
 331 409 331 409 253 409 c 0,0,1
439 591 m 1,11,-1
 94 591 l 2,12,13
 65 591 65 591 67 612 c 0,14,15
 67 632 67 632 94 633 c 2,16,-1
 539 633 l 2,17,18
 568 633 568 633 567 612 c 0,19,20
 567 589 567 589 539 591 c 2,21,-1
 482 591 l 1,22,-1
 482 43 l 1,23,-1
 539 43 l 2,24,25
 568 43 568 43 567 23 c 0,26,27
 567 0 567 0 539 0 c 2,28,-1
 439 0 l 1,29,-1
 439 92 l 1,30,31
 365 -17 365 -17 251 -16 c 0,32,33
 157 -16 157 -16 90.5 53 c 128,-1,34
 24 122 24 122 24 220 c 0,35,36
 24 317 24 317 90 384.5 c 128,-1,37
 156 452 156 452 251 452 c 0,38,39
 364 452 364 452 439 344 c 1,40,-1
 439 591 l 1,11,-1
EndSplineSet
Validated: 33
EndChar

StartChar: uni018E
Encoding: 398 398 336
Width: 628
GlyphClass: 2
Flags: W
LayerCount: 2
Fore
SplineSet
418 286 m 1,0,-1
 265 286 l 1,1,-1
 265 238 l 2,2,3
 265 209 265 209 244 210 c 0,4,5
 224 210 224 210 222 238 c 2,6,-1
 222 376 l 2,7,8
 222 405 222 405 244 403 c 0,9,10
 267 403 267 403 265 376 c 2,11,-1
 265 329 l 1,12,-1
 418 329 l 1,13,-1
 418 548 l 1,14,-1
 111 548 l 1,15,-1
 111 444 l 2,16,17
 111 415 111 415 89 417 c 0,18,19
 66 417 66 417 68 444 c 2,20,-1
 68 591 l 1,21,-1
 517 591 l 2,22,23
 546 591 546 591 545 569 c 0,24,25
 545 546 545 546 517 548 c 2,26,-1
 461 548 l 1,27,-1
 461 43 l 1,28,-1
 517 43 l 2,29,30
 546 43 546 43 545 23 c 0,31,32
 545 0 545 0 517 0 c 2,33,-1
 45 0 l 1,34,-1
 45 168 l 2,35,36
 45 197 45 197 67 196 c 0,37,38
 90 196 90 196 88 168 c 2,39,-1
 88 43 l 1,40,-1
 418 43 l 1,41,-1
 418 286 l 1,0,-1
EndSplineSet
Validated: 33
EndChar

StartChar: uni0190
Encoding: 400 400 338
Width: 628
GlyphClass: 2
Flags: W
LayerCount: 2
Fore
SplineSet
311 283 m 2,0,1
 234 283 234 283 188 249.5 c 128,-1,2
 142 216 142 216 142 161 c 0,3,4
 142 104 142 104 191 65.5 c 128,-1,5
 240 27 240 27 313 27 c 0,6,7
 385 27 385 27 436 62 c 128,-1,8
 487 97 487 97 489 148 c 0,9,10
 490 174 490 174 511 174 c 0,11,12
 534 174 534 174 532 145 c 2,13,-1
 532 29 l 2,14,15
 532 0 532 0 512 0 c 0,16,17
 489 0 489 0 489 29 c 2,18,-1
 489 58 l 1,19,20
 422 -18 422 -18 312 -16 c 0,21,22
 218 -16 218 -16 157 33 c 128,-1,23
 96 82 96 82 96 159 c 0,24,25
 96 214 96 214 128 252 c 128,-1,26
 160 290 160 290 212 305 c 1,27,-1
 212 312 l 1,28,29
 171 326 171 326 145.5 360.5 c 128,-1,30
 120 395 120 395 120 441 c 0,31,32
 120 511 120 511 174.5 557.5 c 128,-1,33
 229 604 229 604 312 604 c 0,34,35
 402 604 402 604 466 542 c 1,36,-1
 466 562 l 2,37,38
 466 591 466 591 487 591 c 0,39,40
 507 591 507 591 509 562 c 2,41,-1
 509 454 l 2,42,43
 509 425 509 425 487 426 c 0,44,45
 468 426 468 426 466 451 c 0,46,47
 463 498 463 498 420 529.5 c 128,-1,48
 377 561 377 561 315 561 c 0,49,50
 250 561 250 561 208 526.5 c 128,-1,51
 166 492 166 492 166 440.5 c 128,-1,52
 166 389 166 389 211.5 357.5 c 128,-1,53
 257 326 257 326 325 326 c 2,54,-1
 376 326 l 2,55,56
 405 326 405 326 403 305 c 0,57,58
 403 282 403 282 376 283 c 2,59,-1
 311 283 l 2,0,1
EndSplineSet
Validated: 33
EndChar

StartChar: uni0191
Encoding: 401 401 339
Width: 628
GlyphClass: 2
Flags: W
LayerCount: 2
Fore
SplineSet
28 -41 m 0,0,1
 32 -41 32 -41 55 -47.5 c 128,-1,2
 78 -54 78 -54 100 -54 c 0,3,4
 135 -54 135 -54 156 -20.5 c 128,-1,5
 177 13 177 13 177 68 c 2,6,-1
 177 548 l 1,7,-1
 121 548 l 2,8,9
 92 548 92 548 92 569 c 0,10,11
 92 589 92 589 121 591 c 2,12,-1
 593 591 l 1,13,-1
 593 444 l 2,14,15
 593 415 593 415 570 417 c 0,16,17
 550 417 550 417 550 444 c 2,18,-1
 550 548 l 1,19,-1
 220 548 l 1,20,-1
 220 329 l 1,21,-1
 373 329 l 1,22,-1
 373 376 l 2,23,24
 373 405 373 405 393 403 c 0,25,26
 416 403 416 403 416 376 c 2,27,-1
 416 238 l 2,28,29
 416 209 416 209 393 210 c 0,30,31
 373 210 373 210 373 238 c 2,32,-1
 373 286 l 1,33,-1
 220 286 l 1,34,-1
 220 43 l 1,35,36
 214 -18 214 -18 182.5 -57 c 128,-1,37
 151 -96 151 -96 99 -97 c 0,38,39
 72 -97 72 -97 40 -89 c 128,-1,40
 8 -81 8 -81 8 -61 c 0,41,42
 8 -53 8 -53 14.5 -47 c 128,-1,43
 21 -41 21 -41 28 -41 c 0,0,1
EndSplineSet
Validated: 33
EndChar

StartChar: florin
Encoding: 402 402 340
Width: 628
GlyphClass: 2
Flags: W
LayerCount: 2
Fore
SplineSet
523 594 m 0,0,1
 521 594 521 594 499.5 599.5 c 128,-1,2
 478 605 478 605 456 605 c 0,3,4
 403 605 403 605 370 571.5 c 128,-1,5
 337 538 337 538 337 484 c 2,6,-1
 337 393 l 1,7,-1
 437 393 l 2,8,9
 466 393 466 393 466 373 c 0,10,11
 466 350 466 350 437 350 c 2,12,-1
 337 350 l 1,13,-1
 337 60 l 2,14,15
 337 -7 337 -7 292 -52 c 128,-1,16
 247 -97 247 -97 182 -97 c 0,17,18
 155 -97 155 -97 123 -89 c 128,-1,19
 91 -81 91 -81 91 -61 c 0,20,21
 91 -53 91 -53 96.5 -47 c 128,-1,22
 102 -41 102 -41 111 -41 c 0,23,24
 114 -41 114 -41 138 -47.5 c 128,-1,25
 162 -54 162 -54 183 -54 c 0,26,27
 231 -54 231 -54 262.5 -20.5 c 128,-1,28
 294 13 294 13 294 68 c 2,29,-1
 294 350 l 1,30,-1
 193 350 l 2,31,32
 164 350 164 350 165 373 c 0,33,34
 165 393 165 393 193 393 c 2,35,-1
 294 393 l 1,36,-1
 294 484 l 2,37,38
 294 553 294 553 339.5 600.5 c 128,-1,39
 385 648 385 648 452 648 c 0,40,41
 479 648 479 648 511 640 c 128,-1,42
 543 632 543 632 543 614 c 0,43,44
 543 606 543 606 537 600 c 128,-1,45
 531 594 531 594 523 594 c 0,0,1
EndSplineSet
Validated: 33
EndChar

StartChar: uni0193
Encoding: 403 403 341
Width: 628
GlyphClass: 2
Flags: W
LayerCount: 2
Fore
SplineSet
67 334 m 2,0,1
 67 445 67 445 140.5 524.5 c 128,-1,2
 214 604 214 604 329 604 c 0,3,4
 432 604 432 604 502 548 c 1,5,-1
 502 562 l 2,6,7
 502 601 502 601 529.5 632 c 128,-1,8
 557 663 557 663 600 663 c 128,-1,9
 643 663 643 663 671.5 633.5 c 128,-1,10
 700 604 700 604 700 564 c 0,11,12
 700 556 700 556 694 549.5 c 128,-1,13
 688 543 688 543 680 543 c 0,14,15
 671 543 671 543 664 549.5 c 128,-1,16
 657 556 657 556 657 564 c 0,17,18
 657 587 657 587 640.5 604 c 128,-1,19
 624 621 624 621 599 621 c 0,20,21
 580 620 580 620 562.5 601 c 128,-1,22
 545 582 545 582 545 562 c 2,23,-1
 545 467 l 2,24,25
 545 438 545 438 524 438 c 0,26,27
 505 438 505 438 504 465 c 0,28,29
 501 505 501 505 450 533 c 128,-1,30
 399 561 399 561 331 561 c 0,31,32
 266 561 266 561 218.5 533 c 128,-1,33
 171 505 171 505 149.5 464 c 128,-1,34
 128 423 128 423 118.5 389 c 128,-1,35
 109 355 109 355 109 333 c 2,36,-1
 109 256 l 2,37,38
 109 150 109 150 174 88.5 c 128,-1,39
 239 27 239 27 352 27 c 0,40,41
 426 27 426 27 502 61 c 1,42,-1
 502 219 l 1,43,-1
 356 219 l 2,44,45
 327 219 327 219 329 242 c 0,46,47
 329 262 329 262 356 262 c 2,48,-1
 560 262 l 2,49,50
 590 262 590 262 589 242 c 0,51,52
 589 219 589 219 560 219 c 2,53,-1
 545 219 l 1,54,-1
 545 38 l 1,55,56
 451 -16 451 -16 349 -16 c 0,57,58
 220 -16 220 -16 143.5 58 c 128,-1,59
 67 132 67 132 67 256 c 2,60,-1
 67 334 l 2,0,1
EndSplineSet
Validated: 33
EndChar

StartChar: uni0194
Encoding: 404 404 342
Width: 628
GlyphClass: 2
Flags: W
LayerCount: 2
Fore
SplineSet
314 238 m 1,0,1
 307 227 307 227 292.5 206.5 c 128,-1,2
 278 186 278 186 271 176 c 128,-1,3
 264 166 264 166 258 148 c 128,-1,4
 252 130 252 130 252 112 c 2,5,-1
 252 109 l 2,6,7
 252 70 252 70 266 42 c 128,-1,8
 280 14 280 14 314 14 c 0,9,10
 376 14 376 14 378 109 c 0,11,12
 378 119 378 119 374.5 130.5 c 128,-1,13
 371 142 371 142 368.5 150.5 c 128,-1,14
 366 159 366 159 358 172 c 128,-1,15
 350 185 350 185 346 191.5 c 128,-1,16
 342 198 342 198 330 215 c 128,-1,17
 318 232 318 232 314 238 c 1,0,1
291 273 m 2,18,-1
 103 548 l 1,19,-1
 79 548 l 2,20,21
 50 548 50 548 50 569 c 0,22,23
 50 589 50 589 79 591 c 2,24,-1
 195 591 l 2,25,26
 224 591 224 591 223 569 c 0,27,28
 223 546 223 546 195 548 c 2,29,-1
 156 548 l 1,30,-1
 314 309 l 1,31,-1
 471 548 l 1,32,-1
 429 548 l 2,33,34
 399 548 399 548 399 569 c 0,35,36
 399 589 399 589 429 591 c 2,37,-1
 544 591 l 2,38,39
 573 591 573 591 572 569 c 0,40,41
 572 546 572 546 544 548 c 2,42,-1
 519 548 l 1,43,-1
 339 274 l 2,44,45
 340 272 340 272 352 257.5 c 128,-1,46
 364 243 364 243 370.5 234 c 128,-1,47
 377 225 377 225 387.5 207 c 128,-1,48
 398 189 398 189 404.5 176 c 128,-1,49
 411 163 411 163 416 144.5 c 128,-1,50
 421 126 421 126 421 109 c 0,51,52
 421 49 421 49 393 10 c 128,-1,53
 365 -29 365 -29 314 -29 c 0,54,55
 265 -29 265 -29 237 12 c 128,-1,56
 209 53 209 53 209 109 c 0,57,58
 209 139 209 139 219.5 167 c 128,-1,59
 230 195 230 195 240 209.5 c 128,-1,60
 250 224 250 224 270 247.5 c 128,-1,61
 290 271 290 271 291 273 c 2,18,-1
EndSplineSet
Validated: 33
EndChar

StartChar: uni0195
Encoding: 405 405 343
Width: 628
GlyphClass: 2
Flags: W
LayerCount: 2
Fore
SplineSet
609 122 m 2,0,1
 608 64 608 64 571 24 c 128,-1,2
 534 -16 534 -16 472 -16 c 0,3,4
 404 -16 404 -16 356 43 c 0,5,6
 348 54 348 54 343 73.5 c 128,-1,7
 338 93 338 93 338 106 c 2,8,-1
 337 121 l 1,9,-1
 337 311 l 2,10,11
 337 408 337 408 265 409 c 2,12,-1
 242 409 l 2,13,14
 204 409 204 409 177 381 c 128,-1,15
 150 353 150 353 142 332 c 2,16,-1
 135 310 l 1,17,-1
 135 43 l 1,18,-1
 182 43 l 2,19,20
 212 43 212 43 212 23 c 0,21,22
 212 0 212 0 182 0 c 2,23,-1
 44 0 l 2,24,25
 15 0 15 0 15 23 c 0,26,27
 15 43 15 43 44 43 c 2,28,-1
 92 43 l 1,29,-1
 92 591 l 1,30,-1
 36 591 l 2,31,32
 7 591 7 591 7 612 c 0,33,34
 7 632 7 632 36 633 c 2,35,-1
 135 633 l 1,36,-1
 134 378 l 1,37,38
 152 417 152 417 176.5 434.5 c 128,-1,39
 201 452 201 452 244 452 c 0,40,41
 380 452 380 452 380 305 c 2,42,-1
 380 121 l 2,43,44
 380 81 380 81 407.5 54 c 128,-1,45
 435 27 435 27 475 27 c 0,46,47
 522 27 522 27 543.5 58 c 128,-1,48
 565 89 565 89 565 124 c 2,49,-1
 565 394 l 1,50,-1
 487 394 l 2,51,52
 457 394 457 394 458 417 c 0,53,54
 458 437 458 437 487 437 c 2,55,-1
 608 437 l 1,56,-1
 609 122 l 2,0,1
EndSplineSet
Validated: 33
EndChar

StartChar: uni0196
Encoding: 406 406 344
Width: 628
GlyphClass: 2
Flags: W
LayerCount: 2
Fore
SplineSet
526 72 m 0,0,1
 526 63 526 63 510.5 45 c 128,-1,2
 495 27 495 27 461 9.5 c 128,-1,3
 427 -8 427 -8 388 -8 c 0,4,5
 336 -8 336 -8 304.5 29.5 c 128,-1,6
 273 67 273 67 273 126 c 2,7,-1
 273 549 l 1,8,-1
 210 549 l 2,9,10
 181 549 181 549 181 570 c 128,-1,11
 181 591 181 591 210 591 c 2,12,-1
 316 591 l 1,13,-1
 316 126 l 2,14,15
 316 35 316 35 388 35 c 0,16,17
 416 35 416 35 437 43.5 c 128,-1,18
 458 52 458 52 468.5 63.5 c 128,-1,19
 479 75 479 75 489 83.5 c 128,-1,20
 499 92 499 92 506 92 c 0,21,22
 509 92 509 92 513.5 90.5 c 128,-1,23
 518 89 518 89 522 84 c 128,-1,24
 526 79 526 79 526 72 c 0,0,1
EndSplineSet
Validated: 1
EndChar

StartChar: uni0197
Encoding: 407 407 345
Width: 628
GlyphClass: 2
Flags: W
LayerCount: 2
Fore
SplineSet
293 337 m 1,0,-1
 293 548 l 1,1,-1
 146 548 l 2,2,3
 117 548 117 548 119 569 c 0,4,5
 119 589 119 589 146 591 c 2,6,-1
 481 591 l 2,7,8
 511 591 511 591 511 569 c 0,9,10
 511 546 511 546 481 548 c 2,11,-1
 336 548 l 1,12,-1
 336 337 l 1,13,-1
 440 337 l 2,14,15
 469 337 469 337 469 316 c 128,-1,16
 469 295 469 295 440 295 c 2,17,-1
 336 295 l 1,18,-1
 336 43 l 1,19,-1
 481 43 l 2,20,21
 511 43 511 43 511 23 c 0,22,23
 511 0 511 0 481 0 c 2,24,-1
 146 0 l 2,25,26
 117 0 117 0 119 23 c 0,27,28
 119 43 119 43 146 43 c 2,29,-1
 293 43 l 1,30,-1
 293 295 l 1,31,-1
 193 295 l 2,32,33
 164 295 164 295 164.5 316 c 128,-1,34
 165 337 165 337 193 337 c 2,35,-1
 293 337 l 1,0,-1
EndSplineSet
Validated: 33
EndChar

StartChar: uni0198
Encoding: 408 408 346
Width: 628
GlyphClass: 2
Flags: W
LayerCount: 2
Fore
SplineSet
526 548 m 1,0,-1
 294 340 l 1,1,2
 371 308 371 308 412.5 251 c 128,-1,3
 454 194 454 194 513 43 c 1,4,-1
 571 43 l 2,5,6
 600 43 600 43 600 23 c 0,7,8
 600 0 600 0 571 0 c 2,9,-1
 480 0 l 1,10,11
 423 160 423 160 378 222.5 c 128,-1,12
 333 285 333 285 258 308 c 1,13,-1
 173 231 l 1,14,-1
 173 43 l 1,15,-1
 252 43 l 2,16,17
 281 43 281 43 280 23 c 0,18,19
 280 0 280 0 252 0 c 2,20,-1
 74 0 l 2,21,22
 45 0 45 0 45 23 c 0,23,24
 45 43 45 43 74 43 c 2,25,-1
 130 43 l 1,26,-1
 130 548 l 1,27,-1
 74 548 l 2,28,29
 45 548 45 548 45 569 c 0,30,31
 45 589 45 589 74 591 c 2,32,-1
 252 591 l 2,33,34
 281 591 281 591 280 569 c 0,35,36
 280 546 280 546 252 548 c 2,37,-1
 173 548 l 1,38,-1
 173 287 l 1,39,-1
 467 548 l 1,40,-1
 420 548 l 2,41,42
 390 548 390 548 390 569 c 0,43,44
 390 589 390 589 420 591 c 2,45,-1
 543 591 l 2,46,47
 581 591 581 591 612.5 563.5 c 128,-1,48
 644 536 644 536 644 493 c 128,-1,49
 644 450 644 450 614.5 421 c 128,-1,50
 585 392 585 392 545 392 c 0,51,52
 537 392 537 392 530.5 398 c 128,-1,53
 524 404 524 404 524 413 c 0,54,55
 524 422 524 422 530.5 428.5 c 128,-1,56
 537 435 537 435 545 435 c 0,57,58
 568 435 568 435 585 452 c 128,-1,59
 602 469 602 469 602 494 c 0,60,61
 601 513 601 513 582 530.5 c 128,-1,62
 563 548 563 548 543 548 c 2,63,-1
 526 548 l 1,0,-1
EndSplineSet
Validated: 33
EndChar

StartChar: uni0199
Encoding: 409 409 347
Width: 628
GlyphClass: 2
Flags: W
LayerCount: 2
Fore
SplineSet
381 594 m 0,0,1
 379 594 379 594 357.5 599.5 c 128,-1,2
 336 605 336 605 313 605 c 0,3,4
 260 605 260 605 227 571.5 c 128,-1,5
 194 538 194 538 194 484 c 2,6,-1
 194 240 l 1,7,-1
 376 394 l 1,8,-1
 352 394 l 2,9,10
 323 394 323 394 324 417 c 0,11,12
 324 437 324 437 352 437 c 2,13,-1
 488 437 l 2,14,15
 517 437 517 437 517 417 c 0,16,17
 517 394 517 394 488 394 c 2,18,-1
 439 394 l 1,19,-1
 274 257 l 1,20,-1
 492 43 l 1,21,-1
 539 43 l 2,22,23
 568 43 568 43 567 23 c 0,24,25
 567 0 567 0 539 0 c 2,26,-1
 401 0 l 2,27,28
 372 0 372 0 374 23 c 0,29,30
 374 43 374 43 401 43 c 2,31,-1
 431 43 l 1,32,-1
 243 229 l 1,33,-1
 194 188 l 1,34,-1
 194 0 l 1,35,-1
 94 0 l 2,36,37
 65 0 65 0 67 23 c 0,38,39
 67 43 67 43 94 43 c 2,40,-1
 151 43 l 1,41,-1
 151 484 l 2,42,43
 151 553 151 553 197 600.5 c 128,-1,44
 243 648 243 648 309 648 c 0,45,46
 336 648 336 648 368 640 c 128,-1,47
 400 632 400 632 400 614 c 0,48,49
 400 606 400 606 394.5 600 c 128,-1,50
 389 594 389 594 381 594 c 0,0,1
EndSplineSet
Validated: 33
EndChar

StartChar: uni019A
Encoding: 410 410 348
Width: 628
GlyphClass: 2
Flags: W
LayerCount: 2
Fore
SplineSet
467 311 m 0,0,1
 467 307 467 307 465 302.5 c 128,-1,2
 463 298 463 298 456 293 c 128,-1,3
 449 288 449 288 438 288 c 2,4,-1
 336 288 l 1,5,-1
 336 43 l 1,6,-1
 504 43 l 2,7,8
 534 43 534 43 532 23 c 0,9,10
 532 0 532 0 504 0 c 2,11,-1
 125 0 l 2,12,13
 96 0 96 0 96 23 c 0,14,15
 96 43 96 43 125 43 c 2,16,-1
 293 43 l 1,17,-1
 293 288 l 1,18,-1
 190 288 l 2,19,20
 161 288 161 288 162 309 c 128,-1,21
 163 330 163 330 190 330 c 2,22,-1
 293 330 l 1,23,-1
 293 591 l 1,24,-1
 170 591 l 2,25,26
 141 591 141 591 141 612 c 0,27,28
 141 632 141 632 170 633 c 2,29,-1
 336 633 l 1,30,-1
 336 330 l 1,31,-1
 438 330 l 2,32,33
 467 328 467 328 467 311 c 0,0,1
EndSplineSet
Validated: 33
EndChar

StartChar: uni019B
Encoding: 411 411 349
Width: 628
GlyphClass: 2
Flags: W
LayerCount: 2
Fore
SplineSet
213 644 m 2,0,1
 232 644 232 644 246 634 c 128,-1,2
 260 624 260 624 264 615 c 128,-1,3
 268 606 268 606 268 601 c 2,4,-1
 285 567 l 1,5,-1
 359 618 l 2,6,7
 371 624 371 624 378 625 c 0,8,9
 386 625 386 625 391.5 618.5 c 128,-1,10
 397 612 397 612 397 604 c 0,11,12
 397 592 397 592 381 582 c 2,13,-1
 303 527 l 1,14,-1
 535 41 l 1,15,-1
 553 41 l 2,16,17
 570 41 570 41 572 33 c 2,18,-1
 577 18 l 1,19,20
 577 -2 577 -2 548 -2 c 2,21,-1
 432 -2 l 2,22,23
 405 -2 405 -2 406 18 c 0,24,25
 406 41 406 41 432 41 c 2,26,-1
 490 41 l 1,27,-1
 319 397 l 1,28,-1
 148 41 l 1,29,-1
 205 41 l 2,30,31
 234 41 234 41 232 18 c 0,32,33
 232 -2 232 -2 205 -2 c 2,34,-1
 89 -2 l 2,35,36
 80 -2 80 -2 74 0 c 0,37,38
 70 0 70 0 65 7 c 128,-1,39
 60 14 60 14 60 18 c 0,40,41
 60 41 60 41 89 41 c 2,42,-1
 101 41 l 1,43,-1
 297 444 l 1,44,-1
 268 504 l 1,45,-1
 186 446 l 2,46,47
 175 440 175 440 169 440 c 0,48,49
 162 440 162 440 155 447 c 128,-1,50
 148 454 148 454 148 463 c 0,51,52
 148 475 148 475 166 484 c 2,53,-1
 250 543 l 1,54,-1
 222 601 l 1,55,-1
 124 601 l 2,56,57
 95 601 95 601 95 623 c 0,58,59
 95 643 95 643 124 644 c 2,60,-1
 213 644 l 2,0,1
EndSplineSet
Validated: 33
EndChar

StartChar: uni019C
Encoding: 412 412 350
Width: 628
GlyphClass: 2
Flags: W
LayerCount: 2
Fore
SplineSet
516 0 m 1,0,-1
 516 54 l 1,1,2
 489 16 489 16 464 1 c 128,-1,3
 439 -14 439 -14 406 -14 c 0,4,5
 338 -14 338 -14 304 59 c 1,6,7
 247 -16 247 -16 185 -14 c 0,8,9
 140 -14 140 -14 108 19 c 128,-1,10
 76 52 76 52 76 98 c 2,11,-1
 76 548 l 1,12,-1
 40 548 l 2,13,14
 11 548 11 548 11 568 c 0,15,16
 11 591 11 591 40 591 c 2,17,-1
 118 591 l 1,18,-1
 118 102 l 2,19,20
 118 72 118 72 139 50.5 c 128,-1,21
 160 29 160 29 186 29 c 0,22,23
 238 29 238 29 296 115 c 1,24,-1
 296 548 l 1,25,-1
 260 548 l 2,26,27
 231 548 231 548 231 568 c 0,28,29
 231 591 231 591 260 591 c 2,30,-1
 338 591 l 1,31,-1
 338 105 l 2,32,33
 338 74 338 74 358.5 51.5 c 128,-1,34
 379 29 379 29 406 29 c 0,35,36
 458 29 458 29 516 115 c 1,37,-1
 516 548 l 1,38,-1
 480 548 l 2,39,40
 451 548 451 548 452 568 c 0,41,42
 452 591 452 591 480 591 c 2,43,-1
 595 591 l 2,44,45
 623 591 623 591 622 568 c 0,46,47
 622 548 622 548 594 548 c 2,48,-1
 558 548 l 1,49,-1
 558 43 l 1,50,-1
 594 43 l 2,51,52
 623 43 623 43 622 20 c 0,53,54
 622 0 622 0 594 0 c 2,55,-1
 516 0 l 1,0,-1
EndSplineSet
Validated: 33
EndChar

StartChar: uni019D
Encoding: 413 413 351
Width: 628
GlyphClass: 2
Flags: W
LayerCount: 2
Fore
SplineSet
220 60 m 2,0,1
 220 -8 220 -8 187.5 -52 c 128,-1,2
 155 -96 155 -96 99 -97 c 0,3,4
 72 -97 72 -97 40 -89 c 128,-1,5
 8 -81 8 -81 8 -61 c 0,6,7
 8 -53 8 -53 13.5 -47 c 128,-1,8
 19 -41 19 -41 28 -41 c 0,9,10
 32 -41 32 -41 55 -47.5 c 128,-1,11
 78 -54 78 -54 100 -54 c 0,12,13
 135 -54 135 -54 156 -20.5 c 128,-1,14
 177 13 177 13 177 68 c 2,15,-1
 177 548 l 1,16,-1
 121 548 l 2,17,18
 92 548 92 548 92 569 c 0,19,20
 92 589 92 589 121 591 c 2,21,-1
 231 591 l 1,22,-1
 518 61 l 1,23,-1
 518 548 l 1,24,-1
 440 548 l 2,25,26
 410 548 410 548 411 569 c 0,27,28
 411 589 411 589 440 591 c 2,29,-1
 597 591 l 2,30,31
 626 591 626 591 625 569 c 0,32,33
 625 546 625 546 597 548 c 2,34,-1
 561 548 l 1,35,-1
 561 0 l 1,36,-1
 507 0 l 1,37,-1
 220 528 l 1,38,-1
 220 60 l 2,0,1
EndSplineSet
Validated: 33
EndChar

StartChar: uni019E
Encoding: 414 414 352
Width: 628
GlyphClass: 2
Flags: W
LayerCount: 2
Fore
SplineSet
335 409 m 0,0,1
 317 409 317 409 299 405 c 128,-1,2
 281 401 281 401 266 393.5 c 128,-1,3
 251 386 251 386 240 379.5 c 128,-1,4
 229 373 229 373 217.5 360 c 128,-1,5
 206 347 206 347 201 341.5 c 128,-1,6
 196 336 196 336 186 322.5 c 128,-1,7
 176 309 176 309 175 308 c 2,8,-1
 175 43 l 1,9,-1
 222 43 l 2,10,11
 251 43 251 43 251 23 c 0,12,13
 251 0 251 0 222 0 c 2,14,-1
 85 0 l 2,15,16
 55 0 55 0 55 23 c 0,17,18
 55 43 55 43 85 43 c 2,19,-1
 132 43 l 1,20,-1
 132 394 l 1,21,-1
 96 394 l 2,22,23
 67 394 67 394 69 417 c 0,24,25
 69 437 69 437 96 437 c 2,26,-1
 175 437 l 1,27,-1
 175 365 l 1,28,29
 220 415 220 415 255 433.5 c 128,-1,30
 290 452 290 452 339 452 c 0,31,32
 410 452 410 452 457 411 c 128,-1,33
 504 370 504 370 504 309 c 2,34,-1
 504 -150 l 1,35,-1
 539 -150 l 2,36,37
 568 -150 568 -150 567 -171 c 0,38,39
 567 -194 567 -194 539 -193 c 2,40,-1
 425 -193 l 2,41,42
 396 -193 396 -193 396 -171 c 0,43,44
 396 -151 396 -151 425 -150 c 2,45,-1
 461 -150 l 1,46,-1
 461 302 l 2,47,48
 461 347 461 347 426.5 378 c 128,-1,49
 392 409 392 409 335 409 c 0,0,1
EndSplineSet
Validated: 33
EndChar

StartChar: Ohorn
Encoding: 416 416 354
Width: 628
GlyphClass: 3
Flags: W
AnchorPoint: "Anchor-2" 315 591 basechar 0
LayerCount: 2
Fore
SplineSet
314 561 m 0,0,1
 224 561 224 561 160 482 c 128,-1,2
 96 403 96 403 96 293 c 128,-1,3
 96 183 96 183 160 105 c 128,-1,4
 224 27 224 27 314 27 c 0,5,6
 403 27 403 27 467.5 104.5 c 128,-1,7
 532 182 532 182 532 291 c 0,8,9
 532 405 532 405 468.5 483 c 128,-1,10
 405 561 405 561 314 561 c 0,0,1
465 550 m 1,11,-1
 525 550 l 2,12,13
 544 550 544 550 563.5 566.5 c 128,-1,14
 583 583 583 583 584 603 c 0,15,16
 584 629 584 629 567 645.5 c 128,-1,17
 550 662 550 662 527 662 c 0,18,19
 519 662 519 662 513 668 c 128,-1,20
 507 674 507 674 507 684 c 0,21,22
 507 692 507 692 513 698.5 c 128,-1,23
 519 705 519 705 527 705 c 0,24,25
 567 705 567 705 596.5 676 c 128,-1,26
 626 647 626 647 626 604 c 128,-1,27
 626 561 626 561 595 534 c 128,-1,28
 564 507 564 507 525 507 c 2,29,-1
 507 507 l 1,30,31
 577 418 577 418 575 290 c 0,32,33
 575 163 575 163 499 73.5 c 128,-1,34
 423 -16 423 -16 314 -16 c 0,35,36
 205 -16 205 -16 129 74 c 128,-1,37
 53 164 53 164 53 294 c 128,-1,38
 53 424 53 424 129.5 514 c 128,-1,39
 206 604 206 604 314 604 c 0,40,41
 398 604 398 604 465 550 c 1,11,-1
EndSplineSet
Validated: 33
Ligature2: "'ccmp' Glyph Composition/Decomposition in Latin lookup 0 per glyph data 0" O horncmb
EndChar

StartChar: ohorn
Encoding: 417 417 355
Width: 628
GlyphClass: 3
Flags: W
AnchorPoint: "Anchor-2" 273 452 basechar 0
LayerCount: 2
Fore
SplineSet
314 409 m 0,0,1
 232 409 232 409 175.5 353.5 c 128,-1,2
 119 298 119 298 119 218 c 128,-1,3
 119 138 119 138 175.5 82.5 c 128,-1,4
 232 27 232 27 314 27 c 0,5,6
 395 27 395 27 453 82 c 128,-1,7
 511 137 511 137 511 215 c 0,8,9
 511 298 511 298 454 353.5 c 128,-1,10
 397 409 397 409 314 409 c 0,0,1
452 410 m 1,11,-1
 518 410 l 2,12,13
 537 410 537 410 556 426.5 c 128,-1,14
 575 443 575 443 577 464 c 0,15,16
 577 490 577 490 559.5 506 c 128,-1,17
 542 522 542 522 520 522 c 0,18,19
 512 522 512 522 505.5 528.5 c 128,-1,20
 499 535 499 535 499 544 c 0,21,22
 499 552 499 552 505.5 558.5 c 128,-1,23
 512 565 512 565 520 565 c 0,24,25
 560 565 560 565 589 536.5 c 128,-1,26
 618 508 618 508 618 465 c 128,-1,27
 618 422 618 422 587.5 394.5 c 128,-1,28
 557 367 557 367 518 367 c 2,29,-1
 499 367 l 1,30,31
 553 304 553 304 554 215 c 0,32,33
 554 119 554 119 483.5 51.5 c 128,-1,34
 413 -16 413 -16 314 -16 c 0,35,36
 215 -16 215 -16 145.5 52 c 128,-1,37
 76 120 76 120 76 218 c 0,38,39
 76 314 76 314 145.5 383 c 128,-1,40
 215 452 215 452 314 452 c 0,41,42
 391 452 391 452 452 410 c 1,11,-1
EndSplineSet
Validated: 1
Ligature2: "'ccmp' Glyph Composition/Decomposition in Latin lookup 0 per glyph data 0" o horncmb
EndChar

StartChar: uni01A2
Encoding: 418 418 356
Width: 628
GlyphClass: 2
Flags: W
LayerCount: 2
Fore
SplineSet
227 561 m 0,0,1
 139 561 139 561 92.5 485 c 128,-1,2
 46 409 46 409 46 291 c 0,3,4
 46 177 46 177 94 102 c 128,-1,5
 142 27 142 27 227 27 c 0,6,7
 313 27 313 27 361 102.5 c 128,-1,8
 409 178 409 178 409 294 c 0,9,10
 409 411 409 411 361.5 486 c 128,-1,11
 314 561 314 561 227 561 c 0,0,1
295 593 m 1,12,13
 338 670 338 670 444 669 c 0,14,15
 511 669 511 669 541 630.5 c 128,-1,16
 571 592 571 592 571 548 c 2,17,-1
 571 43 l 1,18,-1
 594 43 l 2,19,20
 624 43 624 43 623 23 c 0,21,22
 623 0 623 0 594 0 c 2,23,-1
 502 0 l 2,24,25
 473 0 473 0 474 23 c 0,26,27
 474 43 474 43 502 43 c 2,28,-1
 528 43 l 1,29,-1
 528 548 l 2,30,31
 528 559 528 559 525 570 c 128,-1,32
 522 581 522 581 513 594 c 128,-1,33
 504 607 504 607 483 615 c 128,-1,34
 462 623 462 623 430 623 c 0,35,36
 395 623 395 623 374 612.5 c 128,-1,37
 353 602 353 602 333 572 c 1,38,39
 386 536 386 536 417.5 469 c 128,-1,40
 449 402 449 402 450 329 c 2,41,-1
 451 286 l 1,42,43
 449 154 449 154 390.5 69 c 128,-1,44
 332 -16 332 -16 228 -16 c 128,-1,45
 124 -16 124 -16 63.5 71 c 128,-1,46
 3 158 3 158 3 290 c 0,47,48
 3 429 3 429 62 516.5 c 128,-1,49
 121 604 121 604 227 604 c 0,50,51
 262 604 262 604 295 593 c 1,12,13
EndSplineSet
Validated: 33
EndChar

